<?xml version="1.0" encoding="utf-8"?>
<!-- Generator: Adobe Illustrator 18.1.1, SVG Export Plug-In . SVG Version: 6.00 Build 0)  -->
<!DOCTYPE svg PUBLIC "-//W3C//DTD SVG 1.1//EN" "http://www.w3.org/Graphics/SVG/1.1/DTD/svg11.dtd">
<svg version="1.1" id="Layer_1" xmlns="http://www.w3.org/2000/svg" xmlns:xlink="http://www.w3.org/1999/xlink" x="0px" y="0px"
	 viewBox="0 0 1024 768" enable-background="new 0 0 1024 768" xml:space="preserve">
<rect x="237.6" y="178.1" fill="#F2F2F2" width="786.4" height="589.5"/>
<polygon fill="#3DB253" points="238.6,765.9 362.9,574 500.4,700.5 589.8,574 725.1,720.1 781.8,606.7 882.2,713.6 1024,565.2 
	1024,765.9 "/>
<polygon opacity="0.12" fill="#050505" enable-background="new    " points="363.4,574 238.6,765.9 363.4,765.9 "/>
<polygon opacity="0.12" fill="#050505" enable-background="new    " points="585.6,574 461.1,765.9 585.6,765.9 "/>
<polygon opacity="0.12" fill="#050505" enable-background="new    " points="784.1,608.9 703.2,765.9 784.1,765.9 "/>
<polygon opacity="0.12" fill="#050505" enable-background="new    " points="956.2,635 840.8,765.9 956.2,765.9 "/>
<polygon fill="#FFFFFF" points="319.3,641.3 356.3,687.4 384.8,641.3 428.4,665.6 436.1,641.3 362.9,574 "/>
<polygon fill="#FFFFFF" points="538.5,646.6 582.9,696.2 611.1,646.5 654.4,672.7 662.9,652.4 587.5,572 "/>
<polygon fill="#FFFFFF" points="744.9,678.9 780.5,726.6 806.3,678.9 845.8,704 852.9,681.8 781.8,606.7 "/>
<polygon fill="#FFFFFF" points="1024,565.2 957.3,635.2 1004.3,635.2 1004.3,687.4 1024,674.3 "/>
<g>
	<g>
		<rect x="314.4" y="372.3" fill="#CE8345" width="20.7" height="18.4"/>
		<g>
			<path fill="#E21A53" d="M334.2,362.9c11.7-15.7,29.1-42.2,29.1-56.7c0-21.8-17.7-39.3-39.5-39.3s-39.5,17.4-39.5,39.2
				c0,14.5,17.4,41.1,29.1,56.8H334.2z"/>
			<polyline fill="#CE8345" points="314.4,372.3 335.1,372.3 335.1,390.6 			"/>
			<path fill="#FFD44A" d="M324.1,266.9v96h10.1c11.7-15.7,29.3-42.2,29.3-56.7C363.5,284.4,345.7,266.9,324.1,266.9z"/>
		</g>
	</g>
	<path fill="#49CEBE" d="M302.5,272.8c-10.8,6.9-18.7,19.2-18.7,33.3c0,10.5,9.8,27.3,18.7,41.9V272.8z"/>
	<path fill="#779AD6" d="M344.7,272.8c10.8,6.9,18.7,19.2,18.7,33.3c0,10.5-9.8,27.3-18.7,41.9V272.8z"/>
</g>
<g>
	<rect x="727.2" y="467" fill="#CE8345" width="21.3" height="19"/>
	<g>
		<path fill="#E21A53" d="M747.7,457.3c12.1-15.7,30.1-43.4,30.1-58.4c0-22.5-18.3-40.6-40.8-40.6s-40.8,17.9-40.8,40.5
			c0,14.9,18,42.8,30.1,58.5H747.7z"/>
		<polyline fill="#CE8345" points="727.2,467 748.6,467 748.6,486 		"/>
		<path fill="#FFD44A" d="M776.1,387.5c-5-16.7-20.6-29.1-39.1-29.1c-18.6,0-34.2,12.4-39.1,29.1H776.1z"/>
		<path fill="#49CEBE" d="M698.6,412.1c5.3,14.7,18.2,33.4,27.6,46.2h21.5c9.3-12.8,22.3-31.5,27.6-46.2H698.6z"/>
		<path fill="#779AD6" d="M710.4,433.7c5.2,9.8,10.9,17.7,15.8,23.6h21.5c4.8-6.9,10.6-13.8,15.8-23.6H710.4z"/>
	</g>
</g>
<g>
	<rect x="511.7" y="427.6" fill="#CE8345" width="26.1" height="23.2"/>
	<polyline fill="#CE8345" points="511.7,427.6 537.8,427.6 537.8,450.8 	"/>
	<g>
		<g>
			<defs>
				<path id="SVGID_1_" d="M536.7,416c14.8-20.6,36.8-53.5,36.8-71.8c0-27.6-22.4-49.7-49.9-49.7c-27.6,0-49.9,22.1-49.9,49.6
					c0,18.3,22,51.2,36.8,71.9H536.7z"/>
			</defs>
			<clipPath id="SVGID_2_">
				<use xlink:href="#SVGID_1_"  overflow="visible"/>
			</clipPath>
			<g clip-path="url(#SVGID_2_)">
				<g>
					<defs>
						<rect id="SVGID_3_" x="465.4" y="294.4" width="15.6" height="130.4"/>
					</defs>
					<clipPath id="SVGID_4_">
						<use xlink:href="#SVGID_3_"  overflow="visible"/>
					</clipPath>
					<g clip-path="url(#SVGID_4_)">
						<rect x="465.6" y="294.4" fill="#FFD44A" width="117.5" height="16.2"/>
						<rect x="465.6" y="309.9" fill="#E21A53" width="117.5" height="16.2"/>
						<rect x="465.6" y="326.1" fill="#49CEBE" width="117.5" height="16.2"/>
						<rect x="465.6" y="342.3" fill="#779AD6" width="117.5" height="16.2"/>
						<rect x="465.6" y="358.5" fill="#FFD44A" width="117.5" height="16.2"/>
						<rect x="465.6" y="373.9" fill="#E21A53" width="117.5" height="16.2"/>
						<rect x="465.6" y="390.1" fill="#49CEBE" width="117.5" height="16.2"/>
						<rect x="465.6" y="406.3" fill="#779AD6" width="117.5" height="16.2"/>
					</g>
				</g>
				<g>
					<defs>
						<path id="SVGID_5_" d="M536.7,416c14.8-20.6,36.8-53.5,36.8-71.8c0-27.6-22.4-49.7-49.9-49.7c-27.6,0-49.9,22.1-49.9,49.6
							c0,18.3,22,51.2,36.8,71.9H536.7z"/>
					</defs>
					<clipPath id="SVGID_6_">
						<use xlink:href="#SVGID_5_"  overflow="visible"/>
					</clipPath>
					<g clip-path="url(#SVGID_6_)">
						<g>
							<defs>
								<rect id="SVGID_7_" x="481" y="294.4" width="15.6" height="130.4"/>
							</defs>
							<clipPath id="SVGID_8_">
								<use xlink:href="#SVGID_7_"  overflow="visible"/>
							</clipPath>
							<g clip-path="url(#SVGID_8_)">
								<rect x="379" y="408.7" fill="#FFD44A" width="117.5" height="16.2"/>
								<rect x="379" y="393.2" fill="#E21A53" width="117.5" height="16.2"/>
								<rect x="379" y="377.1" fill="#49CEBE" width="117.5" height="16.2"/>
								<rect x="379" y="360.9" fill="#779AD6" width="117.5" height="16.2"/>
								<rect x="379" y="344.7" fill="#FFD44A" width="117.5" height="16.2"/>
								<rect x="379" y="329.2" fill="#E21A53" width="117.5" height="16.2"/>
								<rect x="379" y="313" fill="#49CEBE" width="117.5" height="16.2"/>
								<rect x="379" y="296.9" fill="#779AD6" width="117.5" height="16.2"/>
							</g>
						</g>
						<g>
							<defs>
								<path id="SVGID_9_" d="M536.7,416c14.8-20.6,36.8-53.5,36.8-71.8c0-27.6-22.4-49.7-49.9-49.7c-27.6,0-49.9,22.1-49.9,49.6
									c0,18.3,22,51.2,36.8,71.9H536.7z"/>
							</defs>
							<clipPath id="SVGID_10_">
								<use xlink:href="#SVGID_9_"  overflow="visible"/>
							</clipPath>
							<g clip-path="url(#SVGID_10_)">
								<g>
									<defs>
										<rect id="SVGID_11_" x="496.6" y="294.4" width="15.6" height="130.4"/>
									</defs>
									<clipPath id="SVGID_12_">
										<use xlink:href="#SVGID_11_"  overflow="visible"/>
									</clipPath>
									<g clip-path="url(#SVGID_12_)">
										<rect x="496.8" y="294.4" fill="#FFD44A" width="117.5" height="16.2"/>
										<rect x="496.8" y="309.9" fill="#E21A53" width="117.5" height="16.2"/>
										<rect x="496.8" y="326.1" fill="#49CEBE" width="117.5" height="16.2"/>
										<rect x="496.8" y="342.3" fill="#779AD6" width="117.5" height="16.2"/>
										<rect x="496.8" y="358.5" fill="#FFD44A" width="117.5" height="16.2"/>
										<rect x="496.8" y="373.9" fill="#E21A53" width="117.5" height="16.2"/>
										<rect x="496.8" y="390.1" fill="#49CEBE" width="117.5" height="16.2"/>
										<rect x="496.8" y="406.3" fill="#779AD6" width="117.5" height="16.2"/>
									</g>
								</g>
								<g>
									<defs>
										<path id="SVGID_13_" d="M536.7,416c14.8-20.6,36.8-53.5,36.8-71.8c0-27.6-22.4-49.7-49.9-49.7
											c-27.6,0-49.9,22.1-49.9,49.6c0,18.3,22,51.2,36.8,71.9H536.7z"/>
									</defs>
									<clipPath id="SVGID_14_">
										<use xlink:href="#SVGID_13_"  overflow="visible"/>
									</clipPath>
									<g clip-path="url(#SVGID_14_)">
										<g>
											<defs>
												<rect id="SVGID_15_" x="512.3" y="294.4" width="15.6" height="130.4"/>
											</defs>
											<clipPath id="SVGID_16_">
												<use xlink:href="#SVGID_15_"  overflow="visible"/>
											</clipPath>
											<g clip-path="url(#SVGID_16_)">
												<rect x="410.2" y="408.7" fill="#FFD44A" width="117.5" height="16.2"/>
												<rect x="410.2" y="393.2" fill="#E21A53" width="117.5" height="16.2"/>
												<rect x="410.2" y="377.1" fill="#49CEBE" width="117.5" height="16.2"/>
												<rect x="410.2" y="360.9" fill="#779AD6" width="117.5" height="16.2"/>
												<rect x="410.2" y="344.7" fill="#FFD44A" width="117.5" height="16.2"/>
												<rect x="410.2" y="329.2" fill="#E21A53" width="117.5" height="16.2"/>
												<rect x="410.2" y="313" fill="#49CEBE" width="117.5" height="16.2"/>
												<rect x="410.2" y="296.9" fill="#779AD6" width="117.5" height="16.2"/>
											</g>
										</g>
										<g>
											<defs>
												<path id="SVGID_17_" d="M536.7,416c14.8-20.6,36.8-53.5,36.8-71.8c0-27.6-22.4-49.7-49.9-49.7
													c-27.6,0-49.9,22.1-49.9,49.6c0,18.3,22,51.2,36.8,71.9H536.7z"/>
											</defs>
											<clipPath id="SVGID_18_">
												<use xlink:href="#SVGID_17_"  overflow="visible"/>
											</clipPath>
											<g clip-path="url(#SVGID_18_)">
												<g>
													<defs>
														<rect id="SVGID_19_" x="527.2" y="294.4" width="15.6" height="130.4"/>
													</defs>
													<clipPath id="SVGID_20_">
														<use xlink:href="#SVGID_19_"  overflow="visible"/>
													</clipPath>
													<g clip-path="url(#SVGID_20_)">
														<rect x="527.4" y="294.4" fill="#FFD44A" width="117.5" height="16.2"/>
														<rect x="527.4" y="309.9" fill="#E21A53" width="117.5" height="16.2"/>
														<rect x="527.4" y="326.1" fill="#49CEBE" width="117.5" height="16.2"/>
														<rect x="527.4" y="342.3" fill="#779AD6" width="117.5" height="16.2"/>
														<rect x="527.4" y="358.5" fill="#FFD44A" width="117.5" height="16.2"/>
														<rect x="527.4" y="373.9" fill="#E21A53" width="117.5" height="16.2"/>
														<rect x="527.4" y="390.1" fill="#49CEBE" width="117.5" height="16.2"/>
														<rect x="527.4" y="406.3" fill="#779AD6" width="117.5" height="16.2"/>
													</g>
												</g>
												<g>
													<defs>
														<path id="SVGID_21_" d="M536.7,416c14.8-20.6,36.8-53.5,36.8-71.8c0-27.6-22.4-49.7-49.9-49.7
															c-27.6,0-49.9,22.1-49.9,49.6c0,18.3,22,51.2,36.8,71.9H536.7z"/>
													</defs>
													<clipPath id="SVGID_22_">
														<use xlink:href="#SVGID_21_"  overflow="visible"/>
													</clipPath>
													<g clip-path="url(#SVGID_22_)">
														<g>
															<defs>
																<rect id="SVGID_23_" x="558.5" y="294.4" width="15.6" height="130.4"/>
															</defs>
															<clipPath id="SVGID_24_">
																<use xlink:href="#SVGID_23_"  overflow="visible"/>
															</clipPath>
															<g clip-path="url(#SVGID_24_)">
																<rect x="558.6" y="294.4" fill="#FFD44A" width="117.5" height="16.2"/>
																<rect x="558.6" y="309.9" fill="#E21A53" width="117.5" height="16.2"/>
																<rect x="558.6" y="326.1" fill="#49CEBE" width="117.5" height="16.2"/>
																<rect x="558.6" y="342.3" fill="#779AD6" width="117.5" height="16.2"/>
																<rect x="558.6" y="358.5" fill="#FFD44A" width="117.5" height="16.2"/>
																<rect x="558.6" y="373.9" fill="#E21A53" width="117.5" height="16.2"/>
																<rect x="558.6" y="390.1" fill="#49CEBE" width="117.5" height="16.2"/>
																<rect x="558.6" y="406.3" fill="#779AD6" width="117.5" height="16.2"/>
															</g>
														</g>
														<g>
															<defs>
																<path id="SVGID_25_" d="M536.7,416c14.8-20.6,36.8-53.5,36.8-71.8c0-27.6-22.4-49.7-49.9-49.7
																	c-27.6,0-49.9,22.1-49.9,49.6c0,18.3,22,51.2,36.8,71.9H536.7z"/>
															</defs>
															<clipPath id="SVGID_26_">
																<use xlink:href="#SVGID_25_"  overflow="visible"/>
															</clipPath>
															<g clip-path="url(#SVGID_26_)">
																<g>
																	<defs>
																		<rect id="SVGID_27_" x="542.8" y="294.4" width="15.6" height="130.4"/>
																	</defs>
																	<clipPath id="SVGID_28_">
																		<use xlink:href="#SVGID_27_"  overflow="visible"/>
																	</clipPath>
																	<g clip-path="url(#SVGID_28_)">
																		<rect x="440.8" y="408.7" fill="#FFD44A" width="117.5" height="16.2"/>
																		<rect x="440.8" y="393.2" fill="#E21A53" width="117.5" height="16.2"/>
																		<rect x="440.8" y="377.1" fill="#49CEBE" width="117.5" height="16.2"/>
																		<rect x="440.8" y="360.9" fill="#779AD6" width="117.5" height="16.2"/>
																		<rect x="440.8" y="344.7" fill="#FFD44A" width="117.5" height="16.2"/>
																		<rect x="440.8" y="329.2" fill="#E21A53" width="117.5" height="16.2"/>
																		<rect x="440.8" y="313" fill="#49CEBE" width="117.5" height="16.2"/>
																		<rect x="440.8" y="296.9" fill="#779AD6" width="117.5" height="16.2"/>
																	</g>
																</g>
															</g>
														</g>
														<g>
															<rect x="885.5" y="320.5" fill="#CE8345" width="18.7" height="16.5"/>
															<polyline fill="#CE8345" points="885.5,320.5 904.1,320.5 904.1,337.1 															"/>
															<g>
																<g>
																	<defs>
																		<path id="SVGID_29_" d="M903.4,311.8c10.5-13.8,26.2-37.8,26.2-50.9c0-19.7-15.9-35.4-35.6-35.4
																			s-35.6,15.5-35.6,35.2c0,13.1,15.6,37.3,26.2,51L903.4,311.8L903.4,311.8z"/>
																	</defs>
																	<clipPath id="SVGID_30_">
																		<use xlink:href="#SVGID_29_"  overflow="visible"/>
																	</clipPath>
																	<g clip-path="url(#SVGID_30_)">
																		
																			<rect x="829.4" y="231.1" transform="matrix(-0.7434 0.6689 -0.6689 -0.7434 1677.7566 -171.0147)" fill="#FFD44A" width="84.6" height="10.5"/>
																		
																			<rect x="836.1" y="238.6" transform="matrix(-0.7434 0.6689 -0.6689 -0.7434 1694.4441 -162.4515)" fill="#E21A53" width="84.6" height="10.5"/>
																		
																			<rect x="843.2" y="246.4" transform="matrix(-0.7434 0.6689 -0.6689 -0.7434 1712.0549 -153.6022)" fill="#49CEBE" width="84.6" height="10.5"/>
																		
																			<rect x="850.1" y="254.2" transform="matrix(-0.7434 0.6689 -0.6689 -0.7434 1729.4192 -144.6728)" fill="#779AD6" width="84.6" height="10.5"/>
																		
																			<rect x="857.1" y="262" transform="matrix(-0.7434 0.6689 -0.6689 -0.7434 1746.7832 -135.7436)" fill="#FFD44A" width="84.6" height="10.5"/>
																		
																			<rect x="863.9" y="269.4" transform="matrix(-0.7434 0.6689 -0.6689 -0.7434 1763.5542 -127.3437)" fill="#E21A53" width="84.6" height="10.5"/>
																		
																			<rect x="870.9" y="277.2" transform="matrix(-0.7434 0.6689 -0.6689 -0.7434 1780.9182 -118.4145)" fill="#49CEBE" width="84.6" height="10.5"/>
																		
																			<rect x="877.9" y="285" transform="matrix(-0.7434 0.6689 -0.6689 -0.7434 1798.4459 -109.4017)" fill="#779AD6" width="84.6" height="10.5"/>
																	</g>
																</g>
															</g>
														</g>
													</g>
												</g>
											</g>
										</g>
									</g>
								</g>
							</g>
						</g>
					</g>
				</g>
			</g>
		</g>
	</g>
</g>
</svg>
