<?xml version="1.0" encoding="utf-8"?>
<!-- Generator: Adobe Illustrator 18.1.1, SVG Export Plug-In . SVG Version: 6.00 Build 0)  -->
<!DOCTYPE svg PUBLIC "-//W3C//DTD SVG 1.1//EN" "http://www.w3.org/Graphics/SVG/1.1/DTD/svg11.dtd">
<svg version="1.1" id="Layer_1" xmlns="http://www.w3.org/2000/svg" xmlns:xlink="http://www.w3.org/1999/xlink" x="0px" y="0px"
	 viewBox="0 0 1024 768" enable-background="new 0 0 1024 768" xml:space="preserve">
<circle fill="#1B5A73" cx="553.9" cy="308.1" r="26.8"/>
<circle fill="#B1ECF7" cx="329.2" cy="342.6" r="26.8"/>
<circle fill="#1B5A73" cx="334.7" cy="462.3" r="26.8"/>
<circle fill="#F9D540" cx="531.3" cy="244.7" r="26.8"/>
<circle fill="#FF7B91" cx="313.6" cy="512.5" r="26.8"/>
<circle fill="#F9D540" cx="480.6" cy="488.7" r="26.8"/>
<circle fill="#FF7B91" cx="302.5" cy="511.5" r="26.8"/>
<circle fill="#B1ECF7" cx="636.4" cy="361.6" r="30.9"/>
<circle fill="#1B5A73" cx="778.9" cy="288" r="30.9"/>
<circle fill="#F9D540" cx="469.6" cy="487.9" r="26.8"/>
<circle fill="#F9D540" cx="562.1" cy="441.5" r="26.8"/>
<circle fill="#FF7B91" cx="471.4" cy="515.5" r="26.8"/>
<circle fill="#F9D540" cx="659.9" cy="488.7" r="26.8"/>
<circle fill="#1B5A73" cx="536.7" cy="226.3" r="26.8"/>
<circle fill="#F9D540" cx="583.6" cy="317" r="26.8"/>
<circle fill="#FF7B91" cx="610.4" cy="370.7" r="26.8"/>
<circle fill="#B1ECF7" cx="637.2" cy="498.1" r="26.8"/>
<circle fill="#1B5A73" cx="567.9" cy="471.3" r="26.8"/>
<circle fill="#B1ECF7" cx="356.5" cy="303.7" r="26.8"/>
<circle fill="#FF7B91" cx="329.7" cy="390.6" r="26.8"/>
<circle fill="#1B5A73" cx="574.7" cy="457.8" r="26.8"/>
<circle fill="#F9D540" cx="556.3" cy="361.6" r="26.8"/>
<circle fill="#B1ECF7" cx="297.9" cy="465" r="26.8"/>
<circle fill="#1B5A73" cx="291.1" cy="474.9" r="26.8"/>
<circle fill="#F9D540" cx="536.6" cy="250.3" r="26.8"/>
<circle fill="#FF7B91" cx="558" cy="324.4" r="26.8"/>
<circle fill="#1B5A73" cx="652.8" cy="394" r="26.8"/>
<circle fill="#F9D540" cx="728.3" cy="311.8" r="30.9"/>
<circle fill="#B1ECF7" cx="702.1" cy="322.5" r="30.9"/>
<circle fill="#1B5A73" cx="542.4" cy="280" r="26.8"/>
<circle fill="#1B5A73" cx="549.3" cy="266.7" r="26.8"/>
<circle fill="#B1ECF7" cx="802.4" cy="317.4" r="30.9"/>
<circle fill="#F9D540" cx="530.1" cy="226" r="26.8"/>
<rect x="165.7" y="174.7" fill="#FFFFFF" width="690.1" height="367.4"/>
<rect x="212.7" y="230.9" fill="none" width="210.6" height="41"/>
<g enable-background="new    ">
	<path d="M227.6,231.5v1.2H217v8.1h8.9v1.1H217v8.4h10.6v1.2h-12.1v-20.1L227.6,231.5L227.6,231.5z"/>
	<path d="M231.7,251.6v-14.2h0.7c0.2,0,0.4,0.1,0.4,0.4l0.1,2c0.2-0.4,0.6-0.7,0.9-1.1c0.4-0.4,0.6-0.6,1-0.9
		c0.4-0.2,0.7-0.4,1.1-0.5c0.4-0.1,0.9-0.2,1.2-0.2c1,0,1.9,0.2,2.5,0.9c0.6,0.6,1,1.5,1.2,2.5c0.1-0.6,0.4-1.1,0.7-1.5
		c0.2-0.4,0.6-0.7,1-1.1c0.4-0.2,0.9-0.5,1.2-0.6c0.5-0.1,1-0.2,1.5-0.2c0.7,0,1.4,0.1,1.9,0.4s1,0.6,1.4,1c0.4,0.5,0.7,1,0.9,1.6
		c0.2,0.6,0.4,1.4,0.4,2.2v9.1h-1.4v-9.1c0-1.4-0.2-2.5-0.9-3.1c-0.6-0.7-1.5-1.1-2.6-1.1c-0.5,0-1,0.1-1.4,0.2
		c-0.4,0.1-0.9,0.5-1.2,0.7c-0.4,0.4-0.6,0.7-0.9,1.4c-0.2,0.5-0.2,1.1-0.2,1.9v9.1H240v-9.1c0-1.4-0.2-2.4-0.9-3.1
		c-0.5-0.7-1.4-1.1-2.4-1.1c-0.7,0-1.5,0.2-2.1,0.7c-0.6,0.5-1.2,1.1-1.7,1.9v10.7h-1.1V251.6z"/>
	<path d="M263.4,251.6c-0.2,0-0.5-0.1-0.5-0.4l-0.2-1.7c-0.4,0.4-0.7,0.7-1.1,1s-0.7,0.5-1.2,0.7c-0.4,0.2-0.9,0.4-1.4,0.5
		c-0.5,0.1-1,0.1-1.6,0.1c-0.5,0-1-0.1-1.4-0.2c-0.5-0.1-0.9-0.4-1.2-0.6c-0.4-0.2-0.6-0.6-0.9-1.1c-0.2-0.5-0.4-1-0.4-1.6
		s0.1-1.1,0.5-1.6c0.4-0.5,0.9-1,1.6-1.4s1.6-0.6,2.7-0.9c1.1-0.2,2.5-0.4,4.1-0.4v-1.5c0-1.2-0.2-2.4-0.9-3
		c-0.6-0.7-1.4-1.1-2.5-1.1c-0.6,0-1.2,0.1-1.7,0.2c-0.5,0.2-0.9,0.4-1.2,0.6s-0.6,0.5-0.9,0.6c-0.2,0.2-0.4,0.2-0.5,0.2
		c-0.2,0-0.4-0.1-0.4-0.2l-0.2-0.4c0.7-0.7,1.5-1.2,2.4-1.6c0.9-0.4,1.7-0.6,2.7-0.6c0.7,0,1.4,0.1,2,0.4c0.6,0.2,1,0.6,1.4,1
		c0.4,0.5,0.6,1,0.9,1.6c0.2,0.6,0.2,1.4,0.2,2.1v9.2L263.4,251.6L263.4,251.6z M257.7,250.8c0.5,0,1,0,1.5-0.1s0.9-0.2,1.2-0.5
		c0.4-0.2,0.7-0.5,1.1-0.7c0.4-0.2,0.6-0.6,1-1v-3.7c-1.4,0-2.5,0.1-3.5,0.2c-1,0.1-1.7,0.4-2.4,0.6c-0.6,0.2-1.1,0.6-1.4,1
		c-0.2,0.4-0.5,0.9-0.5,1.4s0.1,0.9,0.2,1.2c0.1,0.4,0.4,0.6,0.6,0.9c0.2,0.2,0.5,0.4,0.9,0.5C257,250.8,257.3,250.8,257.7,250.8z"
		/>
	<path d="M270.5,232.6c0,0.1,0,0.4-0.1,0.5c-0.1,0.1-0.1,0.2-0.2,0.4c-0.1,0.1-0.2,0.2-0.4,0.2c-0.1,0.1-0.4,0.1-0.5,0.1
		c-0.1,0-0.4,0-0.5-0.1c-0.1-0.1-0.2-0.1-0.4-0.2c-0.1-0.1-0.2-0.2-0.2-0.4c-0.1-0.1-0.1-0.2-0.1-0.5c0-0.1,0-0.4,0.1-0.5
		s0.1-0.2,0.2-0.4c0.1-0.1,0.2-0.2,0.4-0.2c0.1,0,0.4-0.1,0.5-0.1c0.1,0,0.4,0,0.5,0.1c0.1,0.1,0.2,0.1,0.4,0.2s0.2,0.2,0.2,0.4
		S270.5,232.4,270.5,232.6z M270,237.5v14.2h-1.4v-14.2H270z"/>
	<path d="M276.7,230.9v20.7h-1.4v-20.7H276.7z"/>
	<path d="M280.9,242.6h6.6v1.1h-6.6C280.9,243.7,280.9,242.6,280.9,242.6z"/>
	<path d="M291.2,251.6v-14.2h0.7c0.2,0,0.4,0.1,0.4,0.4l0.1,2c0.2-0.4,0.6-0.7,0.9-1.1c0.4-0.4,0.6-0.6,1-0.9s0.7-0.4,1.1-0.5
		c0.4-0.1,0.9-0.2,1.2-0.2c1,0,1.9,0.2,2.5,0.9s1,1.5,1.2,2.5c0.1-0.6,0.4-1.1,0.7-1.5c0.2-0.4,0.6-0.7,1-1.1
		c0.4-0.2,0.9-0.5,1.2-0.6c0.5-0.1,1-0.2,1.5-0.2c0.7,0,1.4,0.1,1.9,0.4s1,0.6,1.4,1c0.4,0.5,0.7,1,0.9,1.6c0.2,0.6,0.4,1.4,0.4,2.2
		v9.1h-1.2v-9.1c0-1.4-0.2-2.5-0.9-3.1c-0.6-0.7-1.5-1.1-2.6-1.1c-0.5,0-1,0.1-1.4,0.2c-0.4,0.1-0.9,0.5-1.2,0.7
		c-0.4,0.4-0.6,0.7-0.9,1.4c-0.2,0.5-0.2,1.1-0.2,1.9v9.1h-1.4v-9.1c0-1.4-0.2-2.4-0.9-3.1c-0.5-0.7-1.4-1.1-2.4-1.1
		c-0.7,0-1.5,0.2-2.1,0.7c-0.6,0.5-1.2,1.1-1.7,1.9v10.7h-1.2V251.6z"/>
	<path d="M319.1,237.3c0.7,0,1.5,0.1,2.2,0.4c0.6,0.2,1.2,0.6,1.7,1.2c0.5,0.5,0.9,1.1,1.1,2c0.2,0.7,0.4,1.6,0.4,2.6
		c0,0.2,0,0.4-0.1,0.4c0,0.1-0.1,0.1-0.2,0.1H314v0.2c0,1.1,0.1,2,0.4,2.7c0.2,0.7,0.6,1.5,1,2c0.5,0.5,1,1,1.6,1.2
		c0.6,0.2,1.4,0.4,2.1,0.4s1.4-0.1,1.9-0.2s1-0.4,1.4-0.5c0.4-0.2,0.6-0.4,0.9-0.5c0.2-0.1,0.4-0.2,0.5-0.2c0.1,0,0.2,0,0.2,0.1
		l0.4,0.5c-0.2,0.2-0.5,0.5-0.9,0.7c-0.4,0.2-0.7,0.5-1.2,0.6c-0.5,0.1-1,0.4-1.5,0.4c-0.5,0.1-1,0.1-1.6,0.1c-1,0-1.9-0.1-2.6-0.5
		c-0.7-0.4-1.5-0.9-2-1.5c-0.6-0.6-1-1.5-1.4-2.4c-0.2-0.9-0.5-2-0.5-3.2c0-1,0.1-2,0.4-2.9c0.2-0.9,0.7-1.6,1.2-2.2
		c0.5-0.6,1.2-1.1,2-1.5C317,237,318.1,237.3,319.1,237.3z M319.1,238.3c-0.7,0-1.4,0.1-2,0.4c-0.6,0.2-1.1,0.5-1.5,1
		c-0.4,0.4-0.7,1-1,1.5c-0.2,0.6-0.4,1.2-0.5,2h9.4c0-0.7-0.1-1.5-0.4-2c-0.2-0.6-0.5-1.1-0.9-1.5c-0.4-0.4-0.9-0.7-1.4-1
		C320.4,238.4,319.9,238.3,319.1,238.3z"/>
	<path d="M342.9,251.6c-0.2,0-0.5-0.1-0.5-0.4l-0.2-1.7c-0.4,0.4-0.7,0.7-1.1,1s-0.7,0.5-1.2,0.7c-0.4,0.2-0.9,0.4-1.4,0.5
		c-0.5,0.1-1,0.1-1.6,0.1c-0.5,0-1-0.1-1.4-0.2c-0.5-0.1-0.9-0.4-1.2-0.6c-0.4-0.2-0.6-0.6-0.9-1.1c-0.2-0.5-0.4-1-0.4-1.6
		s0.1-1.1,0.5-1.6c0.4-0.5,0.9-1,1.6-1.4c0.7-0.4,1.6-0.6,2.7-0.9s2.5-0.4,4.1-0.4v-1.5c0-1.2-0.2-2.4-0.9-3
		c-0.6-0.7-1.4-1.1-2.5-1.1c-0.6,0-1.2,0.1-1.7,0.2c-0.5,0.2-0.9,0.4-1.2,0.6s-0.6,0.5-0.9,0.6c-0.2,0.2-0.4,0.2-0.5,0.2
		c-0.2,0-0.4-0.1-0.4-0.2l-0.2-0.4c0.7-0.7,1.5-1.2,2.4-1.6c0.9-0.4,1.7-0.6,2.7-0.6c0.7,0,1.4,0.1,2,0.4c0.6,0.2,1,0.6,1.4,1
		c0.4,0.5,0.6,1,0.9,1.6c0.2,0.6,0.2,1.4,0.2,2.1v9.2L342.9,251.6L342.9,251.6z M337.2,250.8c0.5,0,1,0,1.5-0.1s0.9-0.2,1.2-0.5
		c0.4-0.2,0.7-0.5,1.1-0.7c0.4-0.2,0.6-0.6,1-1v-3.7c-1.4,0-2.5,0.1-3.5,0.2c-1,0.1-1.7,0.4-2.4,0.6s-1.1,0.6-1.4,1
		c-0.2,0.4-0.5,0.9-0.5,1.4s0.1,0.9,0.2,1.2c0.1,0.4,0.4,0.6,0.6,0.9c0.2,0.2,0.5,0.4,0.9,0.5C336.5,250.8,336.8,250.8,337.2,250.8z
		"/>
	<path d="M351.5,251.8c-1,0-1.7-0.2-2.2-0.7c-0.5-0.5-0.7-1.4-0.7-2.5v-9.7h-2c-0.1,0-0.2,0-0.2-0.1c-0.1,0-0.1-0.1-0.1-0.2v-0.4
		l2.4-0.1l0.4-5.1c0-0.1,0-0.1,0.1-0.2c0.1-0.1,0.1-0.1,0.2-0.1h0.6v5.4h4.5v1h-4.5v9.6c0,0.4,0,0.7,0.1,1c0.1,0.2,0.2,0.5,0.4,0.7
		c0.1,0.1,0.4,0.4,0.6,0.4c0.2,0,0.5,0.1,0.7,0.1c0.4,0,0.6,0,0.9-0.1c0.2-0.1,0.5-0.2,0.6-0.4c0.1-0.1,0.4-0.2,0.5-0.4
		s0.2-0.1,0.2-0.1c0.1,0,0.1,0,0.2,0.1l0.4,0.6c-0.4,0.4-0.9,0.7-1.4,1C352.7,251.7,352.2,251.8,351.5,251.8z"/>
</g>
<path fill="#AAAAAA" d="M802.7,308.9c0-2,1.2-3.6,2.9-4.4v-6c-1.7-0.7-2.9-2.5-2.9-4.4c0-1.9,1.2-3.6,2.9-4.4v-6
	c-1.7-0.7-2.9-2.5-2.9-4.4c0-1.9,1.2-3.6,2.9-4.4v-6c-1.7-0.7-2.9-2.5-2.9-4.4c0-1.9,1.2-3.6,2.9-4.4v-6c-1.7-0.7-2.9-2.5-2.9-4.4
	c0-1.9,1.2-3.6,2.9-4.4v-6.4c-1.7-0.7-2.9-2.5-2.9-4.4s1.2-3.6,2.9-4.4v-6c-1.7-0.7-2.9-2.5-2.9-4.4s1.2-3.6,2.9-4.4v-6
	c-1.7-0.7-2.9-2.5-2.9-4.4c0-0.5,0.1-1,0.2-1.5h-2.2c-0.7,1.7-2.5,2.9-4.4,2.9c-2,0-3.6-1.1-4.4-2.9h-6.1c-0.7,1.7-2.5,2.9-4.4,2.9
	c-2,0-3.6-1.1-4.4-2.9h-6.1c-0.7,1.7-2.5,2.9-4.4,2.9c-2,0-3.6-1.1-4.4-2.9h-6.1c-0.7,1.7-2.5,2.9-4.4,2.9c-2,0-3.6-1.1-4.4-2.9
	h-6.1c-0.7,1.7-2.5,2.9-4.4,2.9c-2,0-3.6-1.1-4.4-2.9h-6.1c-0.7,1.7-2.5,2.9-4.4,2.9c-2,0-3.6-1.1-4.4-2.9h-6.1
	c-0.7,1.7-2.5,2.9-4.4,2.9c-2,0-3.6-1.1-4.4-2.9h-6.1c-0.7,1.7-2.5,2.9-4.4,2.9c-2,0-3.6-1.1-4.4-2.9h-2.7c0.1,0.5,0.2,1,0.2,1.5
	c0,2-1.2,3.6-2.9,4.4v6c1.7,0.7,2.9,2.5,2.9,4.4s-1.2,3.6-2.9,4.4v6c1.7,0.7,2.9,2.5,2.9,4.4s-1.2,3.6-2.9,4.4v6
	c1.7,0.7,2.9,2.5,2.9,4.4s-1.2,3.6-2.9,4.4v6c1.7,0.7,2.9,2.5,2.9,4.4c0,1.9-1.2,3.6-2.9,4.4v6c1.7,0.7,2.9,2.5,2.9,4.4
	c0,1.9-1.2,3.6-2.9,4.4v6c1.7,0.7,2.9,2.5,2.9,4.4c0,1.9-1.2,3.6-2.9,4.4v6c1.7,0.7,2.9,2.5,2.9,4.4s-1.2,3.6-2.9,4.4v1h5.2
	c0.6-1.7,2.5-3.1,4.5-3.1s3.9,1.2,4.5,3.1h5.9c0.6-1.7,2.5-3.1,4.5-3.1s3.9,1.2,4.5,3.1h5.9c0.6-1.7,2.5-3.1,4.5-3.1
	s3.9,1.2,4.5,3.1h5.9c0.6-1.7,2.5-3.1,4.5-3.1s3.9,1.2,4.5,3.1h5.9c0.6-1.7,2.5-3.1,4.5-3.1s3.9,1.2,4.5,3.1h5.9
	c0.6-1.7,2.5-3.1,4.5-3.1c2,0,3.9,1.2,4.5,3.1h5.9c0.6-1.7,2.5-3.1,4.5-3.1c2,0,3.9,1.2,4.5,3.1h5.9c0.6-1.7,2.5-3.1,4.5-3.1
	c2,0,3.9,1.2,4.5,3.1h4.7v-1C804,312.7,802.7,310.9,802.7,308.9z"/>
<circle fill="#FF7B91" cx="726.8" cy="245.4" r="30.9"/>
<rect x="690.7" y="211.6" fill="#F2F2F2" width="108.2" height="96.5"/>
<polygon fill="#3DB253" points="690.8,307.7 711.2,276.3 733.7,297.1 748.4,276.3 770.5,300.2 779.7,281.6 796.1,299.2 796.1,299.2 
	798.9,308.1 "/>
<polygon opacity="0.12" fill="#050505" enable-background="new    " points="711.2,276.3 690.8,307.7 711.2,307.7 "/>
<polygon opacity="0.12" fill="#050505" enable-background="new    " points="747.6,276.3 727.2,307.7 747.6,307.7 "/>
<polygon opacity="0.12" fill="#050505" enable-background="new    " points="780.2,282 766.8,307.7 780.2,307.7 "/>
<polygon fill="#FFFFFF" points="704,287.3 710.1,294.9 714.7,287.3 722,291.2 723.1,287.3 711.2,276.3 "/>
<polygon fill="#FFFFFF" points="739.9,288.1 747.1,296.4 751.9,288.1 758.9,292.5 760.2,289.1 747.9,276 "/>
<polygon fill="#FFFFFF" points="773.7,293.5 779.6,301.2 783.8,293.5 790.2,297.6 791.4,294 779.7,281.6 "/>
<g>
	<g>
		<rect x="703.3" y="243.4" fill="#CE8345" width="3.4" height="3"/>
		<g>
			<path fill="#E21A53" d="M706.5,241.7c2-2.6,4.7-6.9,4.7-9.2c0-3.6-2.9-6.5-6.5-6.5c-3.6,0-6.5,2.9-6.5,6.5c0,2.4,2.9,6.7,4.7,9.2
				H706.5z"/>
			<polyline fill="#CE8345" points="703.3,243.4 706.6,243.4 706.6,246.4 			"/>
			<path fill="#FFD44A" d="M704.9,226v15.7h1.6c2-2.6,4.7-6.9,4.7-9.2C711.2,228.9,708.4,226,704.9,226z"/>
		</g>
	</g>
	<path fill="#49CEBE" d="M701.3,226.9c-1.7,1.1-3.1,3.1-3.1,5.5c0,1.7,1.6,4.5,3.1,6.9V226.9z"/>
	<path fill="#779AD6" d="M708.2,226.9c1.7,1.1,3.1,3.1,3.1,5.5c0,1.7-1.6,4.5-3.1,6.9V226.9z"/>
</g>
<g>
	<rect x="770.8" y="258.7" fill="#CE8345" width="3.5" height="3.1"/>
	<g>
		<path fill="#E21A53" d="M774.2,257.2c2-2.6,5-7.1,5-9.6c0-3.6-3-6.6-6.6-6.6s-6.6,2.9-6.6,6.6c0,2.5,2.9,7,5,9.6H774.2z"/>
		<polyline fill="#CE8345" points="770.8,258.7 774.3,258.7 774.3,261.9 		"/>
		<path fill="#FFD44A" d="M778.8,245.7c-0.9-2.7-3.4-4.7-6.5-4.7c-3,0-5.6,2-6.5,4.7H778.8z"/>
		<path fill="#49CEBE" d="M766.1,249.8c0.9,2.5,3,5.5,4.6,7.6h3.5c1.5-2.1,3.6-5.1,4.6-7.6H766.1z"/>
		<path fill="#779AD6" d="M768.1,253.3c0.9,1.6,1.7,2.9,2.6,3.9h3.5c0.9-1.1,1.7-2.2,2.6-3.9H768.1z"/>
	</g>
</g>
<g>
	<rect x="735.5" y="252.3" fill="#CE8345" width="4.4" height="3.9"/>
	<polyline fill="#CE8345" points="735.5,252.3 739.8,252.3 739.8,256.2 	"/>
	<g>
		<g>
			<g>
				<g>
					<defs>
						<path id="SVGID_1_" d="M739.7,250.5c2.5-3.4,6-8.7,6-11.8c0-4.6-3.6-8.1-8.2-8.1s-8.2,3.6-8.2,8.1c0,3,3.6,8.4,6,11.8H739.7z"
							/>
					</defs>
					<clipPath id="SVGID_2_">
						<use xlink:href="#SVGID_1_"  overflow="visible"/>
					</clipPath>
					<g clip-path="url(#SVGID_2_)">
						<g>
							<g>
								<g>
									<defs>
										<rect id="SVGID_3_" x="727.9" y="230.5" width="2.5" height="21.3"/>
									</defs>
									<clipPath id="SVGID_4_">
										<use xlink:href="#SVGID_3_"  overflow="visible"/>
									</clipPath>
									<g clip-path="url(#SVGID_4_)">
										<rect x="727.9" y="230.5" fill="#FFD44A" width="19.3" height="2.7"/>
										<rect x="727.9" y="233" fill="#E21A53" width="19.3" height="2.7"/>
										<rect x="727.9" y="235.8" fill="#49CEBE" width="19.3" height="2.7"/>
										<rect x="727.9" y="238.4" fill="#779AD6" width="19.3" height="2.7"/>
										<rect x="727.9" y="241" fill="#FFD44A" width="19.3" height="2.7"/>
										<rect x="727.9" y="243.6" fill="#E21A53" width="19.3" height="2.7"/>
										<rect x="727.9" y="246.2" fill="#49CEBE" width="19.3" height="2.7"/>
										<rect x="727.9" y="248.9" fill="#779AD6" width="19.3" height="2.7"/>
									</g>
								</g>
								<g>
									<g>
										<g>
											<defs>
												<path id="SVGID_5_" d="M739.7,250.5c2.5-3.4,6-8.7,6-11.8c0-4.6-3.6-8.1-8.2-8.1s-8.2,3.6-8.2,8.1c0,3,3.6,8.4,6,11.8
													H739.7z"/>
											</defs>
											<clipPath id="SVGID_6_">
												<use xlink:href="#SVGID_5_"  overflow="visible"/>
											</clipPath>
											<g clip-path="url(#SVGID_6_)">
												<g>
													<g>
														<g>
															<defs>
																<rect id="SVGID_7_" x="730.4" y="230.5" width="2.5" height="21.3"/>
															</defs>
															<clipPath id="SVGID_8_">
																<use xlink:href="#SVGID_7_"  overflow="visible"/>
															</clipPath>
															<g clip-path="url(#SVGID_8_)">
																<rect x="713.8" y="249.2" fill="#FFD44A" width="19.3" height="2.7"/>
																<rect x="713.8" y="246.7" fill="#E21A53" width="19.3" height="2.7"/>
																<rect x="713.8" y="244" fill="#49CEBE" width="19.3" height="2.7"/>
																<rect x="713.8" y="241.5" fill="#779AD6" width="19.3" height="2.7"/>
																<rect x="713.8" y="238.8" fill="#FFD44A" width="19.3" height="2.7"/>
																<rect x="713.8" y="236.3" fill="#E21A53" width="19.3" height="2.7"/>
																<rect x="713.8" y="233.5" fill="#49CEBE" width="19.3" height="2.7"/>
																<rect x="713.8" y="230.9" fill="#779AD6" width="19.3" height="2.7"/>
															</g>
														</g>
														<g>
															<g>
																<g>
																	<defs>
																		<path id="SVGID_9_" d="M739.7,250.5c2.5-3.4,6-8.7,6-11.8c0-4.6-3.6-8.1-8.2-8.1s-8.2,3.6-8.2,8.1
																			c0,3,3.6,8.4,6,11.8H739.7z"/>
																	</defs>
																	<clipPath id="SVGID_10_">
																		<use xlink:href="#SVGID_9_"  overflow="visible"/>
																	</clipPath>
																	<g clip-path="url(#SVGID_10_)">
																		<g>
																			<g>
																				<g>
																					<defs>
																						<rect id="SVGID_11_" x="733" y="230.5" width="2.5" height="21.3"/>
																					</defs>
																					<clipPath id="SVGID_12_">
																						<use xlink:href="#SVGID_11_"  overflow="visible"/>
																					</clipPath>
																					<g clip-path="url(#SVGID_12_)">
																						<rect x="733" y="230.5" fill="#FFD44A" width="19.3" height="2.7"/>
																						<rect x="733" y="233" fill="#E21A53" width="19.3" height="2.7"/>
																						<rect x="733" y="235.8" fill="#49CEBE" width="19.3" height="2.7"/>
																						<rect x="733" y="238.4" fill="#779AD6" width="19.3" height="2.7"/>
																						<rect x="733" y="241" fill="#FFD44A" width="19.3" height="2.7"/>
																						<rect x="733" y="243.6" fill="#E21A53" width="19.3" height="2.7"/>
																						<rect x="733" y="246.2" fill="#49CEBE" width="19.3" height="2.7"/>
																						<rect x="733" y="248.9" fill="#779AD6" width="19.3" height="2.7"/>
																					</g>
																				</g>
																				<g>
																					<g>
																						<g>
																							<defs>
																								<path id="SVGID_13_" d="M739.7,250.5c2.5-3.4,6-8.7,6-11.8c0-4.6-3.6-8.1-8.2-8.1s-8.2,3.6-8.2,8.1
																									c0,3,3.6,8.4,6,11.8H739.7z"/>
																							</defs>
																							<clipPath id="SVGID_14_">
																								<use xlink:href="#SVGID_13_"  overflow="visible"/>
																							</clipPath>
																							<g clip-path="url(#SVGID_14_)">
																								<g>
																									<g>
																										<g>
																											<defs>
																												<rect id="SVGID_15_" x="735.5" y="230.5" width="2.5" height="21.3"/>
																											</defs>
																											<clipPath id="SVGID_16_">
																												<use xlink:href="#SVGID_15_"  overflow="visible"/>
																											</clipPath>
																											<g clip-path="url(#SVGID_16_)">
																												<rect x="719" y="249.2" fill="#FFD44A" width="19.3" height="2.7"/>
																												<rect x="719" y="246.7" fill="#E21A53" width="19.3" height="2.7"/>
																												<rect x="719" y="244" fill="#49CEBE" width="19.3" height="2.7"/>
																												<rect x="719" y="241.5" fill="#779AD6" width="19.3" height="2.7"/>
																												<rect x="719" y="238.8" fill="#FFD44A" width="19.3" height="2.7"/>
																												<rect x="719" y="236.3" fill="#E21A53" width="19.3" height="2.7"/>
																												<rect x="719" y="233.5" fill="#49CEBE" width="19.3" height="2.7"/>
																												<rect x="719" y="230.9" fill="#779AD6" width="19.3" height="2.7"/>
																											</g>
																										</g>
																									</g>
																								</g>
																							</g>
																						</g>
																					</g>
																				</g>
																			</g>
																		</g>
																	</g>
																</g>
															</g>
														</g>
													</g>
												</g>
											</g>
										</g>
									</g>
									<path fill="none" d="M739.7,250.5c2.5-3.4,6-8.7,6-11.8c0-4.6-3.6-8.1-8.2-8.1s-8.2,3.6-8.2,8.1c0,3,3.6,8.4,6,11.8H739.7z
										"/>
								</g>
							</g>
						</g>
					</g>
				</g>
			</g>
		</g>
	</g>
</g>
<path fill="none" d="M739.7,250.5c2.5-3.4,6-8.7,6-11.8c0-4.6-3.6-8.1-8.2-8.1s-8.2,3.6-8.2,8.1c0,3,3.6,8.4,6,11.8H739.7z"/>
<g>
	<path fill="#EF735C" d="M301.1,394.1h-1.2c-0.3,0-0.5,0-0.7-0.1c-0.2-0.1-0.3-0.3-0.3-0.5l-0.3-1.5c-0.4,0.4-0.8,0.7-1.2,1
		c-0.4,0.3-0.8,0.5-1.2,0.7c-0.4,0.2-0.9,0.4-1.4,0.5c-0.5,0.1-1,0.2-1.6,0.2c-0.6,0-1.2-0.1-1.7-0.3c-0.5-0.2-1-0.4-1.4-0.8
		c-0.4-0.3-0.7-0.8-0.9-1.3s-0.3-1.1-0.3-1.9c0-0.6,0.2-1.2,0.5-1.8c0.3-0.6,0.9-1.1,1.7-1.5c0.8-0.4,1.8-0.8,3-1.1
		c1.2-0.3,2.7-0.4,4.5-0.4v-1.2c0-1.2-0.3-2.2-0.8-2.8c-0.5-0.6-1.3-0.9-2.3-0.9c-0.7,0-1.2,0.1-1.7,0.3s-0.9,0.4-1.2,0.6
		c-0.3,0.2-0.6,0.4-0.9,0.6s-0.5,0.3-0.7,0.3c-0.2,0-0.3,0-0.5-0.1c-0.1-0.1-0.3-0.2-0.3-0.4l-0.5-0.9c0.9-0.8,1.8-1.5,2.8-1.9
		c1-0.4,2.1-0.6,3.3-0.6c0.9,0,1.7,0.1,2.3,0.4s1.3,0.7,1.7,1.2c0.5,0.5,0.8,1.1,1.1,1.9s0.4,1.5,0.4,2.4V394.1z M294,392.4
		c0.5,0,0.9,0,1.3-0.1c0.4-0.1,0.8-0.2,1.1-0.4c0.4-0.2,0.7-0.4,1-0.7c0.3-0.3,0.6-0.6,1-0.9v-3.2c-1.3,0-2.4,0.1-3.2,0.2
		s-1.6,0.4-2.2,0.6c-0.6,0.3-1,0.6-1.2,0.9c-0.3,0.4-0.4,0.7-0.4,1.2c0,0.4,0.1,0.8,0.2,1.1c0.1,0.3,0.3,0.5,0.5,0.7
		c0.2,0.2,0.5,0.3,0.8,0.4C293.3,392.4,293.6,392.4,294,392.4z"/>
	<path fill="#EF735C" d="M305.3,394.1v-15.7h1.6c0.4,0,0.6,0.2,0.7,0.6l0.2,1.7c0.7-0.8,1.4-1.4,2.3-1.8c0.8-0.5,1.8-0.7,2.9-0.7
		c0.9,0,1.6,0.1,2.3,0.4c0.7,0.3,1.2,0.7,1.6,1.2c0.4,0.5,0.8,1.1,1,1.9c0.2,0.7,0.3,1.5,0.3,2.4v10h-2.8v-10c0-1.2-0.3-2.1-0.8-2.8
		s-1.4-1-2.5-1c-0.8,0-1.6,0.2-2.3,0.6c-0.7,0.4-1.4,0.9-2,1.6v11.6H305.3z"/>
	<path fill="#EF735C" d="M333.6,394.1c-0.4,0-0.6-0.2-0.7-0.6l-0.2-1.9c-0.7,0.8-1.4,1.5-2.3,2c-0.9,0.5-1.9,0.7-3,0.7
		c-0.9,0-1.7-0.2-2.4-0.5c-0.7-0.3-1.4-0.9-1.9-1.5c-0.5-0.7-0.9-1.5-1.2-2.5c-0.3-1-0.4-2.2-0.4-3.5c0-1.2,0.2-2.2,0.5-3.2
		c0.3-1,0.8-1.9,1.3-2.6c0.6-0.7,1.3-1.3,2.1-1.7c0.8-0.4,1.8-0.6,2.9-0.6c1,0,1.8,0.2,2.5,0.5c0.7,0.3,1.3,0.8,1.8,1.4v-8.7h2.8
		v22.8H333.6z M328.2,392.1c0.9,0,1.7-0.2,2.4-0.6s1.3-1,1.9-1.8v-7.6c-0.5-0.7-1.1-1.2-1.7-1.4s-1.3-0.4-2-0.4
		c-1.5,0-2.6,0.5-3.4,1.6c-0.8,1-1.2,2.5-1.2,4.5c0,1,0.1,1.9,0.3,2.6s0.4,1.3,0.8,1.8c0.3,0.5,0.8,0.8,1.3,1
		C327,392,327.6,392.1,328.2,392.1z"/>
	<path fill="#EF735C" d="M339.9,394.1v-15.7h1.6c0.3,0,0.5,0.1,0.6,0.2s0.2,0.3,0.2,0.6l0.2,2.4c0.5-1.1,1.2-2,2-2.6
		c0.8-0.6,1.7-0.9,2.8-0.9c0.4,0,0.8,0,1.2,0.1c0.4,0.1,0.7,0.2,1,0.4l-0.4,2.1c-0.1,0.3-0.2,0.4-0.5,0.4c-0.1,0-0.4,0-0.7-0.1
		c-0.3-0.1-0.7-0.1-1.3-0.1c-1,0-1.8,0.3-2.4,0.8c-0.6,0.6-1.2,1.4-1.6,2.4v10H339.9z"/>
	<path fill="#EF735C" d="M358.6,378.2c0.9,0,1.8,0.2,2.6,0.5c0.8,0.3,1.5,0.8,2.1,1.4c0.6,0.6,1,1.3,1.4,2.2c0.3,0.9,0.5,1.9,0.5,3
		c0,0.4,0,0.7-0.1,0.9c-0.1,0.1-0.3,0.2-0.5,0.2H354c0,1,0.2,1.9,0.4,2.6c0.2,0.7,0.6,1.3,1,1.8c0.4,0.5,1,0.9,1.6,1.1
		c0.6,0.2,1.3,0.4,2,0.4c0.7,0,1.3-0.1,1.8-0.2c0.5-0.2,0.9-0.3,1.3-0.5c0.4-0.2,0.7-0.4,0.9-0.5c0.2-0.2,0.5-0.2,0.6-0.2
		c0.2,0,0.4,0.1,0.5,0.3l0.8,1c-0.3,0.4-0.7,0.8-1.2,1.1c-0.5,0.3-1,0.6-1.5,0.8s-1.1,0.3-1.7,0.4c-0.6,0.1-1.2,0.1-1.7,0.1
		c-1.1,0-2.1-0.2-3-0.5s-1.7-0.9-2.4-1.6c-0.7-0.7-1.2-1.6-1.6-2.6s-0.6-2.2-0.6-3.6c0-1.1,0.2-2.1,0.5-3.1c0.3-1,0.8-1.8,1.4-2.5
		c0.6-0.7,1.4-1.2,2.3-1.6C356.4,378.4,357.4,378.2,358.6,378.2z M358.6,380.2c-1.3,0-2.4,0.4-3.1,1.2c-0.8,0.8-1.2,1.8-1.4,3.2h8.5
		c0-0.6-0.1-1.2-0.3-1.8c-0.2-0.5-0.4-1-0.8-1.4c-0.3-0.4-0.8-0.7-1.2-0.9S359.3,380.2,358.6,380.2z"/>
	<path fill="#EF735C" d="M380.1,394.1h-1.2c-0.3,0-0.5,0-0.7-0.1c-0.2-0.1-0.3-0.3-0.3-0.5l-0.3-1.5c-0.4,0.4-0.8,0.7-1.2,1
		c-0.4,0.3-0.8,0.5-1.2,0.7c-0.4,0.2-0.9,0.4-1.4,0.5c-0.5,0.1-1,0.2-1.6,0.2c-0.6,0-1.2-0.1-1.7-0.3c-0.5-0.2-1-0.4-1.4-0.8
		c-0.4-0.3-0.7-0.8-0.9-1.3s-0.3-1.1-0.3-1.9c0-0.6,0.2-1.2,0.5-1.8c0.3-0.6,0.9-1.1,1.7-1.5c0.8-0.4,1.8-0.8,3-1.1
		c1.2-0.3,2.7-0.4,4.5-0.4v-1.2c0-1.2-0.3-2.2-0.8-2.8c-0.5-0.6-1.3-0.9-2.3-0.9c-0.7,0-1.2,0.1-1.7,0.3s-0.9,0.4-1.2,0.6
		c-0.3,0.2-0.6,0.4-0.9,0.6s-0.5,0.3-0.7,0.3c-0.2,0-0.3,0-0.5-0.1c-0.1-0.1-0.3-0.2-0.3-0.4l-0.5-0.9c0.9-0.8,1.8-1.5,2.8-1.9
		c1-0.4,2.1-0.6,3.3-0.6c0.9,0,1.7,0.1,2.3,0.4s1.3,0.7,1.7,1.2c0.5,0.5,0.8,1.1,1.1,1.9s0.4,1.5,0.4,2.4V394.1z M373,392.4
		c0.5,0,0.9,0,1.3-0.1c0.4-0.1,0.8-0.2,1.1-0.4c0.4-0.2,0.7-0.4,1-0.7c0.3-0.3,0.6-0.6,1-0.9v-3.2c-1.3,0-2.4,0.1-3.2,0.2
		s-1.6,0.4-2.2,0.6c-0.6,0.3-1,0.6-1.2,0.9c-0.3,0.4-0.4,0.7-0.4,1.2c0,0.4,0.1,0.8,0.2,1.1c0.1,0.3,0.3,0.5,0.5,0.7
		c0.2,0.2,0.5,0.3,0.8,0.4C372.3,392.4,372.6,392.4,373,392.4z"/>
	<path fill="#EF735C" d="M395,381.2c-0.1,0.1-0.2,0.2-0.2,0.3c-0.1,0.1-0.2,0.1-0.4,0.1c-0.2,0-0.3-0.1-0.5-0.2
		c-0.2-0.1-0.4-0.3-0.7-0.4c-0.3-0.2-0.6-0.3-1-0.4s-0.9-0.2-1.5-0.2c-0.8,0-1.4,0.1-2,0.4c-0.6,0.3-1.1,0.7-1.5,1.2
		c-0.4,0.5-0.7,1.1-0.9,1.9c-0.2,0.7-0.3,1.6-0.3,2.5c0,1,0.1,1.8,0.3,2.5c0.2,0.7,0.5,1.4,0.9,1.9c0.4,0.5,0.9,0.9,1.4,1.1
		c0.6,0.3,1.2,0.4,1.9,0.4c0.7,0,1.2-0.1,1.7-0.2s0.8-0.3,1.1-0.5c0.3-0.2,0.5-0.4,0.7-0.5s0.4-0.2,0.6-0.2c0.2,0,0.4,0.1,0.5,0.3
		l0.8,1c-0.7,0.8-1.5,1.4-2.6,1.8s-2.1,0.6-3.2,0.6c-1,0-1.9-0.2-2.7-0.5c-0.8-0.4-1.6-0.9-2.2-1.6s-1.1-1.5-1.5-2.5
		s-0.5-2.1-0.5-3.4c0-1.2,0.2-2.2,0.5-3.2c0.3-1,0.8-1.8,1.4-2.6c0.6-0.7,1.4-1.3,2.3-1.7c0.9-0.4,2-0.6,3.2-0.6
		c1.1,0,2.1,0.2,2.9,0.5c0.8,0.4,1.6,0.9,2.2,1.5L395,381.2z"/>
	<path fill="#EF735C" d="M405.2,378.2c1.1,0,2.2,0.2,3.1,0.6s1.7,0.9,2.4,1.6c0.6,0.7,1.1,1.6,1.5,2.5s0.5,2.1,0.5,3.3
		c0,1.2-0.2,2.4-0.5,3.3c-0.3,1-0.8,1.8-1.5,2.5c-0.6,0.7-1.4,1.2-2.4,1.6s-2,0.6-3.1,0.6s-2.2-0.2-3.1-0.6s-1.7-0.9-2.4-1.6
		c-0.7-0.7-1.2-1.6-1.5-2.5c-0.4-1-0.5-2.1-0.5-3.3c0-1.2,0.2-2.3,0.5-3.3c0.4-1,0.9-1.8,1.5-2.5s1.4-1.2,2.4-1.6
		S404,378.2,405.2,378.2z M405.2,392.2c1.5,0,2.7-0.5,3.5-1.6c0.8-1,1.1-2.5,1.1-4.3c0-1.9-0.4-3.3-1.1-4.4c-0.8-1-1.9-1.6-3.5-1.6
		c-0.8,0-1.5,0.1-2,0.4s-1.1,0.7-1.4,1.2c-0.4,0.5-0.7,1.1-0.9,1.9c-0.2,0.7-0.3,1.6-0.3,2.5s0.1,1.8,0.3,2.5
		c0.2,0.7,0.5,1.4,0.9,1.9c0.4,0.5,0.9,0.9,1.4,1.2S404.4,392.2,405.2,392.2z"/>
	<path fill="#EF735C" d="M416,394.1v-15.7h1.6c0.3,0,0.5,0.1,0.6,0.2s0.2,0.3,0.2,0.6l0.2,2.4c0.5-1.1,1.2-2,2-2.6
		c0.8-0.6,1.7-0.9,2.8-0.9c0.4,0,0.8,0,1.2,0.1c0.4,0.1,0.7,0.2,1,0.4l-0.4,2.1c-0.1,0.3-0.2,0.4-0.5,0.4c-0.1,0-0.4,0-0.7-0.1
		c-0.3-0.1-0.7-0.1-1.3-0.1c-1,0-1.8,0.3-2.4,0.8c-0.6,0.6-1.2,1.4-1.6,2.4v10H416z"/>
	<path fill="#EF735C" d="M428.5,394.1v-15.7h1.6c0.4,0,0.6,0.2,0.7,0.6l0.2,1.7c0.7-0.8,1.4-1.4,2.3-1.8c0.8-0.5,1.8-0.7,2.9-0.7
		c0.9,0,1.6,0.1,2.3,0.4c0.7,0.3,1.2,0.7,1.6,1.2c0.4,0.5,0.8,1.1,1,1.9c0.2,0.7,0.3,1.5,0.3,2.4v10h-2.8v-10c0-1.2-0.3-2.1-0.8-2.8
		s-1.4-1-2.5-1c-0.8,0-1.6,0.2-2.3,0.6c-0.7,0.4-1.4,0.9-2,1.6v11.6H428.5z"/>
	<path fill="#EF735C" d="M457.3,394.1h-1.2c-0.3,0-0.5,0-0.7-0.1c-0.2-0.1-0.3-0.3-0.3-0.5l-0.3-1.5c-0.4,0.4-0.8,0.7-1.2,1
		c-0.4,0.3-0.8,0.5-1.2,0.7c-0.4,0.2-0.9,0.4-1.4,0.5c-0.5,0.1-1,0.2-1.6,0.2c-0.6,0-1.2-0.1-1.7-0.3c-0.5-0.2-1-0.4-1.4-0.8
		c-0.4-0.3-0.7-0.8-0.9-1.3s-0.3-1.1-0.3-1.9c0-0.6,0.2-1.2,0.5-1.8c0.3-0.6,0.9-1.1,1.7-1.5c0.8-0.4,1.8-0.8,3-1.1
		c1.2-0.3,2.7-0.4,4.5-0.4v-1.2c0-1.2-0.3-2.2-0.8-2.8c-0.5-0.6-1.3-0.9-2.3-0.9c-0.7,0-1.2,0.1-1.7,0.3s-0.9,0.4-1.2,0.6
		c-0.3,0.2-0.6,0.4-0.9,0.6s-0.5,0.3-0.7,0.3c-0.2,0-0.3,0-0.5-0.1c-0.1-0.1-0.3-0.2-0.3-0.4l-0.5-0.9c0.9-0.8,1.8-1.5,2.8-1.9
		c1-0.4,2.1-0.6,3.3-0.6c0.9,0,1.7,0.1,2.3,0.4s1.3,0.7,1.7,1.2c0.5,0.5,0.8,1.1,1.1,1.9s0.4,1.5,0.4,2.4V394.1z M450.1,392.4
		c0.5,0,0.9,0,1.3-0.1c0.4-0.1,0.8-0.2,1.1-0.4c0.4-0.2,0.7-0.4,1-0.7c0.3-0.3,0.6-0.6,1-0.9v-3.2c-1.3,0-2.4,0.1-3.2,0.2
		s-1.6,0.4-2.2,0.6c-0.6,0.3-1,0.6-1.2,0.9c-0.3,0.4-0.4,0.7-0.4,1.2c0,0.4,0.1,0.8,0.2,1.1c0.1,0.3,0.3,0.5,0.5,0.7
		c0.2,0.2,0.5,0.3,0.8,0.4C449.4,392.4,449.8,392.4,450.1,392.4z"/>
	<path fill="#EF735C" d="M466.8,378.1c0.7,0,1.3,0.1,1.9,0.2c0.6,0.1,1.1,0.4,1.6,0.7h4.3v1c0,0.3-0.2,0.6-0.7,0.7l-1.8,0.2
		c0.4,0.7,0.5,1.4,0.5,2.2c0,0.8-0.1,1.5-0.4,2.1s-0.7,1.2-1.2,1.6c-0.5,0.4-1.1,0.8-1.9,1c-0.7,0.2-1.5,0.4-2.4,0.4
		c-0.7,0-1.4-0.1-2.1-0.3c-0.3,0.2-0.6,0.4-0.8,0.7c-0.2,0.2-0.3,0.5-0.3,0.7c0,0.4,0.1,0.7,0.4,0.9c0.3,0.2,0.7,0.3,1.2,0.4
		c0.5,0.1,1.1,0.1,1.7,0.1s1.3,0,1.9,0s1.3,0.1,1.9,0.2s1.2,0.3,1.7,0.6c0.5,0.3,0.9,0.6,1.2,1.1c0.3,0.5,0.4,1.1,0.4,1.8
		c0,0.7-0.2,1.3-0.5,2c-0.3,0.6-0.8,1.2-1.4,1.7c-0.6,0.5-1.4,0.9-2.3,1.2c-0.9,0.3-1.9,0.4-3.1,0.4s-2.2-0.1-3-0.3
		c-0.9-0.2-1.6-0.5-2.1-0.9c-0.6-0.4-1-0.8-1.3-1.3s-0.4-1-0.4-1.6c0-0.8,0.2-1.4,0.7-2c0.5-0.5,1.2-1,2-1.3
		c-0.4-0.2-0.8-0.5-1.1-0.8c-0.3-0.3-0.4-0.8-0.4-1.4c0-0.2,0-0.5,0.1-0.7c0.1-0.2,0.2-0.5,0.4-0.7c0.2-0.2,0.4-0.5,0.6-0.7
		s0.5-0.4,0.9-0.6c-0.8-0.4-1.4-1-1.8-1.7c-0.4-0.7-0.7-1.6-0.7-2.5c0-0.8,0.1-1.5,0.4-2.1c0.3-0.6,0.7-1.2,1.2-1.6
		c0.5-0.4,1.2-0.8,1.9-1S465.9,378.1,466.8,378.1z M471.7,394.9c0-0.4-0.1-0.7-0.3-1c-0.2-0.2-0.5-0.4-0.9-0.6
		c-0.4-0.1-0.8-0.2-1.3-0.3c-0.5-0.1-1-0.1-1.5-0.1c-0.5,0-1.1,0-1.6,0s-1.1-0.1-1.6-0.2c-0.6,0.3-1.1,0.6-1.4,1s-0.6,0.9-0.6,1.4
		c0,0.4,0.1,0.7,0.3,1c0.2,0.3,0.5,0.6,0.8,0.8s0.8,0.4,1.4,0.5c0.6,0.1,1.2,0.2,2,0.2c0.7,0,1.4-0.1,2-0.2c0.6-0.1,1.1-0.3,1.5-0.6
		s0.7-0.6,0.9-0.9C471.6,395.7,471.7,395.3,471.7,394.9z M466.8,386.4c0.6,0,1.1-0.1,1.5-0.2c0.4-0.2,0.8-0.4,1.1-0.7
		c0.3-0.3,0.5-0.6,0.7-1s0.2-0.8,0.2-1.3c0-1-0.3-1.7-0.9-2.3s-1.4-0.9-2.5-0.9c-1.1,0-2,0.3-2.5,0.9s-0.9,1.3-0.9,2.3
		c0,0.5,0.1,0.9,0.2,1.3c0.1,0.4,0.4,0.7,0.7,1c0.3,0.3,0.6,0.5,1.1,0.7C465.7,386.4,466.2,386.4,466.8,386.4z"/>
	<path fill="#EF735C" d="M480.4,371.3v22.8h-2.8v-22.8H480.4z"/>
	<path fill="#EF735C" d="M488.9,373.5c0,0.3-0.1,0.5-0.2,0.8c-0.1,0.2-0.3,0.4-0.4,0.6c-0.2,0.2-0.4,0.3-0.6,0.4
		c-0.2,0.1-0.5,0.2-0.8,0.2c-0.3,0-0.5-0.1-0.8-0.2c-0.2-0.1-0.4-0.2-0.6-0.4c-0.2-0.2-0.3-0.4-0.4-0.6c-0.1-0.2-0.2-0.5-0.2-0.8
		s0.1-0.5,0.2-0.8c0.1-0.2,0.2-0.5,0.4-0.6s0.4-0.3,0.6-0.4c0.2-0.1,0.5-0.2,0.8-0.2c0.3,0,0.5,0.1,0.8,0.2c0.2,0.1,0.4,0.2,0.6,0.4
		c0.2,0.2,0.3,0.4,0.4,0.6C488.9,373,488.9,373.2,488.9,373.5z M488.3,378.4v15.7h-2.8v-15.7H488.3z"/>
	<path fill="#EF735C" d="M504.7,394.1h-1.2c-0.3,0-0.5,0-0.7-0.1c-0.2-0.1-0.3-0.3-0.3-0.5l-0.3-1.5c-0.4,0.4-0.8,0.7-1.2,1
		c-0.4,0.3-0.8,0.5-1.2,0.7c-0.4,0.2-0.9,0.4-1.4,0.5c-0.5,0.1-1,0.2-1.6,0.2c-0.6,0-1.2-0.1-1.7-0.3c-0.5-0.2-1-0.4-1.4-0.8
		c-0.4-0.3-0.7-0.8-0.9-1.3s-0.3-1.1-0.3-1.9c0-0.6,0.2-1.2,0.5-1.8c0.3-0.6,0.9-1.1,1.7-1.5c0.8-0.4,1.8-0.8,3-1.1
		c1.2-0.3,2.7-0.4,4.5-0.4v-1.2c0-1.2-0.3-2.2-0.8-2.8c-0.5-0.6-1.3-0.9-2.3-0.9c-0.7,0-1.2,0.1-1.7,0.3s-0.9,0.4-1.2,0.6
		c-0.3,0.2-0.6,0.4-0.9,0.6s-0.5,0.3-0.7,0.3c-0.2,0-0.3,0-0.5-0.1c-0.1-0.1-0.3-0.2-0.3-0.4l-0.5-0.9c0.9-0.8,1.8-1.5,2.8-1.9
		c1-0.4,2.1-0.6,3.3-0.6c0.9,0,1.7,0.1,2.3,0.4s1.3,0.7,1.7,1.2c0.5,0.5,0.8,1.1,1.1,1.9s0.4,1.5,0.4,2.4V394.1z M497.6,392.4
		c0.5,0,0.9,0,1.3-0.1c0.4-0.1,0.8-0.2,1.1-0.4c0.4-0.2,0.7-0.4,1-0.7c0.3-0.3,0.6-0.6,1-0.9v-3.2c-1.3,0-2.4,0.1-3.2,0.2
		s-1.6,0.4-2.2,0.6c-0.6,0.3-1,0.6-1.2,0.9c-0.3,0.4-0.4,0.7-0.4,1.2c0,0.4,0.1,0.8,0.2,1.1c0.1,0.3,0.3,0.5,0.5,0.7
		c0.2,0.2,0.5,0.3,0.8,0.4C496.9,392.4,497.2,392.4,497.6,392.4z"/>
	<path fill="#EF735C" d="M524.7,391.2c-0.8,0-1.5-0.2-2-0.6s-0.8-1-1-1.8c-0.6,0.8-1.2,1.4-2,1.8s-1.5,0.5-2.3,0.5
		c-0.6,0-1.2-0.1-1.6-0.3s-0.8-0.5-1.1-0.9c-0.3-0.4-0.5-0.8-0.7-1.3c-0.1-0.5-0.2-1.1-0.2-1.7c0-0.9,0.2-1.8,0.5-2.7
		c0.3-0.9,0.8-1.7,1.5-2.4c0.7-0.7,1.5-1.3,2.5-1.8c1-0.5,2.1-0.7,3.4-0.7c0.7,0,1.3,0.1,1.8,0.2c0.5,0.1,1,0.3,1.5,0.5l-1.4,5.6
		c-0.2,0.8-0.3,1.4-0.3,1.9c0,0.4,0,0.7,0.1,0.9c0.1,0.2,0.2,0.4,0.4,0.6c0.2,0.1,0.3,0.2,0.6,0.3s0.4,0.1,0.7,0.1
		c0.5,0,1-0.1,1.4-0.4c0.5-0.3,0.9-0.7,1.2-1.2c0.3-0.5,0.6-1.2,0.8-1.9s0.3-1.6,0.3-2.5c0-1.4-0.2-2.7-0.7-3.8s-1.1-2-1.9-2.7
		c-0.8-0.7-1.7-1.3-2.8-1.6s-2.3-0.5-3.5-0.5c-1.4,0-2.7,0.3-3.9,0.8c-1.2,0.5-2.3,1.3-3.2,2.2c-0.9,0.9-1.6,2-2.1,3.3
		c-0.5,1.3-0.8,2.7-0.8,4.2c0,1.8,0.3,3.3,0.8,4.6c0.6,1.3,1.3,2.4,2.3,3.3c1,0.9,2.1,1.6,3.4,2c1.3,0.5,2.7,0.7,4.1,0.7
		c1.6,0,3-0.2,4.2-0.5c1.2-0.3,2.2-0.8,3.1-1.3c0.2-0.1,0.3-0.1,0.4-0.1c0.2,0,0.4,0.1,0.5,0.4l0.4,1c-1.1,0.7-2.4,1.3-3.8,1.8
		c-1.4,0.4-3,0.6-4.8,0.6c-1.8,0-3.5-0.3-5-0.9s-2.9-1.4-4-2.5c-1.1-1.1-2-2.4-2.7-3.9c-0.6-1.5-1-3.3-1-5.3c0-1.1,0.1-2.2,0.4-3.3
		c0.3-1,0.7-2,1.2-2.9c0.5-0.9,1.1-1.7,1.9-2.5c0.7-0.7,1.5-1.4,2.4-1.9s1.8-0.9,2.9-1.2c1-0.3,2.1-0.4,3.2-0.4c1,0,1.9,0.1,2.8,0.3
		s1.8,0.5,2.6,0.9c0.8,0.4,1.6,0.9,2.2,1.5c0.7,0.6,1.3,1.3,1.8,2c0.5,0.8,0.9,1.6,1.1,2.6c0.3,0.9,0.4,2,0.4,3.1
		c0,1.1-0.2,2.1-0.5,3.1c-0.3,0.9-0.7,1.8-1.3,2.5c-0.6,0.7-1.2,1.2-2,1.6S525.6,391.2,524.7,391.2z M518.1,389.4
		c0.3,0,0.6-0.1,1-0.2c0.3-0.1,0.6-0.3,0.9-0.5c0.3-0.3,0.6-0.6,0.8-1.1c0.3-0.4,0.5-1,0.6-1.7l1.2-4.6c-0.4-0.1-0.8-0.1-1.3-0.1
		c-0.8,0-1.5,0.2-2.1,0.5c-0.6,0.3-1.2,0.8-1.7,1.3c-0.5,0.5-0.8,1.1-1.1,1.8s-0.4,1.4-0.4,2.1c0,0.7,0.2,1.3,0.5,1.8
		S517.5,389.4,518.1,389.4z"/>
	<path fill="#EF735C" d="M539.7,378.1c0.7,0,1.3,0.1,1.9,0.2c0.6,0.1,1.1,0.4,1.6,0.7h4.3v1c0,0.3-0.2,0.6-0.7,0.7l-1.8,0.2
		c0.4,0.7,0.5,1.4,0.5,2.2c0,0.8-0.1,1.5-0.4,2.1c-0.3,0.6-0.7,1.2-1.2,1.6c-0.5,0.4-1.1,0.8-1.9,1c-0.7,0.2-1.5,0.4-2.4,0.4
		c-0.7,0-1.4-0.1-2.1-0.3c-0.3,0.2-0.6,0.4-0.8,0.7c-0.2,0.2-0.3,0.5-0.3,0.7c0,0.4,0.1,0.7,0.4,0.9s0.7,0.3,1.2,0.4
		c0.5,0.1,1.1,0.1,1.7,0.1c0.6,0,1.3,0,1.9,0s1.3,0.1,1.9,0.2c0.6,0.1,1.2,0.3,1.7,0.6c0.5,0.3,0.9,0.6,1.2,1.1
		c0.3,0.5,0.4,1.1,0.4,1.8c0,0.7-0.2,1.3-0.5,2s-0.8,1.2-1.4,1.7c-0.6,0.5-1.4,0.9-2.3,1.2c-0.9,0.3-1.9,0.4-3.1,0.4
		c-1.1,0-2.2-0.1-3-0.3c-0.9-0.2-1.6-0.5-2.1-0.9c-0.6-0.4-1-0.8-1.3-1.3s-0.4-1-0.4-1.6c0-0.8,0.2-1.4,0.7-2c0.5-0.5,1.2-1,2-1.3
		c-0.4-0.2-0.8-0.5-1.1-0.8c-0.3-0.3-0.4-0.8-0.4-1.4c0-0.2,0-0.5,0.1-0.7c0.1-0.2,0.2-0.5,0.4-0.7c0.2-0.2,0.4-0.5,0.6-0.7
		s0.5-0.4,0.9-0.6c-0.8-0.4-1.4-1-1.8-1.7c-0.4-0.7-0.7-1.6-0.7-2.5c0-0.8,0.1-1.5,0.4-2.1c0.3-0.6,0.7-1.2,1.2-1.6
		c0.5-0.4,1.2-0.8,1.9-1S538.8,378.1,539.7,378.1z M544.6,394.9c0-0.4-0.1-0.7-0.3-1c-0.2-0.2-0.5-0.4-0.9-0.6s-0.8-0.2-1.3-0.3
		c-0.5-0.1-1-0.1-1.5-0.1s-1.1,0-1.6,0c-0.6,0-1.1-0.1-1.6-0.2c-0.6,0.3-1.1,0.6-1.4,1c-0.4,0.4-0.6,0.9-0.6,1.4
		c0,0.4,0.1,0.7,0.3,1s0.5,0.6,0.8,0.8s0.8,0.4,1.4,0.5c0.6,0.1,1.2,0.2,2,0.2c0.7,0,1.4-0.1,2-0.2c0.6-0.1,1.1-0.3,1.5-0.6
		s0.7-0.6,0.9-0.9C544.5,395.7,544.6,395.3,544.6,394.9z M539.7,386.4c0.6,0,1.1-0.1,1.5-0.2c0.4-0.2,0.8-0.4,1.1-0.7s0.5-0.6,0.7-1
		s0.2-0.8,0.2-1.3c0-1-0.3-1.7-0.9-2.3s-1.4-0.9-2.5-0.9c-1.1,0-2,0.3-2.5,0.9s-0.9,1.3-0.9,2.3c0,0.5,0.1,0.9,0.2,1.3
		c0.1,0.4,0.4,0.7,0.7,1s0.6,0.5,1.1,0.7C538.6,386.4,539.1,386.4,539.7,386.4z"/>
	<path fill="#EF735C" d="M550.2,394.1v-15.7h1.6c0.4,0,0.6,0.2,0.7,0.6l0.2,1.6c0.6-0.7,1.2-1.3,1.9-1.8c0.7-0.5,1.6-0.7,2.5-0.7
		c1.1,0,1.9,0.3,2.6,0.9s1.1,1.4,1.4,2.4c0.2-0.6,0.5-1.1,0.9-1.5s0.8-0.8,1.2-1s0.9-0.5,1.4-0.6c0.5-0.1,1-0.2,1.5-0.2
		c0.8,0,1.6,0.1,2.2,0.4c0.6,0.3,1.2,0.6,1.6,1.2c0.5,0.5,0.8,1.1,1,1.9c0.2,0.7,0.4,1.6,0.4,2.5v10h-2.8v-10c0-1.2-0.3-2.2-0.8-2.8
		c-0.5-0.6-1.3-1-2.3-1c-0.5,0-0.9,0.1-1.3,0.2s-0.8,0.4-1.1,0.7c-0.3,0.3-0.6,0.7-0.7,1.2s-0.3,1-0.3,1.6v10h-2.8v-10
		c0-1.3-0.3-2.2-0.8-2.8c-0.5-0.6-1.2-0.9-2.2-0.9c-0.7,0-1.3,0.2-1.9,0.6c-0.6,0.4-1.1,0.9-1.6,1.5v11.7H550.2z"/>
	<path fill="#EF735C" d="M587.2,394.1H586c-0.3,0-0.5,0-0.7-0.1c-0.2-0.1-0.3-0.3-0.3-0.5l-0.3-1.5c-0.4,0.4-0.8,0.7-1.2,1
		c-0.4,0.3-0.8,0.5-1.2,0.7c-0.4,0.2-0.9,0.4-1.4,0.5c-0.5,0.1-1,0.2-1.6,0.2c-0.6,0-1.2-0.1-1.7-0.3c-0.5-0.2-1-0.4-1.4-0.8
		c-0.4-0.3-0.7-0.8-0.9-1.3s-0.3-1.1-0.3-1.9c0-0.6,0.2-1.2,0.5-1.8c0.3-0.6,0.9-1.1,1.7-1.5c0.8-0.4,1.8-0.8,3-1.1s2.7-0.4,4.5-0.4
		v-1.2c0-1.2-0.3-2.2-0.8-2.8s-1.3-0.9-2.3-0.9c-0.7,0-1.2,0.1-1.7,0.3s-0.9,0.4-1.2,0.6c-0.3,0.2-0.6,0.4-0.9,0.6
		c-0.2,0.2-0.5,0.3-0.7,0.3c-0.2,0-0.3,0-0.5-0.1c-0.1-0.1-0.2-0.2-0.3-0.4l-0.5-0.9c0.9-0.8,1.8-1.5,2.8-1.9s2.1-0.6,3.3-0.6
		c0.9,0,1.7,0.1,2.3,0.4s1.3,0.7,1.7,1.2s0.8,1.1,1.1,1.9c0.2,0.7,0.4,1.5,0.4,2.4V394.1z M580.1,392.4c0.5,0,0.9,0,1.3-0.1
		c0.4-0.1,0.8-0.2,1.1-0.4s0.7-0.4,1-0.7c0.3-0.3,0.6-0.6,1-0.9v-3.2c-1.3,0-2.4,0.1-3.2,0.2s-1.6,0.4-2.2,0.6
		c-0.6,0.3-1,0.6-1.2,0.9c-0.3,0.4-0.4,0.7-0.4,1.2c0,0.4,0.1,0.8,0.2,1.1c0.1,0.3,0.3,0.5,0.5,0.7c0.2,0.2,0.5,0.3,0.8,0.4
		C579.4,392.4,579.7,392.4,580.1,392.4z"/>
	<path fill="#EF735C" d="M595.1,373.5c0,0.3-0.1,0.5-0.2,0.8s-0.3,0.4-0.4,0.6c-0.2,0.2-0.4,0.3-0.6,0.4c-0.2,0.1-0.5,0.2-0.8,0.2
		s-0.5-0.1-0.8-0.2c-0.2-0.1-0.4-0.2-0.6-0.4c-0.2-0.2-0.3-0.4-0.4-0.6s-0.2-0.5-0.2-0.8s0.1-0.5,0.2-0.8c0.1-0.2,0.2-0.5,0.4-0.6
		c0.2-0.2,0.4-0.3,0.6-0.4c0.2-0.1,0.5-0.2,0.8-0.2s0.5,0.1,0.8,0.2c0.2,0.1,0.4,0.2,0.6,0.4s0.3,0.4,0.4,0.6
		C595,373,595.1,373.2,595.1,373.5z M594.5,378.4v15.7h-2.8v-15.7H594.5z"/>
	<path fill="#EF735C" d="M602.4,371.3v22.8h-2.8v-22.8H602.4z"/>
	<path fill="#EF735C" d="M606.4,392.4c0-0.3,0-0.5,0.1-0.8c0.1-0.2,0.2-0.4,0.4-0.6c0.2-0.2,0.4-0.3,0.6-0.4
		c0.2-0.1,0.5-0.2,0.8-0.2s0.5,0.1,0.8,0.2c0.2,0.1,0.4,0.2,0.6,0.4s0.3,0.4,0.4,0.6c0.1,0.2,0.1,0.5,0.1,0.8c0,0.3,0,0.5-0.1,0.8
		s-0.2,0.4-0.4,0.6s-0.4,0.3-0.6,0.4c-0.2,0.1-0.5,0.1-0.8,0.1s-0.5,0-0.8-0.1c-0.2-0.1-0.4-0.2-0.6-0.4c-0.2-0.2-0.3-0.4-0.4-0.6
		C606.4,392.9,606.4,392.7,606.4,392.4z"/>
	<path fill="#EF735C" d="M624.6,381.2c-0.1,0.1-0.2,0.2-0.2,0.3c-0.1,0.1-0.2,0.1-0.4,0.1s-0.3-0.1-0.5-0.2
		c-0.2-0.1-0.4-0.3-0.7-0.4c-0.3-0.2-0.6-0.3-1-0.4s-0.9-0.2-1.5-0.2c-0.8,0-1.4,0.1-2,0.4c-0.6,0.3-1.1,0.7-1.5,1.2
		c-0.4,0.5-0.7,1.1-0.9,1.9c-0.2,0.7-0.3,1.6-0.3,2.5c0,1,0.1,1.8,0.3,2.5c0.2,0.7,0.5,1.4,0.9,1.9s0.9,0.9,1.4,1.1
		c0.6,0.3,1.2,0.4,1.9,0.4c0.7,0,1.2-0.1,1.7-0.2c0.4-0.2,0.8-0.3,1.1-0.5c0.3-0.2,0.5-0.4,0.7-0.5c0.2-0.2,0.4-0.2,0.6-0.2
		c0.2,0,0.4,0.1,0.5,0.3l0.8,1c-0.7,0.8-1.5,1.4-2.6,1.8c-1,0.4-2.1,0.6-3.2,0.6c-1,0-1.9-0.2-2.7-0.5c-0.8-0.4-1.6-0.9-2.2-1.6
		s-1.1-1.5-1.5-2.5s-0.5-2.1-0.5-3.4c0-1.2,0.2-2.2,0.5-3.2c0.3-1,0.8-1.8,1.4-2.6c0.6-0.7,1.4-1.3,2.3-1.7c0.9-0.4,2-0.6,3.2-0.6
		c1.1,0,2.1,0.2,2.9,0.5c0.8,0.4,1.6,0.9,2.2,1.5L624.6,381.2z"/>
	<path fill="#EF735C" d="M634.7,378.2c1.1,0,2.2,0.2,3.1,0.6s1.7,0.9,2.4,1.6c0.6,0.7,1.1,1.6,1.5,2.5c0.3,1,0.5,2.1,0.5,3.3
		c0,1.2-0.2,2.4-0.5,3.3c-0.3,1-0.8,1.8-1.5,2.5c-0.6,0.7-1.4,1.2-2.4,1.6s-2,0.6-3.1,0.6c-1.1,0-2.2-0.2-3.1-0.6s-1.7-0.9-2.4-1.6
		c-0.7-0.7-1.2-1.6-1.5-2.5c-0.4-1-0.5-2.1-0.5-3.3c0-1.2,0.2-2.3,0.5-3.3c0.4-1,0.9-1.8,1.5-2.5s1.4-1.2,2.4-1.6
		S633.5,378.2,634.7,378.2z M634.7,392.2c1.5,0,2.7-0.5,3.5-1.6c0.8-1,1.1-2.5,1.1-4.3c0-1.9-0.4-3.3-1.1-4.4
		c-0.8-1-1.9-1.6-3.5-1.6c-0.8,0-1.5,0.1-2,0.4c-0.6,0.3-1.1,0.7-1.4,1.2c-0.4,0.5-0.7,1.1-0.9,1.9s-0.3,1.6-0.3,2.5
		s0.1,1.8,0.3,2.5c0.2,0.7,0.5,1.4,0.9,1.9c0.4,0.5,0.9,0.9,1.4,1.2C633.2,392,633.9,392.2,634.7,392.2z"/>
	<path fill="#EF735C" d="M645.6,394.1v-15.7h1.6c0.4,0,0.6,0.2,0.7,0.6l0.2,1.6c0.6-0.7,1.2-1.3,1.9-1.8c0.7-0.5,1.6-0.7,2.5-0.7
		c1.1,0,1.9,0.3,2.6,0.9s1.1,1.4,1.4,2.4c0.2-0.6,0.5-1.1,0.9-1.5s0.8-0.8,1.2-1s0.9-0.5,1.4-0.6c0.5-0.1,1-0.2,1.5-0.2
		c0.8,0,1.6,0.1,2.2,0.4c0.6,0.3,1.2,0.6,1.6,1.2s0.8,1.1,1,1.9c0.2,0.7,0.4,1.6,0.4,2.5v10h-2.8v-10c0-1.2-0.3-2.2-0.8-2.8
		c-0.5-0.6-1.3-1-2.3-1c-0.5,0-0.9,0.1-1.3,0.2s-0.8,0.4-1.1,0.7c-0.3,0.3-0.6,0.7-0.7,1.2s-0.3,1-0.3,1.6v10h-2.8v-10
		c0-1.3-0.3-2.2-0.8-2.8c-0.5-0.6-1.2-0.9-2.2-0.9c-0.7,0-1.3,0.2-1.9,0.6s-1.1,0.9-1.6,1.5v11.7H645.6z"/>
</g>
<image overflow="visible" width="800" height="122" xlink:href="../../../../Screen Shot 2014-12-19 at 4.05.49 PM.png"  transform="matrix(0.5 0 0 0.5 68 559)">
</image>
</svg>
