<?xml version="1.0" encoding="utf-8"?>
<!-- Generator: Adobe Illustrator 18.1.1, SVG Export Plug-In . SVG Version: 6.00 Build 0)  -->
<!DOCTYPE svg PUBLIC "-//W3C//DTD SVG 1.1//EN" "http://www.w3.org/Graphics/SVG/1.1/DTD/svg11.dtd">
<svg version="1.1" id="Layer_1" xmlns="http://www.w3.org/2000/svg" xmlns:xlink="http://www.w3.org/1999/xlink" x="0px" y="0px"
	 viewBox="0 0 625 616" enable-background="new 0 0 625 616" xml:space="preserve">
<circle fill="#FF7B91" cx="55.3" cy="263.8" r="21.5"/>
<circle fill="#B1ECF7" cx="105.3" cy="493.7" r="21.5"/>
<circle fill="#1B5A73" cx="344.7" cy="271.5" r="21.5"/>
<circle fill="#F9D540" cx="348.4" cy="185" r="21.5"/>
<circle fill="#FF7B91" cx="55.3" cy="493.7" r="21.5"/>
<circle fill="#B1ECF7" cx="164.5" cy="299.2" r="21.5"/>
<circle fill="#1B5A73" cx="168.9" cy="395.2" r="21.5"/>
<circle fill="#F9D540" cx="130.5" cy="524.1" r="21.5"/>
<circle fill="#FF7B91" cx="408.3" cy="216.8" r="21.5"/>
<circle fill="#B1ECF7" cx="97.5" cy="432" r="21.5"/>
<circle fill="#1B5A73" cx="551.5" cy="481.9" r="21.5"/>
<circle fill="#F9D540" cx="536.7" cy="404.6" r="21.5"/>
<circle fill="#FF7B91" cx="361.8" cy="138.4" r="21.5"/>
<circle fill="#B1ECF7" cx="66.6" cy="404.6" r="21.5"/>
<circle fill="#1B5A73" cx="105.3" cy="228.2" r="21.5"/>
<circle fill="#F9D540" cx="326.6" cy="220.7" r="21.5"/>
<circle fill="#FF7B91" cx="152" cy="435.6" r="21.5"/>
<circle fill="#B1ECF7" cx="568.2" cy="226.1" r="21.5"/>
<circle fill="#1B5A73" cx="300.7" cy="493.7" r="21.5"/>
<circle fill="#F9D540" cx="285.9" cy="416.5" r="21.5"/>
<circle fill="#FF7B91" cx="143.1" cy="434.8" r="21.5"/>
<circle fill="#B1ECF7" cx="390" cy="297.8" r="21.5"/>
<circle fill="#1B5A73" cx="444.6" cy="246.5" r="21.5"/>
<circle fill="#F9D540" cx="277.1" cy="415.7" r="21.5"/>
<circle fill="#F9D540" cx="351.3" cy="378.5" r="21.5"/>
<circle fill="#FF7B91" cx="368.4" cy="438" r="21.5"/>
<circle fill="#B1ECF7" cx="276.3" cy="80.5" r="21.5"/>
<circle fill="#1B5A73" cx="100.1" cy="314.4" r="21.5"/>
<circle fill="#F9D540" cx="429.7" cy="416.5" r="21.5"/>
<circle fill="#FF7B91" cx="254.8" cy="150.2" r="21.5"/>
<circle fill="#B1ECF7" cx="66.6" cy="350.1" r="21.5"/>
<circle fill="#1B5A73" cx="330.9" cy="206" r="21.5"/>
<circle fill="#F9D540" cx="316.1" cy="128.7" r="21.5"/>
<circle fill="#F9D540" cx="368.5" cy="278.7" r="21.5"/>
<circle fill="#FF7B91" cx="390" cy="321.8" r="21.5"/>
<circle fill="#B1ECF7" cx="411.5" cy="424" r="21.5"/>
<circle fill="#1B5A73" cx="355.9" cy="402.4" r="21.5"/>
<circle fill="#FF7B91" cx="534.8" cy="343.3" r="21.5"/>
<circle fill="#B1ECF7" cx="186.4" cy="268.1" r="21.5"/>
<circle fill="#FF7B91" cx="164.9" cy="337.8" r="21.5"/>
<circle fill="#1B5A73" cx="361.5" cy="391.7" r="21.5"/>
<circle fill="#F9D540" cx="346.7" cy="314.4" r="21.5"/>
<circle fill="#B1ECF7" cx="492.8" cy="301.3" r="21.5"/>
<circle fill="#FF7B91" cx="466.1" cy="359.3" r="21.5"/>
<circle fill="#B1ECF7" cx="516.6" cy="424.3" r="21.5"/>
<circle fill="#F9D540" cx="556.4" cy="295.8" r="21.5"/>
<circle fill="#B1ECF7" cx="139.4" cy="397.5" r="21.5"/>
<circle fill="#FF7B91" cx="130.5" cy="185.5" r="21.5"/>
<circle fill="#1B5A73" cx="133.9" cy="405.4" r="21.5"/>
<circle fill="#F9D540" cx="478.2" cy="199.2" r="21.5"/>
<circle fill="#B1ECF7" cx="95.9" cy="133.8" r="21.5"/>
<circle fill="#1B5A73" cx="315.4" cy="155.3" r="21.5"/>
<circle fill="#F9D540" cx="487.6" cy="488.8" r="21.5"/>
<circle fill="#1B5A73" cx="487.6" cy="400" r="21.5"/>
<circle fill="#F9D540" cx="100.1" cy="279.8" r="21.5"/>
<circle fill="#B1ECF7" cx="186.4" cy="529.3" r="21.5"/>
<circle fill="#1B5A73" cx="321" cy="144.6" r="21.5"/>
<circle fill="#FF7B91" cx="451.2" cy="467.3" r="21.5"/>
<circle fill="#1B5A73" cx="503.9" cy="467.3" r="21.5"/>
<circle fill="#F9D540" cx="112.4" cy="363.7" r="21.5"/>
<circle fill="#B1ECF7" cx="155.4" cy="486.3" r="21.5"/>
<circle fill="#F9D540" cx="330.8" cy="225.2" r="21.5"/>
<circle fill="#FF7B91" cx="348" cy="284.7" r="21.5"/>
<circle fill="#1B5A73" cx="424.1" cy="340.4" r="21.5"/>
<circle fill="#F9D540" cx="409.3" cy="263.2" r="21.5"/>
<circle fill="#F9D540" cx="279.2" cy="445.8" r="21.5"/>
<circle fill="#FF7B91" cx="415.8" cy="510.4" r="21.5"/>
<circle fill="#B1ECF7" cx="391.1" cy="270.6" r="21.5"/>
<circle fill="#1B5A73" cx="335.5" cy="249.1" r="21.5"/>
<circle fill="#FF7B91" cx="536.7" cy="250" r="21.5"/>
<circle fill="#B1ECF7" cx="68.7" cy="193.3" r="21.5"/>
<circle fill="#FF7B91" cx="394.3" cy="445.5" r="21.5"/>
<circle fill="#1B5A73" cx="341" cy="238.4" r="21.5"/>
<circle fill="#F9D540" cx="159.8" cy="116.8" r="21.5"/>
<circle fill="#FF7B91" cx="474.6" cy="164" r="21.5"/>
<circle fill="#B1ECF7" cx="460.9" cy="266.9" r="21.5"/>
<circle fill="#F9D540" cx="535.9" cy="142.5" r="21.5"/>
<circle fill="#B1ECF7" cx="248" cy="515.3" r="21.5"/>
<circle fill="#FF7B91" cx="205" cy="481.9" r="21.5"/>
<circle fill="#1B5A73" cx="366.2" cy="493.7" r="21.5"/>
<circle fill="#F9D540" cx="325.7" cy="205.7" r="21.5"/>
<rect x="141.4" y="164.5" fill="#FFFFFF" stroke="#000000" stroke-miterlimit="10" width="324.7" height="294.7"/>
<rect x="222.2" y="209.6" fill="none" width="168.9" height="32.9"/>
<g enable-background="new    ">
	<path d="M237.1,226.3h-1.2v-7.7h-10.1v7.7h-1.2v-16.1h1.2v7.5h10.1v-7.5h1.2V226.3z"/>
	<path d="M245.6,214.8c0.6,0,1.2,0.1,1.8,0.3c0.5,0.2,1,0.5,1.4,1c0.4,0.4,0.7,0.9,0.9,1.6c0.2,0.6,0.3,1.3,0.3,2.1
		c0,0.2,0,0.3-0.1,0.3c0,0.1-0.1,0.1-0.2,0.1h-8.2v0.2c0,0.9,0.1,1.6,0.3,2.2c0.2,0.6,0.5,1.2,0.8,1.6c0.4,0.4,0.8,0.8,1.3,1
		c0.5,0.2,1.1,0.3,1.7,0.3c0.6,0,1.1-0.1,1.5-0.2s0.8-0.3,1.1-0.4c0.3-0.2,0.5-0.3,0.7-0.4s0.3-0.2,0.4-0.2c0.1,0,0.2,0,0.2,0.1
		l0.3,0.4c-0.2,0.2-0.4,0.4-0.7,0.6c-0.3,0.2-0.6,0.4-1,0.5c-0.4,0.1-0.8,0.3-1.2,0.3c-0.4,0.1-0.8,0.1-1.3,0.1
		c-0.8,0-1.5-0.1-2.1-0.4c-0.6-0.3-1.2-0.7-1.6-1.2c-0.5-0.5-0.8-1.2-1.1-1.9c-0.2-0.7-0.4-1.6-0.4-2.6c0-0.8,0.1-1.6,0.3-2.3
		s0.6-1.3,1-1.8c0.4-0.5,1-0.9,1.6-1.2S244.8,214.8,245.6,214.8z M245.7,215.6c-0.6,0-1.1,0.1-1.6,0.3c-0.5,0.2-0.9,0.4-1.2,0.8
		c-0.3,0.3-0.6,0.8-0.8,1.2c-0.2,0.5-0.3,1-0.4,1.6h7.5c0-0.6-0.1-1.2-0.3-1.6c-0.2-0.5-0.4-0.9-0.7-1.2c-0.3-0.3-0.7-0.6-1.1-0.8
		S246.2,215.6,245.7,215.6z"/>
	<path d="M254.4,209.7v16.6h-1.1v-16.6H254.4z"/>
	<path d="M259.8,209.7v16.6h-1.1v-16.6H259.8z"/>
	<path d="M268.2,214.8c0.8,0,1.5,0.1,2.2,0.4c0.6,0.3,1.2,0.7,1.6,1.2c0.4,0.5,0.8,1.1,1,1.8c0.2,0.7,0.3,1.5,0.3,2.4
		s-0.1,1.7-0.3,2.4c-0.2,0.7-0.6,1.3-1,1.8c-0.4,0.5-1,0.9-1.6,1.2c-0.6,0.3-1.4,0.4-2.2,0.4s-1.5-0.1-2.2-0.4
		c-0.6-0.3-1.2-0.7-1.6-1.2c-0.4-0.5-0.8-1.1-1-1.8s-0.3-1.5-0.3-2.4s0.1-1.7,0.3-2.4s0.6-1.3,1-1.8c0.4-0.5,1-0.9,1.6-1.2
		C266.6,214.9,267.4,214.8,268.2,214.8z M268.2,225.6c0.7,0,1.3-0.1,1.8-0.3c0.5-0.2,0.9-0.6,1.3-1s0.6-1,0.8-1.6s0.3-1.3,0.3-2.1
		c0-0.8-0.1-1.4-0.3-2.1s-0.4-1.1-0.8-1.6s-0.8-0.8-1.3-1c-0.5-0.2-1.1-0.4-1.8-0.4s-1.3,0.1-1.8,0.4c-0.5,0.2-0.9,0.6-1.3,1
		s-0.6,1-0.8,1.6c-0.2,0.6-0.3,1.3-0.3,2.1c0,0.8,0.1,1.4,0.3,2.1c0.2,0.6,0.4,1.1,0.8,1.6s0.8,0.8,1.3,1
		C266.9,225.5,267.5,225.6,268.2,225.6z"/>
	<path d="M275.6,225.3c0-0.3,0.1-0.5,0.3-0.7c0.2-0.2,0.4-0.3,0.7-0.3c0.3,0,0.6,0.1,0.8,0.3c0.2,0.2,0.3,0.5,0.3,0.9
		c0,0.3,0,0.6-0.1,1c-0.1,0.3-0.2,0.6-0.3,1c-0.2,0.3-0.3,0.6-0.5,0.9c-0.2,0.3-0.4,0.6-0.7,0.8l-0.2-0.2c-0.1-0.1-0.1-0.1-0.1-0.2
		c0,0,0-0.1,0-0.1s0-0.1,0.1-0.1c0.1-0.1,0.2-0.2,0.3-0.3c0.1-0.1,0.2-0.3,0.4-0.5c0.1-0.2,0.2-0.4,0.3-0.7s0.2-0.5,0.2-0.8
		c0,0-0.1,0-0.2,0c-0.1,0-0.1,0-0.2,0c-0.3,0-0.5-0.1-0.7-0.3C275.7,225.9,275.6,225.6,275.6,225.3z"/>
	<path d="M285.1,226.3v-11.4h0.6c0.2,0,0.3,0.1,0.3,0.3l0.1,1.6c0.2-0.3,0.5-0.6,0.7-0.9c0.3-0.3,0.5-0.5,0.8-0.7s0.6-0.3,0.9-0.4
		c0.3-0.1,0.7-0.2,1-0.2c0.8,0,1.5,0.2,2,0.7c0.5,0.5,0.8,1.2,1,2c0.1-0.5,0.3-0.9,0.6-1.2c0.2-0.3,0.5-0.6,0.8-0.9
		c0.3-0.2,0.7-0.4,1-0.5c0.4-0.1,0.8-0.2,1.2-0.2c0.6,0,1.1,0.1,1.5,0.3c0.4,0.2,0.8,0.5,1.1,0.8c0.3,0.4,0.6,0.8,0.7,1.3
		c0.2,0.5,0.3,1.1,0.3,1.8v7.3h-1.1V219c0-1.1-0.2-2-0.7-2.5c-0.5-0.6-1.2-0.9-2.1-0.9c-0.4,0-0.8,0.1-1.1,0.2s-0.7,0.4-1,0.6
		c-0.3,0.3-0.5,0.6-0.7,1.1c-0.2,0.4-0.2,0.9-0.2,1.5v7.3h-1.1V219c0-1.1-0.2-1.9-0.7-2.5c-0.4-0.6-1.1-0.9-1.9-0.9
		c-0.6,0-1.2,0.2-1.7,0.6c-0.5,0.4-1,0.9-1.4,1.5v8.6H285.1z"/>
	<path d="M305.5,229.9c0,0.1-0.1,0.2-0.2,0.3s-0.2,0.1-0.3,0.1h-0.8l2-4.4l-4.8-10.9h0.9c0.1,0,0.2,0,0.3,0.1
		c0.1,0.1,0.1,0.1,0.1,0.2l3.8,8.8c0,0.1,0.1,0.2,0.1,0.3c0,0.1,0.1,0.2,0.1,0.4c0-0.1,0.1-0.2,0.1-0.4c0-0.1,0.1-0.2,0.1-0.3
		l3.8-8.8c0-0.1,0.1-0.2,0.2-0.2c0.1,0,0.1-0.1,0.2-0.1h0.8L305.5,229.9z"/>
	<path d="M318.5,226.3v-11.4h0.6c0.2,0,0.3,0.1,0.3,0.3l0.1,1.7c0.5-0.7,1.1-1.2,1.8-1.6s1.5-0.6,2.3-0.6c0.6,0,1.2,0.1,1.6,0.3
		s0.9,0.5,1.2,0.9c0.3,0.4,0.5,0.8,0.7,1.3s0.2,1.1,0.2,1.8v7.3h-1.1V219c0-1.1-0.2-1.9-0.7-2.5c-0.5-0.6-1.2-0.9-2.2-0.9
		c-0.7,0-1.4,0.2-2.1,0.6c-0.6,0.4-1.2,0.9-1.7,1.6v8.5H318.5z"/>
	<path d="M338.1,226.3c-0.2,0-0.4-0.1-0.4-0.3l-0.2-1.4c-0.3,0.3-0.6,0.6-0.9,0.8c-0.3,0.2-0.6,0.4-1,0.6c-0.3,0.2-0.7,0.3-1.1,0.4
		c-0.4,0.1-0.8,0.1-1.3,0.1c-0.4,0-0.8-0.1-1.1-0.2c-0.4-0.1-0.7-0.3-1-0.5c-0.3-0.2-0.5-0.5-0.7-0.9c-0.2-0.4-0.3-0.8-0.3-1.3
		c0-0.5,0.1-0.9,0.4-1.3c0.3-0.4,0.7-0.8,1.3-1.1s1.3-0.5,2.2-0.7c0.9-0.2,2-0.3,3.3-0.3v-1.2c0-1-0.2-1.9-0.7-2.4
		c-0.5-0.6-1.1-0.9-2-0.9c-0.5,0-1,0.1-1.4,0.2c-0.4,0.2-0.7,0.3-1,0.5c-0.3,0.2-0.5,0.4-0.7,0.5c-0.2,0.2-0.3,0.2-0.4,0.2
		c-0.2,0-0.3-0.1-0.3-0.2l-0.2-0.3c0.6-0.6,1.2-1,1.9-1.3s1.4-0.5,2.2-0.5c0.6,0,1.1,0.1,1.6,0.3c0.5,0.2,0.8,0.5,1.1,0.8
		s0.5,0.8,0.7,1.3c0.2,0.5,0.2,1.1,0.2,1.7v7.4H338.1z M333.5,225.7c0.4,0,0.8,0,1.2-0.1c0.4-0.1,0.7-0.2,1-0.4
		c0.3-0.2,0.6-0.4,0.9-0.6c0.3-0.2,0.5-0.5,0.8-0.8v-3c-1.1,0-2,0.1-2.8,0.2c-0.8,0.1-1.4,0.3-1.9,0.5s-0.9,0.5-1.1,0.8
		c-0.2,0.3-0.4,0.7-0.4,1.1c0,0.4,0.1,0.7,0.2,1c0.1,0.3,0.3,0.5,0.5,0.7c0.2,0.2,0.4,0.3,0.7,0.4
		C333,225.6,333.2,225.7,333.5,225.7z"/>
	<path d="M342,226.3v-11.4h0.6c0.2,0,0.3,0.1,0.3,0.3l0.1,1.6c0.2-0.3,0.5-0.6,0.7-0.9c0.3-0.3,0.5-0.5,0.8-0.7s0.6-0.3,0.9-0.4
		c0.3-0.1,0.7-0.2,1-0.2c0.8,0,1.5,0.2,2,0.7c0.5,0.5,0.8,1.2,1,2c0.1-0.5,0.3-0.9,0.6-1.2c0.2-0.3,0.5-0.6,0.8-0.9
		c0.3-0.2,0.7-0.4,1-0.5s0.8-0.2,1.2-0.2c0.6,0,1.1,0.1,1.5,0.3s0.8,0.5,1.1,0.8c0.3,0.4,0.6,0.8,0.7,1.3c0.2,0.5,0.3,1.1,0.3,1.8
		v7.3h-1.1V219c0-1.1-0.2-2-0.7-2.5c-0.5-0.6-1.2-0.9-2.1-0.9c-0.4,0-0.8,0.1-1.1,0.2s-0.7,0.4-1,0.6c-0.3,0.3-0.5,0.6-0.7,1.1
		c-0.2,0.4-0.2,0.9-0.2,1.5v7.3h-1.1V219c0-1.1-0.2-1.9-0.7-2.5c-0.4-0.6-1.1-0.9-1.9-0.9c-0.6,0-1.2,0.2-1.7,0.6
		c-0.5,0.4-1,0.9-1.4,1.5v8.6H342z"/>
	<path d="M364.4,214.8c0.6,0,1.2,0.1,1.8,0.3c0.5,0.2,1,0.5,1.4,1c0.4,0.4,0.7,0.9,0.9,1.6c0.2,0.6,0.3,1.3,0.3,2.1
		c0,0.2,0,0.3-0.1,0.3c0,0.1-0.1,0.1-0.2,0.1h-8.2v0.2c0,0.9,0.1,1.6,0.3,2.2c0.2,0.6,0.5,1.2,0.8,1.6c0.4,0.4,0.8,0.8,1.3,1
		s1.1,0.3,1.7,0.3c0.6,0,1.1-0.1,1.5-0.2c0.4-0.1,0.8-0.3,1.1-0.4c0.3-0.2,0.5-0.3,0.7-0.4c0.2-0.1,0.3-0.2,0.4-0.2
		c0.1,0,0.2,0,0.2,0.1l0.3,0.4c-0.2,0.2-0.4,0.4-0.7,0.6c-0.3,0.2-0.6,0.4-1,0.5c-0.4,0.1-0.8,0.3-1.2,0.3c-0.4,0.1-0.8,0.1-1.3,0.1
		c-0.8,0-1.5-0.1-2.1-0.4s-1.2-0.7-1.6-1.2c-0.5-0.5-0.8-1.2-1.1-1.9c-0.2-0.7-0.4-1.6-0.4-2.6c0-0.8,0.1-1.6,0.3-2.3
		c0.2-0.7,0.6-1.3,1-1.8c0.4-0.5,1-0.9,1.6-1.2C362.9,214.9,363.6,214.8,364.4,214.8z M364.4,215.6c-0.6,0-1.1,0.1-1.6,0.3
		c-0.5,0.2-0.9,0.4-1.2,0.8c-0.3,0.3-0.6,0.8-0.8,1.2c-0.2,0.5-0.3,1-0.4,1.6h7.5c0-0.6-0.1-1.2-0.2-1.6c-0.2-0.5-0.4-0.9-0.7-1.2
		c-0.3-0.3-0.7-0.6-1.1-0.8C365.4,215.7,364.9,215.6,364.4,215.6z"/>
	<path d="M378.1,211c0,0.1,0,0.3-0.1,0.4c-0.1,0.1-0.1,0.2-0.2,0.3c-0.1,0.1-0.2,0.2-0.3,0.2s-0.3,0.1-0.4,0.1s-0.3,0-0.4-0.1
		c-0.1-0.1-0.2-0.1-0.3-0.2c-0.1-0.1-0.2-0.2-0.2-0.3c-0.1-0.1-0.1-0.2-0.1-0.4c0-0.1,0-0.3,0.1-0.4c0.1-0.1,0.1-0.2,0.2-0.3
		c0.1-0.1,0.2-0.2,0.3-0.2c0.1-0.1,0.3-0.1,0.4-0.1s0.3,0,0.4,0.1s0.2,0.1,0.3,0.2c0.1,0.1,0.2,0.2,0.2,0.3
		C378,210.8,378.1,210.9,378.1,211z M377.6,214.9v11.4h-1.1v-11.4H377.6z"/>
	<path d="M387.9,216.3c-0.1,0.1-0.1,0.2-0.3,0.2c-0.1,0-0.2,0-0.3-0.1s-0.3-0.2-0.5-0.3c-0.2-0.1-0.5-0.2-0.8-0.3
		c-0.3-0.1-0.7-0.1-1.2-0.1c-0.4,0-0.8,0.1-1.1,0.2c-0.3,0.1-0.6,0.3-0.9,0.5c-0.2,0.2-0.4,0.4-0.6,0.7s-0.2,0.5-0.2,0.8
		c0,0.4,0.1,0.7,0.3,0.9c0.2,0.2,0.4,0.4,0.7,0.6s0.6,0.3,1,0.4c0.4,0.1,0.8,0.2,1.2,0.4c0.4,0.1,0.8,0.3,1.2,0.4
		c0.4,0.1,0.7,0.3,1,0.6c0.3,0.2,0.5,0.5,0.7,0.8c0.2,0.3,0.3,0.7,0.3,1.2c0,0.5-0.1,1-0.3,1.4c-0.2,0.4-0.4,0.8-0.8,1.1
		c-0.3,0.3-0.8,0.6-1.2,0.7s-1.1,0.3-1.7,0.3c-0.8,0-1.5-0.1-2.1-0.4s-1.1-0.6-1.6-1l0.3-0.4c0-0.1,0.1-0.1,0.1-0.1c0,0,0.1,0,0.2,0
		c0.1,0,0.2,0.1,0.4,0.2c0.1,0.1,0.3,0.3,0.6,0.4c0.2,0.1,0.5,0.3,0.9,0.4c0.3,0.1,0.8,0.2,1.3,0.2c0.5,0,0.9-0.1,1.3-0.2
		c0.4-0.1,0.7-0.3,0.9-0.5c0.2-0.2,0.4-0.5,0.6-0.8c0.1-0.3,0.2-0.6,0.2-1c0-0.4-0.1-0.7-0.3-0.9c-0.2-0.3-0.4-0.5-0.7-0.6
		c-0.3-0.2-0.6-0.3-1-0.4c-0.4-0.1-0.8-0.2-1.2-0.4s-0.8-0.3-1.2-0.4c-0.4-0.1-0.7-0.3-1-0.5c-0.3-0.2-0.5-0.5-0.7-0.8
		c-0.2-0.3-0.3-0.7-0.3-1.2c0-0.4,0.1-0.8,0.3-1.2c0.2-0.4,0.4-0.7,0.7-1c0.3-0.3,0.7-0.5,1.2-0.7c0.5-0.2,1-0.3,1.6-0.3
		c0.7,0,1.3,0.1,1.8,0.3c0.5,0.2,1,0.5,1.5,0.9L387.9,216.3z"/>
</g>
<rect x="205" y="334.8" fill="none" width="203.4" height="67.3"/>
<g enable-background="new    ">
	<path d="M219.2,348.2h-0.9v-12.9h0.9V348.2z"/>
	<path d="M227.6,334.9v13.3h-0.9v-13.3H227.6z"/>
	<path d="M234.3,338.9c0.7,0,1.2,0.1,1.7,0.3c0.5,0.2,0.9,0.5,1.3,0.9c0.4,0.4,0.6,0.9,0.8,1.5c0.2,0.6,0.3,1.2,0.3,1.9
		c0,0.7-0.1,1.4-0.3,1.9c-0.2,0.6-0.5,1.1-0.8,1.5c-0.4,0.4-0.8,0.7-1.3,0.9c-0.5,0.2-1.1,0.3-1.7,0.3c-0.7,0-1.2-0.1-1.7-0.3
		c-0.5-0.2-0.9-0.5-1.3-0.9c-0.4-0.4-0.6-0.9-0.8-1.5c-0.2-0.6-0.3-1.2-0.3-1.9c0-0.7,0.1-1.4,0.3-1.9c0.2-0.6,0.5-1.1,0.8-1.5
		c0.4-0.4,0.8-0.7,1.3-0.9C233,339,233.6,338.9,234.3,338.9z M234.3,347.6c0.5,0,1-0.1,1.4-0.3c0.4-0.2,0.7-0.5,1-0.8
		c0.3-0.3,0.5-0.8,0.6-1.3s0.2-1,0.2-1.6c0-0.6-0.1-1.1-0.2-1.6s-0.3-0.9-0.6-1.3c-0.3-0.3-0.6-0.6-1-0.8c-0.4-0.2-0.9-0.3-1.4-0.3
		c-0.5,0-1,0.1-1.4,0.3s-0.7,0.5-1,0.8c-0.3,0.4-0.5,0.8-0.6,1.3c-0.1,0.5-0.2,1-0.2,1.6c0,0.6,0.1,1.2,0.2,1.6
		c0.1,0.5,0.3,0.9,0.6,1.3c0.3,0.3,0.6,0.6,1,0.8S233.7,347.6,234.3,347.6z"/>
	<path d="M243.9,348.2h-0.8l-3.8-9.1h0.7c0.1,0,0.2,0,0.2,0.1c0.1,0,0.1,0.1,0.1,0.2l3,7.2c0.1,0.1,0.1,0.3,0.1,0.4
		c0,0.1,0.1,0.3,0.1,0.4c0-0.1,0.1-0.3,0.1-0.4c0-0.1,0.1-0.3,0.1-0.4l3-7.2c0-0.1,0.1-0.1,0.1-0.2c0.1,0,0.1-0.1,0.2-0.1h0.7
		L243.9,348.2z"/>
	<path d="M252.7,338.9c0.5,0,1,0.1,1.4,0.3s0.8,0.4,1.1,0.8c0.3,0.3,0.6,0.8,0.7,1.2s0.3,1.1,0.3,1.7c0,0.1,0,0.2-0.1,0.3
		s-0.1,0.1-0.2,0.1h-6.6v0.2c0,0.7,0.1,1.3,0.2,1.8s0.4,1,0.7,1.3c0.3,0.4,0.6,0.6,1.1,0.8c0.4,0.2,0.9,0.3,1.4,0.3
		c0.5,0,0.9-0.1,1.2-0.2c0.3-0.1,0.6-0.2,0.8-0.3c0.2-0.1,0.4-0.2,0.5-0.3c0.1-0.1,0.2-0.2,0.3-0.2c0.1,0,0.1,0,0.2,0.1l0.2,0.3
		c-0.1,0.2-0.3,0.4-0.6,0.5c-0.2,0.2-0.5,0.3-0.8,0.4c-0.3,0.1-0.6,0.2-0.9,0.3c-0.3,0.1-0.7,0.1-1,0.1c-0.6,0-1.2-0.1-1.7-0.3
		c-0.5-0.2-0.9-0.5-1.3-0.9s-0.6-0.9-0.8-1.5c-0.2-0.6-0.3-1.3-0.3-2.1c0-0.7,0.1-1.3,0.3-1.8c0.2-0.6,0.5-1,0.8-1.4
		c0.3-0.4,0.8-0.7,1.3-0.9C251.5,339,252,338.9,252.7,338.9z M252.7,339.6c-0.5,0-0.9,0.1-1.3,0.2s-0.7,0.4-1,0.6
		c-0.3,0.3-0.5,0.6-0.7,1c-0.2,0.4-0.3,0.8-0.3,1.3h6c0-0.5-0.1-0.9-0.2-1.3c-0.1-0.4-0.3-0.7-0.6-1c-0.2-0.3-0.5-0.5-0.9-0.6
		C253.5,339.6,253.1,339.6,252.7,339.6z"/>
	<path d="M268.6,348.2c-0.2,0-0.2-0.1-0.3-0.2l-0.1-1.4c-0.4,0.5-0.9,1-1.4,1.3c-0.5,0.3-1.1,0.5-1.8,0.5c-1.1,0-2-0.4-2.6-1.2
		c-0.6-0.8-0.9-1.9-0.9-3.5c0-0.7,0.1-1.3,0.3-1.9s0.4-1.1,0.8-1.5c0.3-0.4,0.8-0.8,1.2-1c0.5-0.2,1.1-0.4,1.7-0.4
		c0.6,0,1.1,0.1,1.6,0.3c0.5,0.2,0.8,0.6,1.2,1v-5.4h0.9v13.3H268.6z M265.2,347.6c0.6,0,1.1-0.2,1.6-0.5c0.5-0.3,0.9-0.7,1.3-1.3
		V341c-0.4-0.5-0.7-0.9-1.2-1.1c-0.4-0.2-0.9-0.3-1.4-0.3c-0.5,0-1,0.1-1.4,0.3c-0.4,0.2-0.7,0.5-1,0.8c-0.3,0.4-0.5,0.8-0.6,1.3
		s-0.2,1-0.2,1.6c0,1.4,0.2,2.3,0.7,3C263.6,347.3,264.3,347.6,265.2,347.6z"/>
	<path d="M275.5,338.9c0.5,0,1,0.1,1.4,0.3s0.8,0.4,1.1,0.8c0.3,0.3,0.6,0.8,0.7,1.2s0.3,1.1,0.3,1.7c0,0.1,0,0.2-0.1,0.3
		s-0.1,0.1-0.2,0.1h-6.6v0.2c0,0.7,0.1,1.3,0.2,1.8s0.4,1,0.7,1.3c0.3,0.4,0.6,0.6,1.1,0.8c0.4,0.2,0.9,0.3,1.4,0.3
		c0.5,0,0.9-0.1,1.2-0.2c0.3-0.1,0.6-0.2,0.8-0.3c0.2-0.1,0.4-0.2,0.5-0.3c0.1-0.1,0.2-0.2,0.3-0.2c0.1,0,0.1,0,0.2,0.1l0.2,0.3
		c-0.1,0.2-0.3,0.4-0.6,0.5c-0.2,0.2-0.5,0.3-0.8,0.4c-0.3,0.1-0.6,0.2-0.9,0.3c-0.3,0.1-0.7,0.1-1,0.1c-0.6,0-1.2-0.1-1.7-0.3
		c-0.5-0.2-0.9-0.5-1.3-0.9s-0.6-0.9-0.8-1.5c-0.2-0.6-0.3-1.3-0.3-2.1c0-0.7,0.1-1.3,0.3-1.8c0.2-0.6,0.5-1,0.8-1.4
		c0.3-0.4,0.8-0.7,1.3-0.9C274.3,339,274.9,338.9,275.5,338.9z M275.5,339.6c-0.5,0-0.9,0.1-1.3,0.2s-0.7,0.4-1,0.6
		c-0.3,0.3-0.5,0.6-0.7,1c-0.2,0.4-0.3,0.8-0.3,1.3h6c0-0.5-0.1-0.9-0.2-1.3c-0.1-0.4-0.3-0.7-0.6-1c-0.2-0.3-0.5-0.5-0.9-0.6
		C276.3,339.6,275.9,339.6,275.5,339.6z"/>
	<path d="M286.4,340.2c0,0.1-0.1,0.1-0.2,0.1c-0.1,0-0.2,0-0.3-0.1s-0.2-0.2-0.4-0.3s-0.4-0.2-0.6-0.3s-0.6-0.1-0.9-0.1
		c-0.3,0-0.6,0-0.9,0.1c-0.3,0.1-0.5,0.2-0.7,0.4c-0.2,0.2-0.3,0.3-0.4,0.6c-0.1,0.2-0.2,0.4-0.2,0.7c0,0.3,0.1,0.5,0.2,0.7
		c0.1,0.2,0.3,0.3,0.6,0.5c0.2,0.1,0.5,0.2,0.8,0.3c0.3,0.1,0.6,0.2,0.9,0.3c0.3,0.1,0.6,0.2,0.9,0.3c0.3,0.1,0.6,0.3,0.8,0.4
		c0.2,0.2,0.4,0.4,0.6,0.6s0.2,0.6,0.2,0.9c0,0.4-0.1,0.8-0.2,1.1s-0.4,0.6-0.6,0.9c-0.3,0.2-0.6,0.4-1,0.6
		c-0.4,0.1-0.8,0.2-1.4,0.2c-0.6,0-1.2-0.1-1.7-0.3c-0.5-0.2-0.9-0.5-1.2-0.8l0.2-0.3c0,0,0.1-0.1,0.1-0.1c0,0,0.1,0,0.2,0
		c0.1,0,0.2,0,0.3,0.1c0.1,0.1,0.3,0.2,0.5,0.3s0.4,0.2,0.7,0.3c0.3,0.1,0.6,0.1,1,0.1c0.4,0,0.7-0.1,1-0.2c0.3-0.1,0.5-0.3,0.7-0.4
		s0.3-0.4,0.4-0.6c0.1-0.2,0.2-0.5,0.2-0.8c0-0.3-0.1-0.6-0.2-0.8c-0.1-0.2-0.3-0.4-0.6-0.5c-0.2-0.1-0.5-0.3-0.8-0.4
		c-0.3-0.1-0.6-0.2-0.9-0.3c-0.3-0.1-0.6-0.2-0.9-0.3s-0.6-0.3-0.8-0.4s-0.4-0.4-0.6-0.6c-0.1-0.3-0.2-0.6-0.2-0.9
		c0-0.3,0.1-0.6,0.2-0.9c0.1-0.3,0.3-0.6,0.6-0.8c0.3-0.2,0.6-0.4,0.9-0.5c0.4-0.1,0.8-0.2,1.3-0.2c0.6,0,1,0.1,1.5,0.2
		c0.4,0.2,0.8,0.4,1.2,0.7L286.4,340.2z"/>
	<path d="M290.8,335.9c0,0.1,0,0.2-0.1,0.3c0,0.1-0.1,0.2-0.2,0.3c-0.1,0.1-0.2,0.1-0.3,0.2c-0.1,0-0.2,0.1-0.3,0.1
		c-0.1,0-0.2,0-0.3-0.1c-0.1,0-0.2-0.1-0.3-0.2c-0.1-0.1-0.1-0.2-0.2-0.3c0-0.1-0.1-0.2-0.1-0.3s0-0.2,0.1-0.3s0.1-0.2,0.2-0.3
		c0.1-0.1,0.2-0.1,0.3-0.2c0.1,0,0.2-0.1,0.3-0.1c0.1,0,0.2,0,0.3,0.1c0.1,0,0.2,0.1,0.3,0.2c0.1,0.1,0.1,0.2,0.2,0.3
		C290.7,335.7,290.8,335.8,290.8,335.9z M290.4,339.1v9.1h-0.9v-9.1H290.4z"/>
	<path d="M296.6,338.9c0.4,0,0.8,0,1.1,0.1c0.3,0.1,0.6,0.2,0.9,0.4h2.3v0.3c0,0.2-0.1,0.2-0.3,0.2l-1.4,0.1
		c0.2,0.2,0.3,0.5,0.4,0.8s0.1,0.6,0.1,0.9c0,0.4-0.1,0.8-0.2,1.2c-0.2,0.4-0.4,0.7-0.7,0.9c-0.3,0.3-0.6,0.4-1,0.6
		c-0.4,0.1-0.8,0.2-1.3,0.2c-0.5,0-1-0.1-1.4-0.2c-0.3,0.1-0.5,0.3-0.6,0.5c-0.1,0.2-0.2,0.4-0.2,0.6c0,0.3,0.1,0.5,0.3,0.6
		c0.2,0.1,0.4,0.2,0.7,0.3c0.3,0.1,0.6,0.1,1,0.1c0.4,0,0.8,0,1.2,0.1c0.4,0,0.8,0.1,1.2,0.1c0.4,0.1,0.7,0.2,1,0.3
		c0.3,0.1,0.5,0.3,0.7,0.6c0.2,0.2,0.3,0.6,0.3,1c0,0.4-0.1,0.7-0.3,1.1c-0.2,0.3-0.5,0.7-0.8,0.9s-0.8,0.5-1.3,0.6
		c-0.5,0.2-1.1,0.2-1.7,0.2c-0.6,0-1.2-0.1-1.7-0.2s-0.9-0.3-1.2-0.5c-0.3-0.2-0.6-0.5-0.7-0.8s-0.2-0.6-0.2-0.9
		c0-0.5,0.2-0.9,0.5-1.2s0.8-0.6,1.3-0.8c-0.3-0.1-0.5-0.3-0.7-0.4c-0.2-0.2-0.3-0.5-0.3-0.8c0-0.1,0-0.3,0.1-0.4
		c0-0.1,0.1-0.3,0.2-0.4c0.1-0.1,0.2-0.3,0.4-0.4c0.1-0.1,0.3-0.2,0.5-0.3c-0.4-0.2-0.8-0.6-1-1c-0.2-0.4-0.4-0.9-0.4-1.5
		c0-0.4,0.1-0.8,0.2-1.2c0.2-0.4,0.4-0.7,0.7-0.9c0.3-0.3,0.6-0.5,1-0.6C295.7,339,296.1,338.9,296.6,338.9z M300,348.8
		c0-0.3-0.1-0.5-0.2-0.7c-0.1-0.2-0.3-0.3-0.6-0.4c-0.2-0.1-0.5-0.2-0.9-0.2c-0.3,0-0.7-0.1-1-0.1c-0.4,0-0.7,0-1.1-0.1
		c-0.4,0-0.7-0.1-1-0.1c-0.2,0.1-0.4,0.2-0.6,0.3c-0.2,0.1-0.4,0.3-0.5,0.4c-0.1,0.1-0.2,0.3-0.3,0.5c-0.1,0.2-0.1,0.4-0.1,0.6
		c0,0.3,0.1,0.5,0.2,0.7c0.1,0.2,0.3,0.4,0.6,0.6c0.3,0.2,0.6,0.3,1,0.4c0.4,0.1,0.8,0.1,1.3,0.1c0.5,0,0.9-0.1,1.3-0.2
		c0.4-0.1,0.7-0.2,1-0.4c0.3-0.2,0.5-0.4,0.7-0.7C299.9,349.4,300,349.1,300,348.8z M296.6,344.1c0.4,0,0.7-0.1,1-0.2
		c0.3-0.1,0.6-0.3,0.8-0.5c0.2-0.2,0.4-0.4,0.5-0.7c0.1-0.3,0.2-0.6,0.2-0.9s-0.1-0.7-0.2-0.9c-0.1-0.3-0.3-0.5-0.5-0.7
		s-0.5-0.4-0.8-0.5s-0.6-0.2-1-0.2s-0.7,0.1-1,0.2s-0.6,0.3-0.8,0.5s-0.4,0.4-0.5,0.7s-0.2,0.6-0.2,0.9s0.1,0.7,0.2,0.9
		s0.3,0.5,0.5,0.7c0.2,0.2,0.5,0.4,0.8,0.5C295.9,344.1,296.2,344.1,296.6,344.1z"/>
	<path d="M302.8,348.2v-9.1h0.5c0.2,0,0.2,0.1,0.3,0.2l0.1,1.4c0.4-0.5,0.9-0.9,1.4-1.3s1.2-0.5,1.8-0.5c0.5,0,0.9,0.1,1.3,0.2
		s0.7,0.4,0.9,0.7c0.2,0.3,0.4,0.7,0.6,1.1c0.1,0.4,0.2,0.9,0.2,1.4v5.8h-0.9v-5.8c0-0.9-0.2-1.5-0.6-2c-0.4-0.5-1-0.7-1.8-0.7
		c-0.6,0-1.2,0.2-1.7,0.5c-0.5,0.3-1,0.7-1.4,1.3v6.8H302.8z"/>
	<path d="M322,348.2c-0.2,0-0.3-0.1-0.3-0.3l-0.1-1.2c-0.2,0.2-0.5,0.5-0.7,0.7c-0.2,0.2-0.5,0.4-0.8,0.5s-0.6,0.2-0.9,0.3
		c-0.3,0.1-0.7,0.1-1,0.1c-0.3,0-0.6,0-0.9-0.1c-0.3-0.1-0.6-0.2-0.8-0.4c-0.2-0.2-0.4-0.4-0.5-0.7s-0.2-0.6-0.2-1.1
		c0-0.4,0.1-0.7,0.3-1.1c0.2-0.3,0.6-0.6,1-0.9c0.5-0.2,1.1-0.4,1.8-0.6c0.7-0.1,1.6-0.2,2.6-0.3v-0.9c0-0.8-0.2-1.5-0.5-1.9
		s-0.9-0.7-1.6-0.7c-0.4,0-0.8,0.1-1.1,0.2c-0.3,0.1-0.6,0.3-0.8,0.4c-0.2,0.1-0.4,0.3-0.5,0.4s-0.2,0.2-0.3,0.2
		c-0.1,0-0.2-0.1-0.3-0.2l-0.2-0.3c0.5-0.5,1-0.8,1.5-1.1c0.5-0.2,1.1-0.4,1.8-0.4c0.5,0,0.9,0.1,1.3,0.2c0.4,0.2,0.7,0.4,0.9,0.7
		c0.2,0.3,0.4,0.6,0.5,1c0.1,0.4,0.2,0.9,0.2,1.4v5.9H322z M318.4,347.7c0.4,0,0.7,0,1-0.1c0.3-0.1,0.6-0.2,0.8-0.3
		c0.3-0.1,0.5-0.3,0.7-0.5c0.2-0.2,0.4-0.4,0.6-0.6v-2.4c-0.9,0-1.6,0.1-2.2,0.2s-1.1,0.3-1.5,0.4s-0.7,0.4-0.9,0.7
		c-0.2,0.3-0.3,0.5-0.3,0.9c0,0.3,0.1,0.6,0.2,0.8c0.1,0.2,0.2,0.4,0.4,0.5c0.2,0.1,0.4,0.2,0.6,0.3
		C317.9,347.6,318.1,347.7,318.4,347.7z"/>
	<path d="M325.1,348.2v-9.1h0.5c0.2,0,0.2,0.1,0.3,0.2l0.1,1.4c0.4-0.5,0.9-0.9,1.4-1.3s1.2-0.5,1.8-0.5c0.5,0,0.9,0.1,1.3,0.2
		c0.4,0.2,0.7,0.4,0.9,0.7c0.2,0.3,0.4,0.7,0.6,1.1s0.2,0.9,0.2,1.4v5.8h-0.9v-5.8c0-0.9-0.2-1.5-0.6-2c-0.4-0.5-1-0.7-1.8-0.7
		c-0.6,0-1.2,0.2-1.7,0.5c-0.5,0.3-1,0.7-1.4,1.3v6.8H325.1z"/>
	<path d="M341.4,348.2c-0.2,0-0.2-0.1-0.3-0.2l-0.1-1.4c-0.4,0.5-0.9,1-1.4,1.3c-0.5,0.3-1.1,0.5-1.8,0.5c-1.1,0-2-0.4-2.6-1.2
		c-0.6-0.8-0.9-1.9-0.9-3.5c0-0.7,0.1-1.3,0.3-1.9s0.4-1.1,0.8-1.5s0.8-0.8,1.2-1c0.5-0.2,1.1-0.4,1.7-0.4c0.6,0,1.1,0.1,1.6,0.3
		c0.5,0.2,0.8,0.6,1.2,1v-5.4h0.9v13.3H341.4z M338.1,347.6c0.6,0,1.1-0.2,1.6-0.5s0.9-0.7,1.3-1.3V341c-0.4-0.5-0.7-0.9-1.2-1.1
		s-0.9-0.3-1.4-0.3c-0.5,0-1,0.1-1.4,0.3c-0.4,0.2-0.7,0.5-1,0.8c-0.3,0.4-0.5,0.8-0.6,1.3c-0.1,0.5-0.2,1-0.2,1.6
		c0,1.4,0.2,2.3,0.8,3C336.4,347.3,337.1,347.6,338.1,347.6z"/>
	<path d="M354.4,340.3C354.4,340.3,354.4,340.3,354.4,340.3c-0.1,0.1-0.2,0.1-0.2,0.1c-0.1,0-0.1,0-0.3-0.1s-0.2-0.2-0.4-0.3
		c-0.2-0.1-0.4-0.2-0.7-0.3s-0.6-0.1-1-0.1c-0.5,0-1,0.1-1.4,0.3s-0.7,0.5-1,0.8s-0.5,0.8-0.6,1.3c-0.1,0.5-0.2,1-0.2,1.7
		c0,0.6,0.1,1.2,0.2,1.7s0.4,0.9,0.6,1.2c0.3,0.3,0.6,0.6,1,0.8c0.4,0.2,0.8,0.3,1.3,0.3c0.4,0,0.8-0.1,1.1-0.2
		c0.3-0.1,0.5-0.2,0.7-0.3c0.2-0.1,0.3-0.2,0.5-0.3c0.1-0.1,0.2-0.2,0.3-0.2c0.1,0,0.1,0,0.2,0.1l0.2,0.3c-0.1,0.2-0.3,0.4-0.5,0.5
		s-0.5,0.3-0.7,0.4c-0.3,0.1-0.6,0.2-0.9,0.3c-0.3,0.1-0.6,0.1-1,0.1c-0.6,0-1.1-0.1-1.6-0.3c-0.5-0.2-0.9-0.5-1.2-0.9
		s-0.6-0.9-0.8-1.5s-0.3-1.2-0.3-2c0-0.7,0.1-1.3,0.3-1.9s0.4-1.1,0.8-1.5c0.3-0.4,0.8-0.7,1.3-1c0.5-0.2,1.1-0.3,1.7-0.3
		c0.6,0,1.1,0.1,1.6,0.3c0.5,0.2,0.9,0.4,1.2,0.8L354.4,340.3z"/>
	<path d="M360.2,338.9c0.7,0,1.2,0.1,1.7,0.3c0.5,0.2,0.9,0.5,1.3,0.9c0.4,0.4,0.6,0.9,0.8,1.5s0.3,1.2,0.3,1.9
		c0,0.7-0.1,1.4-0.3,1.9s-0.5,1.1-0.8,1.5c-0.4,0.4-0.8,0.7-1.3,0.9c-0.5,0.2-1.1,0.3-1.7,0.3c-0.7,0-1.2-0.1-1.7-0.3
		c-0.5-0.2-0.9-0.5-1.3-0.9c-0.4-0.4-0.6-0.9-0.8-1.5c-0.2-0.6-0.3-1.2-0.3-1.9c0-0.7,0.1-1.4,0.3-1.9c0.2-0.6,0.5-1.1,0.8-1.5
		c0.4-0.4,0.8-0.7,1.3-0.9C359,339,359.6,338.9,360.2,338.9z M360.2,347.6c0.5,0,1-0.1,1.4-0.3s0.7-0.5,1-0.8
		c0.3-0.3,0.5-0.8,0.6-1.3s0.2-1,0.2-1.6c0-0.6-0.1-1.1-0.2-1.6s-0.3-0.9-0.6-1.3c-0.3-0.3-0.6-0.6-1-0.8s-0.9-0.3-1.4-0.3
		c-0.5,0-1,0.1-1.4,0.3c-0.4,0.2-0.7,0.5-1,0.8c-0.3,0.4-0.5,0.8-0.6,1.3s-0.2,1-0.2,1.6c0,0.6,0.1,1.2,0.2,1.6s0.3,0.9,0.6,1.3
		s0.6,0.6,1,0.8C359.2,347.5,359.7,347.6,360.2,347.6z"/>
	<path d="M373.1,348.2c-0.2,0-0.2-0.1-0.3-0.2l-0.1-1.4c-0.4,0.5-0.9,1-1.4,1.3s-1.1,0.5-1.8,0.5c-1.1,0-2-0.4-2.6-1.2
		c-0.6-0.8-0.9-1.9-0.9-3.5c0-0.7,0.1-1.3,0.3-1.9s0.4-1.1,0.8-1.5c0.3-0.4,0.8-0.8,1.2-1c0.5-0.2,1.1-0.4,1.7-0.4
		c0.6,0,1.1,0.1,1.6,0.3s0.8,0.6,1.2,1v-5.4h0.9v13.3H373.1z M369.8,347.6c0.6,0,1.1-0.2,1.6-0.5c0.5-0.3,0.9-0.7,1.3-1.3V341
		c-0.4-0.5-0.7-0.9-1.2-1.1c-0.4-0.2-0.9-0.3-1.4-0.3s-1,0.1-1.4,0.3c-0.4,0.2-0.7,0.5-1,0.8c-0.3,0.4-0.5,0.8-0.6,1.3
		c-0.1,0.5-0.2,1-0.2,1.6c0,1.4,0.2,2.3,0.7,3C368.1,347.3,368.8,347.6,369.8,347.6z"/>
	<path d="M380,338.9c0.5,0,1,0.1,1.4,0.3c0.4,0.2,0.8,0.4,1.1,0.8s0.6,0.8,0.7,1.2s0.3,1.1,0.3,1.7c0,0.1,0,0.2-0.1,0.3
		c0,0-0.1,0.1-0.2,0.1h-6.6v0.2c0,0.7,0.1,1.3,0.2,1.8s0.4,1,0.7,1.3c0.3,0.4,0.6,0.6,1.1,0.8s0.9,0.3,1.4,0.3
		c0.5,0,0.9-0.1,1.2-0.2c0.3-0.1,0.6-0.2,0.8-0.3s0.4-0.2,0.5-0.3s0.2-0.2,0.3-0.2c0.1,0,0.1,0,0.2,0.1l0.2,0.3
		c-0.1,0.2-0.3,0.4-0.6,0.5c-0.2,0.2-0.5,0.3-0.8,0.4c-0.3,0.1-0.6,0.2-0.9,0.3c-0.3,0.1-0.7,0.1-1,0.1c-0.6,0-1.2-0.1-1.7-0.3
		c-0.5-0.2-1-0.5-1.3-0.9s-0.6-0.9-0.8-1.5c-0.2-0.6-0.3-1.3-0.3-2.1c0-0.7,0.1-1.3,0.3-1.8s0.5-1,0.8-1.4c0.3-0.4,0.8-0.7,1.3-0.9
		C378.8,339,379.4,338.9,380,338.9z M380,339.6c-0.5,0-0.9,0.1-1.3,0.2c-0.4,0.1-0.7,0.4-1,0.6s-0.5,0.6-0.7,1
		c-0.2,0.4-0.3,0.8-0.3,1.3h6c0-0.5-0.1-0.9-0.2-1.3c-0.1-0.4-0.3-0.7-0.6-1c-0.2-0.3-0.5-0.5-0.9-0.6
		C380.8,339.6,380.5,339.6,380,339.6z"/>
	<path d="M385.4,347.5c0-0.1,0-0.2,0.1-0.3c0-0.1,0.1-0.2,0.2-0.3s0.2-0.1,0.3-0.2c0.1,0,0.2-0.1,0.3-0.1c0.1,0,0.2,0,0.3,0.1
		c0.1,0,0.2,0.1,0.3,0.2c0.1,0.1,0.1,0.2,0.2,0.3c0,0.1,0.1,0.2,0.1,0.3c0,0.1,0,0.2-0.1,0.3c0,0.1-0.1,0.2-0.2,0.3
		c-0.1,0.1-0.2,0.1-0.3,0.2c-0.1,0-0.2,0.1-0.3,0.1c-0.2,0-0.4-0.1-0.6-0.2S385.4,347.7,385.4,347.5z"/>
	<path d="M394.8,348.2h-0.9v-12.9h0.9V348.2z"/>
</g>
<g enable-background="new    ">
	<path d="M207.2,370.1V361h0.5c0.2,0,0.2,0.1,0.3,0.2l0.1,1.3c0.2-0.2,0.4-0.5,0.6-0.7c0.2-0.2,0.4-0.4,0.6-0.5
		c0.2-0.1,0.5-0.3,0.7-0.3s0.5-0.1,0.8-0.1c0.7,0,1.2,0.2,1.6,0.6c0.4,0.4,0.7,0.9,0.8,1.6c0.1-0.4,0.3-0.7,0.5-1
		c0.2-0.3,0.4-0.5,0.7-0.7c0.3-0.2,0.5-0.3,0.8-0.4c0.3-0.1,0.6-0.1,0.9-0.1c0.4,0,0.9,0.1,1.2,0.2s0.7,0.4,0.9,0.7
		c0.3,0.3,0.4,0.7,0.6,1.1s0.2,0.9,0.2,1.5v5.8h-0.9v-5.8c0-0.9-0.2-1.6-0.6-2c-0.4-0.5-0.9-0.7-1.6-0.7c-0.3,0-0.6,0.1-0.9,0.2
		s-0.5,0.3-0.8,0.5s-0.4,0.5-0.5,0.9s-0.2,0.7-0.2,1.2v5.8h-0.9v-5.8c0-0.9-0.2-1.6-0.5-2s-0.9-0.7-1.5-0.7c-0.5,0-0.9,0.1-1.4,0.4
		s-0.8,0.7-1.1,1.2v6.9H207.2z"/>
	<path d="M227.5,370.1c-0.2,0-0.3-0.1-0.3-0.3l-0.1-1.2c-0.2,0.2-0.5,0.5-0.7,0.7c-0.2,0.2-0.5,0.4-0.8,0.5
		c-0.3,0.1-0.6,0.2-0.9,0.3c-0.3,0.1-0.7,0.1-1,0.1c-0.3,0-0.6,0-0.9-0.1c-0.3-0.1-0.6-0.2-0.8-0.4c-0.2-0.2-0.4-0.4-0.5-0.7
		c-0.1-0.3-0.2-0.6-0.2-1.1c0-0.4,0.1-0.7,0.3-1.1c0.2-0.3,0.6-0.6,1-0.9c0.5-0.2,1.1-0.4,1.8-0.6c0.7-0.1,1.6-0.2,2.6-0.3v-0.9
		c0-0.8-0.2-1.5-0.5-1.9c-0.4-0.5-0.9-0.7-1.6-0.7c-0.4,0-0.8,0.1-1.1,0.2c-0.3,0.1-0.6,0.3-0.8,0.4c-0.2,0.1-0.4,0.3-0.5,0.4
		c-0.1,0.1-0.2,0.2-0.3,0.2c-0.1,0-0.2-0.1-0.3-0.2l-0.2-0.3c0.5-0.5,1-0.8,1.5-1.1c0.5-0.2,1.1-0.4,1.8-0.4c0.5,0,0.9,0.1,1.3,0.2
		c0.4,0.2,0.7,0.4,0.9,0.7c0.2,0.3,0.4,0.6,0.5,1c0.1,0.4,0.2,0.9,0.2,1.4v5.9H227.5z M223.9,369.6c0.4,0,0.7,0,1-0.1
		c0.3-0.1,0.6-0.2,0.8-0.3c0.3-0.1,0.5-0.3,0.7-0.5s0.4-0.4,0.6-0.6v-2.4c-0.9,0-1.6,0.1-2.2,0.2s-1.1,0.3-1.5,0.4
		c-0.4,0.2-0.7,0.4-0.9,0.7c-0.2,0.3-0.3,0.5-0.3,0.9c0,0.3,0.1,0.6,0.2,0.8c0.1,0.2,0.2,0.4,0.4,0.5c0.2,0.1,0.4,0.2,0.6,0.3
		C223.4,369.6,223.6,369.6,223.9,369.6z"/>
	<path d="M231.6,356.8v8.1h0.4c0.1,0,0.2,0,0.2,0s0.2-0.1,0.3-0.2l3.6-3.5c0.1-0.1,0.1-0.1,0.2-0.2c0.1,0,0.2-0.1,0.3-0.1h0.8
		l-4,3.8c-0.1,0.1-0.1,0.1-0.2,0.2s-0.1,0.1-0.2,0.1c0.1,0,0.2,0.1,0.2,0.2c0.1,0.1,0.1,0.1,0.2,0.2l4.2,4.6h-0.8
		c-0.1,0-0.2,0-0.2-0.1c-0.1,0-0.1-0.1-0.2-0.2l-3.8-4.1c-0.1-0.1-0.2-0.2-0.3-0.2c-0.1,0-0.2-0.1-0.4-0.1h-0.4v4.6h-0.9v-13.3
		H231.6z"/>
	<path d="M242.5,360.8c0.5,0,1,0.1,1.4,0.3s0.8,0.4,1.1,0.8c0.3,0.3,0.6,0.8,0.7,1.2s0.3,1.1,0.3,1.7c0,0.1,0,0.2-0.1,0.3
		s-0.1,0.1-0.2,0.1h-6.6v0.2c0,0.7,0.1,1.3,0.2,1.8s0.4,1,0.7,1.3c0.3,0.4,0.6,0.6,1.1,0.8c0.4,0.2,0.9,0.3,1.4,0.3
		c0.5,0,0.9-0.1,1.2-0.2c0.3-0.1,0.6-0.2,0.8-0.3c0.2-0.1,0.4-0.2,0.5-0.3c0.1-0.1,0.2-0.2,0.3-0.2c0.1,0,0.1,0,0.2,0.1l0.2,0.3
		c-0.1,0.2-0.3,0.4-0.6,0.5c-0.2,0.2-0.5,0.3-0.8,0.4c-0.3,0.1-0.6,0.2-0.9,0.3c-0.3,0.1-0.7,0.1-1,0.1c-0.6,0-1.2-0.1-1.7-0.3
		c-0.5-0.2-0.9-0.5-1.3-0.9s-0.6-0.9-0.8-1.5c-0.2-0.6-0.3-1.3-0.3-2.1c0-0.7,0.1-1.3,0.3-1.8c0.2-0.6,0.5-1,0.8-1.4
		c0.3-0.4,0.8-0.7,1.3-0.9C241.2,361,241.8,360.8,242.5,360.8z M242.5,361.5c-0.5,0-0.9,0.1-1.3,0.2s-0.7,0.4-1,0.6
		c-0.3,0.3-0.5,0.6-0.7,1c-0.2,0.4-0.3,0.8-0.3,1.3h6c0-0.5-0.1-0.9-0.2-1.3c-0.1-0.4-0.3-0.7-0.6-1c-0.2-0.3-0.5-0.5-0.9-0.6
		C243.3,361.6,242.9,361.5,242.5,361.5z"/>
	<path d="M250.6,361h0.7c0.1,0,0.2,0,0.2,0.1c0.1,0,0.1,0.1,0.1,0.2l2.3,7.2c0,0.1,0.1,0.3,0.1,0.4c0,0.1,0,0.3,0.1,0.4
		c0-0.1,0.1-0.3,0.1-0.4s0.1-0.3,0.1-0.4l2.4-7.2c0-0.1,0.1-0.2,0.3-0.2h0.4c0.1,0,0.2,0.1,0.3,0.2l2.4,7.2c0.1,0.3,0.2,0.5,0.2,0.8
		c0-0.1,0.1-0.3,0.1-0.4s0.1-0.3,0.1-0.4l2.3-7.2c0-0.1,0.2-0.2,0.3-0.2h0.6l-3,9.1H260c-0.1,0-0.2-0.1-0.2-0.2l-2.5-7.4
		c0-0.1-0.1-0.2-0.1-0.3c0-0.1,0-0.2-0.1-0.3c0,0.1,0,0.2-0.1,0.3c0,0.1,0,0.2-0.1,0.3l-2.5,7.4c0,0.1-0.1,0.2-0.2,0.2h-0.6
		L250.6,361z"/>
	<path d="M268.8,360.8c0.5,0,1,0.1,1.4,0.3s0.8,0.4,1.1,0.8c0.3,0.3,0.6,0.8,0.7,1.2s0.3,1.1,0.3,1.7c0,0.1,0,0.2-0.1,0.3
		s-0.1,0.1-0.2,0.1h-6.6v0.2c0,0.7,0.1,1.3,0.2,1.8s0.4,1,0.7,1.3c0.3,0.4,0.6,0.6,1.1,0.8c0.4,0.2,0.9,0.3,1.4,0.3
		c0.5,0,0.9-0.1,1.2-0.2c0.3-0.1,0.6-0.2,0.8-0.3c0.2-0.1,0.4-0.2,0.5-0.3c0.1-0.1,0.2-0.2,0.3-0.2c0.1,0,0.1,0,0.2,0.1l0.2,0.3
		c-0.1,0.2-0.3,0.4-0.6,0.5c-0.2,0.2-0.5,0.3-0.8,0.4c-0.3,0.1-0.6,0.2-0.9,0.3c-0.3,0.1-0.7,0.1-1,0.1c-0.6,0-1.2-0.1-1.7-0.3
		c-0.5-0.2-0.9-0.5-1.3-0.9s-0.6-0.9-0.8-1.5c-0.2-0.6-0.3-1.3-0.3-2.1c0-0.7,0.1-1.3,0.3-1.8c0.2-0.6,0.5-1,0.8-1.4
		c0.3-0.4,0.8-0.7,1.3-0.9C267.5,361,268.1,360.8,268.8,360.8z M268.8,361.5c-0.5,0-0.9,0.1-1.3,0.2s-0.7,0.4-1,0.6
		c-0.3,0.3-0.5,0.6-0.7,1c-0.2,0.4-0.3,0.8-0.3,1.3h6c0-0.5-0.1-0.9-0.2-1.3c-0.1-0.4-0.3-0.7-0.6-1c-0.2-0.3-0.5-0.5-0.9-0.6
		C269.6,361.6,269.2,361.5,268.8,361.5z"/>
	<path d="M274.8,370.1v-13.3h0.9l0,5.8c0.4-0.5,0.9-1,1.4-1.3s1.1-0.5,1.8-0.5c1.1,0,2,0.4,2.6,1.2c0.6,0.8,0.9,1.9,0.9,3.5
		c0,0.7-0.1,1.3-0.3,1.9c-0.2,0.6-0.4,1.1-0.8,1.5c-0.3,0.4-0.8,0.8-1.2,1c-0.5,0.2-1.1,0.4-1.7,0.4c-0.6,0-1.2-0.1-1.6-0.4
		c-0.5-0.2-0.9-0.6-1.2-1.1l-0.1,1.1c0,0.2-0.1,0.2-0.2,0.2H274.8z M278.6,361.5c-0.6,0-1.1,0.2-1.6,0.5c-0.5,0.3-0.9,0.7-1.3,1.3
		v4.8c0.3,0.5,0.7,0.9,1.2,1.1s0.9,0.3,1.5,0.3c0.5,0,1-0.1,1.4-0.3c0.4-0.2,0.7-0.5,1-0.8c0.3-0.4,0.5-0.8,0.6-1.3s0.2-1,0.2-1.6
		c0-1.4-0.2-2.3-0.7-3C280.2,361.9,279.5,361.5,278.6,361.5z"/>
	<path d="M289.6,362.1c0,0.1-0.1,0.1-0.2,0.1c-0.1,0-0.2,0-0.3-0.1s-0.2-0.2-0.4-0.3s-0.4-0.2-0.6-0.3s-0.6-0.1-0.9-0.1
		c-0.3,0-0.6,0-0.9,0.1c-0.3,0.1-0.5,0.2-0.7,0.4c-0.2,0.2-0.3,0.3-0.4,0.6c-0.1,0.2-0.2,0.4-0.2,0.7c0,0.3,0.1,0.5,0.2,0.7
		c0.1,0.2,0.3,0.3,0.6,0.5c0.2,0.1,0.5,0.2,0.8,0.3c0.3,0.1,0.6,0.2,0.9,0.3c0.3,0.1,0.6,0.2,0.9,0.3c0.3,0.1,0.6,0.3,0.8,0.4
		c0.2,0.2,0.4,0.4,0.6,0.6s0.2,0.6,0.2,0.9c0,0.4-0.1,0.8-0.2,1.1s-0.4,0.6-0.6,0.9c-0.3,0.2-0.6,0.4-1,0.6
		c-0.4,0.1-0.8,0.2-1.4,0.2c-0.6,0-1.2-0.1-1.7-0.3c-0.5-0.2-0.9-0.5-1.2-0.8l0.2-0.3c0,0,0.1-0.1,0.1-0.1c0,0,0.1,0,0.2,0
		c0.1,0,0.2,0,0.3,0.1c0.1,0.1,0.3,0.2,0.5,0.3s0.4,0.2,0.7,0.3c0.3,0.1,0.6,0.1,1,0.1c0.4,0,0.7-0.1,1-0.2c0.3-0.1,0.5-0.3,0.7-0.4
		s0.3-0.4,0.4-0.6c0.1-0.2,0.2-0.5,0.2-0.8c0-0.3-0.1-0.6-0.2-0.8c-0.1-0.2-0.3-0.4-0.6-0.5c-0.2-0.1-0.5-0.3-0.8-0.4
		c-0.3-0.1-0.6-0.2-0.9-0.3c-0.3-0.1-0.6-0.2-0.9-0.3s-0.6-0.3-0.8-0.4s-0.4-0.4-0.6-0.6c-0.1-0.3-0.2-0.6-0.2-0.9
		c0-0.3,0.1-0.6,0.2-0.9c0.1-0.3,0.3-0.6,0.6-0.8c0.3-0.2,0.6-0.4,0.9-0.5c0.4-0.1,0.8-0.2,1.3-0.2c0.6,0,1,0.1,1.5,0.2
		c0.4,0.2,0.8,0.4,1.2,0.7L289.6,362.1z"/>
	<path d="M294,357.9c0,0.1,0,0.2-0.1,0.3c0,0.1-0.1,0.2-0.2,0.3c-0.1,0.1-0.2,0.1-0.3,0.2c-0.1,0-0.2,0.1-0.3,0.1
		c-0.1,0-0.2,0-0.3-0.1c-0.1,0-0.2-0.1-0.3-0.2c-0.1-0.1-0.1-0.2-0.2-0.3c0-0.1-0.1-0.2-0.1-0.3s0-0.2,0.1-0.3s0.1-0.2,0.2-0.3
		c0.1-0.1,0.2-0.1,0.3-0.2c0.1,0,0.2-0.1,0.3-0.1c0.1,0,0.2,0,0.3,0.1c0.1,0,0.2,0.1,0.3,0.2c0.1,0.1,0.1,0.2,0.2,0.3
		C294,357.6,294,357.7,294,357.9z M293.6,361v9.1h-0.9V361H293.6z"/>
	<path d="M299.3,370.2c-0.6,0-1.1-0.2-1.4-0.5s-0.5-0.9-0.5-1.6v-6.2h-1.3c-0.1,0-0.1,0-0.2-0.1s-0.1-0.1-0.1-0.2v-0.3l1.6-0.1
		l0.2-3.2c0-0.1,0-0.1,0.1-0.1c0,0,0.1-0.1,0.2-0.1h0.4v3.5h2.9v0.6h-2.9v6.2c0,0.2,0,0.5,0.1,0.6c0.1,0.2,0.2,0.3,0.3,0.4
		c0.1,0.1,0.2,0.2,0.4,0.3c0.2,0.1,0.3,0.1,0.5,0.1c0.2,0,0.4,0,0.6-0.1c0.2-0.1,0.3-0.1,0.4-0.2s0.2-0.1,0.3-0.2
		c0.1-0.1,0.1-0.1,0.2-0.1c0,0,0.1,0,0.1,0.1l0.2,0.4c-0.2,0.3-0.5,0.5-0.9,0.6S299.7,370.2,299.3,370.2z"/>
	<path d="M306.8,360.8c0.5,0,1,0.1,1.4,0.3s0.8,0.4,1.1,0.8c0.3,0.3,0.6,0.8,0.7,1.2s0.3,1.1,0.3,1.7c0,0.1,0,0.2-0.1,0.3
		s-0.1,0.1-0.2,0.1h-6.6v0.2c0,0.7,0.1,1.3,0.2,1.8s0.4,1,0.7,1.3c0.3,0.4,0.6,0.6,1.1,0.8c0.4,0.2,0.9,0.3,1.4,0.3
		c0.5,0,0.9-0.1,1.2-0.2c0.3-0.1,0.6-0.2,0.8-0.3c0.2-0.1,0.4-0.2,0.5-0.3c0.1-0.1,0.2-0.2,0.3-0.2c0.1,0,0.1,0,0.2,0.1l0.2,0.3
		c-0.1,0.2-0.3,0.4-0.6,0.5c-0.2,0.2-0.5,0.3-0.8,0.4c-0.3,0.1-0.6,0.2-0.9,0.3c-0.3,0.1-0.7,0.1-1,0.1c-0.6,0-1.2-0.1-1.7-0.3
		c-0.5-0.2-0.9-0.5-1.3-0.9s-0.6-0.9-0.8-1.5c-0.2-0.6-0.3-1.3-0.3-2.1c0-0.7,0.1-1.3,0.3-1.8c0.2-0.6,0.5-1,0.8-1.4
		c0.3-0.4,0.8-0.7,1.3-0.9C305.5,361,306.1,360.8,306.8,360.8z M306.8,361.5c-0.5,0-0.9,0.1-1.3,0.2s-0.7,0.4-1,0.6
		c-0.3,0.3-0.5,0.6-0.7,1c-0.2,0.4-0.3,0.8-0.3,1.3h6c0-0.5-0.1-0.9-0.2-1.3c-0.1-0.4-0.3-0.7-0.6-1c-0.2-0.3-0.5-0.5-0.9-0.6
		C307.6,361.6,307.2,361.5,306.8,361.5z"/>
	<path d="M317.7,362.1c0,0.1-0.1,0.1-0.2,0.1c-0.1,0-0.2,0-0.3-0.1s-0.2-0.2-0.4-0.3c-0.2-0.1-0.4-0.2-0.6-0.3
		c-0.3-0.1-0.6-0.1-0.9-0.1c-0.3,0-0.6,0-0.9,0.1c-0.3,0.1-0.5,0.2-0.7,0.4c-0.2,0.2-0.3,0.3-0.4,0.6c-0.1,0.2-0.2,0.4-0.2,0.7
		c0,0.3,0.1,0.5,0.2,0.7s0.3,0.3,0.6,0.5s0.5,0.2,0.8,0.3c0.3,0.1,0.6,0.2,0.9,0.3s0.6,0.2,0.9,0.3c0.3,0.1,0.6,0.3,0.8,0.4
		c0.2,0.2,0.4,0.4,0.6,0.6c0.1,0.3,0.2,0.6,0.2,0.9c0,0.4-0.1,0.8-0.2,1.1c-0.1,0.3-0.4,0.6-0.6,0.9c-0.3,0.2-0.6,0.4-1,0.6
		c-0.4,0.1-0.8,0.2-1.4,0.2c-0.6,0-1.2-0.1-1.7-0.3s-0.9-0.5-1.2-0.8l0.2-0.3c0,0,0.1-0.1,0.1-0.1c0,0,0.1,0,0.2,0
		c0.1,0,0.2,0,0.3,0.1c0.1,0.1,0.3,0.2,0.5,0.3s0.4,0.2,0.7,0.3c0.3,0.1,0.6,0.1,1,0.1c0.4,0,0.7-0.1,1-0.2s0.5-0.3,0.7-0.4
		c0.2-0.2,0.3-0.4,0.4-0.6c0.1-0.2,0.2-0.5,0.2-0.8c0-0.3-0.1-0.6-0.2-0.8c-0.1-0.2-0.3-0.4-0.6-0.5c-0.2-0.1-0.5-0.3-0.8-0.4
		c-0.3-0.1-0.6-0.2-0.9-0.3c-0.3-0.1-0.6-0.2-0.9-0.3c-0.3-0.1-0.6-0.3-0.8-0.4c-0.2-0.2-0.4-0.4-0.6-0.6c-0.1-0.3-0.2-0.6-0.2-0.9
		c0-0.3,0.1-0.6,0.2-0.9c0.1-0.3,0.3-0.6,0.6-0.8c0.3-0.2,0.6-0.4,0.9-0.5s0.8-0.2,1.3-0.2c0.6,0,1,0.1,1.5,0.2
		c0.4,0.2,0.8,0.4,1.2,0.7L317.7,362.1z"/>
	<path d="M329.8,370.1c-0.2,0-0.3-0.1-0.3-0.3l-0.1-1.2c-0.2,0.2-0.5,0.5-0.7,0.7c-0.2,0.2-0.5,0.4-0.8,0.5
		c-0.3,0.1-0.6,0.2-0.9,0.3c-0.3,0.1-0.7,0.1-1,0.1c-0.3,0-0.6,0-0.9-0.1c-0.3-0.1-0.6-0.2-0.8-0.4c-0.2-0.2-0.4-0.4-0.5-0.7
		c-0.1-0.3-0.2-0.6-0.2-1.1c0-0.4,0.1-0.7,0.3-1.1c0.2-0.3,0.6-0.6,1-0.9c0.5-0.2,1.1-0.4,1.8-0.6c0.7-0.1,1.6-0.2,2.6-0.3v-0.9
		c0-0.8-0.2-1.5-0.5-1.9c-0.4-0.5-0.9-0.7-1.6-0.7c-0.4,0-0.8,0.1-1.1,0.2c-0.3,0.1-0.6,0.3-0.8,0.4c-0.2,0.1-0.4,0.3-0.5,0.4
		c-0.1,0.1-0.2,0.2-0.3,0.2c-0.1,0-0.2-0.1-0.3-0.2l-0.2-0.3c0.5-0.5,1-0.8,1.5-1.1c0.5-0.2,1.1-0.4,1.8-0.4c0.5,0,0.9,0.1,1.3,0.2
		s0.7,0.4,0.9,0.7s0.4,0.6,0.5,1c0.1,0.4,0.2,0.9,0.2,1.4v5.9H329.8z M326.2,369.6c0.4,0,0.7,0,1-0.1c0.3-0.1,0.6-0.2,0.8-0.3
		c0.3-0.1,0.5-0.3,0.7-0.5c0.2-0.2,0.4-0.4,0.6-0.6v-2.4c-0.9,0-1.6,0.1-2.2,0.2s-1.1,0.3-1.5,0.4c-0.4,0.2-0.7,0.4-0.9,0.7
		c-0.2,0.3-0.3,0.5-0.3,0.9c0,0.3,0,0.6,0.2,0.8c0.1,0.2,0.2,0.4,0.4,0.5s0.4,0.2,0.6,0.3C325.7,369.6,326,369.6,326.2,369.6z"/>
	<path d="M332.9,370.1V361h0.5c0.2,0,0.2,0.1,0.3,0.2l0.1,1.4c0.4-0.5,0.9-0.9,1.4-1.3s1.2-0.5,1.8-0.5c0.5,0,0.9,0.1,1.3,0.2
		c0.4,0.2,0.7,0.4,0.9,0.7c0.2,0.3,0.4,0.7,0.6,1.1c0.1,0.4,0.2,0.9,0.2,1.4v5.8h-0.9v-5.8c0-0.9-0.2-1.5-0.6-2
		c-0.4-0.5-1-0.7-1.8-0.7c-0.6,0-1.2,0.2-1.7,0.5c-0.5,0.3-1,0.7-1.4,1.3v6.8H332.9z"/>
	<path d="M349.2,370.1c-0.2,0-0.2-0.1-0.3-0.2l-0.1-1.4c-0.4,0.5-0.9,1-1.4,1.3s-1.1,0.5-1.8,0.5c-1.1,0-2-0.4-2.6-1.2
		c-0.6-0.8-0.9-1.9-0.9-3.5c0-0.7,0.1-1.3,0.3-1.9s0.4-1.1,0.8-1.5c0.3-0.4,0.8-0.8,1.2-1c0.5-0.2,1.1-0.4,1.7-0.4
		c0.6,0,1.1,0.1,1.6,0.3s0.8,0.6,1.2,1v-5.4h0.9v13.3H349.2z M345.9,369.5c0.6,0,1.1-0.2,1.6-0.5c0.5-0.3,0.9-0.7,1.3-1.3v-4.8
		c-0.4-0.5-0.7-0.9-1.2-1.1c-0.4-0.2-0.9-0.3-1.4-0.3s-1,0.1-1.4,0.3c-0.4,0.2-0.7,0.5-1,0.8c-0.3,0.4-0.5,0.8-0.6,1.3
		c-0.1,0.5-0.2,1-0.2,1.6c0,1.4,0.2,2.3,0.7,3C344.3,369.2,345,369.5,345.9,369.5z"/>
	<path d="M356.3,370.1V361h0.5c0.2,0,0.2,0.1,0.3,0.2l0.1,1.3c0.2-0.2,0.4-0.5,0.6-0.7s0.4-0.4,0.6-0.5c0.2-0.1,0.5-0.3,0.7-0.3
		s0.5-0.1,0.8-0.1c0.7,0,1.2,0.2,1.6,0.6c0.4,0.4,0.7,0.9,0.8,1.6c0.1-0.4,0.3-0.7,0.5-1c0.2-0.3,0.4-0.5,0.7-0.7s0.5-0.3,0.8-0.4
		c0.3-0.1,0.6-0.1,0.9-0.1c0.5,0,0.9,0.1,1.2,0.2s0.7,0.4,0.9,0.7c0.3,0.3,0.4,0.7,0.6,1.1s0.2,0.9,0.2,1.5v5.8h-0.9v-5.8
		c0-0.9-0.2-1.6-0.6-2c-0.4-0.5-0.9-0.7-1.6-0.7c-0.3,0-0.6,0.1-0.9,0.2s-0.5,0.3-0.8,0.5c-0.2,0.2-0.4,0.5-0.5,0.9
		s-0.2,0.7-0.2,1.2v5.8h-0.9v-5.8c0-0.9-0.2-1.6-0.5-2c-0.4-0.5-0.9-0.7-1.5-0.7c-0.5,0-1,0.1-1.4,0.4s-0.8,0.7-1.1,1.2v6.9H356.3z"
		/>
	<path d="M374.3,360.8c0.7,0,1.2,0.1,1.7,0.3c0.5,0.2,0.9,0.5,1.3,0.9c0.4,0.4,0.6,0.9,0.8,1.5c0.2,0.6,0.3,1.2,0.3,1.9
		c0,0.7-0.1,1.4-0.3,1.9c-0.2,0.6-0.5,1.1-0.8,1.5c-0.4,0.4-0.8,0.7-1.3,0.9c-0.5,0.2-1.1,0.3-1.7,0.3s-1.2-0.1-1.7-0.3
		c-0.5-0.2-0.9-0.5-1.3-0.9c-0.4-0.4-0.6-0.9-0.8-1.5s-0.3-1.2-0.3-1.9c0-0.7,0.1-1.4,0.3-1.9s0.5-1.1,0.8-1.5
		c0.4-0.4,0.8-0.7,1.3-0.9C373,361,373.6,360.8,374.3,360.8z M374.3,369.5c0.5,0,1-0.1,1.4-0.3c0.4-0.2,0.7-0.5,1-0.8
		s0.5-0.8,0.6-1.3s0.2-1,0.2-1.6c0-0.6-0.1-1.1-0.2-1.6s-0.3-0.9-0.6-1.3c-0.3-0.3-0.6-0.6-1-0.8c-0.4-0.2-0.9-0.3-1.4-0.3
		s-1,0.1-1.4,0.3c-0.4,0.2-0.7,0.5-1,0.8c-0.3,0.4-0.5,0.8-0.6,1.3c-0.1,0.5-0.2,1-0.2,1.6c0,0.6,0.1,1.2,0.2,1.6
		c0.1,0.5,0.3,0.9,0.6,1.3c0.3,0.3,0.6,0.6,1,0.8C373.3,369.4,373.7,369.5,374.3,369.5z"/>
	<path d="M380.8,370.1v-13.3h0.9l0,5.8c0.4-0.5,0.9-1,1.4-1.3s1.1-0.5,1.8-0.5c1.1,0,2,0.4,2.6,1.2c0.6,0.8,0.9,1.9,0.9,3.5
		c0,0.7-0.1,1.3-0.3,1.9c-0.2,0.6-0.4,1.1-0.8,1.5c-0.3,0.4-0.8,0.8-1.2,1c-0.5,0.2-1.1,0.4-1.7,0.4c-0.6,0-1.2-0.1-1.6-0.4
		c-0.5-0.2-0.8-0.6-1.2-1.1l-0.1,1.1c0,0.2-0.1,0.2-0.2,0.2H380.8z M384.6,361.5c-0.6,0-1.1,0.2-1.6,0.5c-0.5,0.3-0.9,0.7-1.3,1.3
		v4.8c0.3,0.5,0.7,0.9,1.2,1.1c0.4,0.2,0.9,0.3,1.5,0.3c0.5,0,1-0.1,1.4-0.3c0.4-0.2,0.7-0.5,1-0.8c0.3-0.4,0.5-0.8,0.6-1.3
		c0.1-0.5,0.2-1,0.2-1.6c0-1.4-0.2-2.3-0.7-3C386.2,361.9,385.5,361.5,384.6,361.5z"/>
	<path d="M392.2,357.9c0,0.1,0,0.2-0.1,0.3c0,0.1-0.1,0.2-0.2,0.3c-0.1,0.1-0.2,0.1-0.3,0.2c-0.1,0-0.2,0.1-0.3,0.1
		c-0.1,0-0.2,0-0.3-0.1c-0.1,0-0.2-0.1-0.3-0.2c-0.1-0.1-0.1-0.2-0.2-0.3c0-0.1-0.1-0.2-0.1-0.3s0-0.2,0.1-0.3
		c0-0.1,0.1-0.2,0.2-0.3c0.1-0.1,0.2-0.1,0.3-0.2c0.1,0,0.2-0.1,0.3-0.1c0.1,0,0.2,0,0.3,0.1c0.1,0,0.2,0.1,0.3,0.2
		c0.1,0.1,0.1,0.2,0.2,0.3C392.1,357.6,392.2,357.7,392.2,357.9z M391.8,361v9.1h-0.9V361H391.8z"/>
	<path d="M396.1,356.8v13.3h-0.9v-13.3H396.1z"/>
	<path d="M402.8,360.8c0.5,0,1,0.1,1.4,0.3c0.4,0.2,0.8,0.4,1.1,0.8s0.6,0.8,0.7,1.2s0.3,1.1,0.3,1.7c0,0.1,0,0.2-0.1,0.3
		s-0.1,0.1-0.2,0.1h-6.6v0.2c0,0.7,0.1,1.3,0.2,1.8s0.4,1,0.7,1.3c0.3,0.4,0.6,0.6,1.1,0.8s0.9,0.3,1.4,0.3c0.5,0,0.9-0.1,1.2-0.2
		c0.3-0.1,0.6-0.2,0.8-0.3s0.4-0.2,0.5-0.3c0.1-0.1,0.2-0.2,0.3-0.2c0.1,0,0.1,0,0.2,0.1l0.2,0.3c-0.1,0.2-0.3,0.4-0.6,0.5
		s-0.5,0.3-0.8,0.4c-0.3,0.1-0.6,0.2-0.9,0.3c-0.3,0.1-0.7,0.1-1,0.1c-0.6,0-1.2-0.1-1.7-0.3c-0.5-0.2-0.9-0.5-1.3-0.9
		s-0.6-0.9-0.8-1.5c-0.2-0.6-0.3-1.3-0.3-2.1c0-0.7,0.1-1.3,0.3-1.8c0.2-0.6,0.5-1,0.8-1.4s0.8-0.7,1.3-0.9
		C401.5,361,402.1,360.8,402.8,360.8z M402.8,361.5c-0.5,0-0.9,0.1-1.3,0.2s-0.7,0.4-1,0.6c-0.3,0.3-0.5,0.6-0.7,1
		c-0.2,0.4-0.3,0.8-0.3,1.3h6c0-0.5-0.1-0.9-0.2-1.3c-0.1-0.4-0.3-0.7-0.6-1c-0.2-0.3-0.5-0.5-0.9-0.6
		C403.6,361.6,403.2,361.5,402.8,361.5z"/>
</g>
<g enable-background="new    ">
	<path d="M251,392c-0.2,0-0.3-0.1-0.3-0.3l-0.1-1.2c-0.2,0.2-0.5,0.5-0.7,0.7c-0.2,0.2-0.5,0.4-0.8,0.5c-0.3,0.1-0.6,0.2-0.9,0.3
		c-0.3,0.1-0.7,0.1-1,0.1c-0.3,0-0.6,0-0.9-0.1c-0.3-0.1-0.6-0.2-0.8-0.4c-0.2-0.2-0.4-0.4-0.5-0.7c-0.1-0.3-0.2-0.6-0.2-1.1
		c0-0.4,0.1-0.7,0.3-1.1c0.2-0.3,0.6-0.6,1-0.9c0.5-0.2,1.1-0.4,1.8-0.6c0.7-0.1,1.6-0.2,2.6-0.3v-0.9c0-0.8-0.2-1.5-0.5-1.9
		c-0.4-0.5-0.9-0.7-1.6-0.7c-0.4,0-0.8,0.1-1.1,0.2c-0.3,0.1-0.6,0.3-0.8,0.4c-0.2,0.1-0.4,0.3-0.5,0.4c-0.1,0.1-0.2,0.2-0.3,0.2
		c-0.1,0-0.2-0.1-0.3-0.2l-0.2-0.3c0.5-0.5,1-0.8,1.5-1.1c0.5-0.2,1.1-0.4,1.8-0.4c0.5,0,0.9,0.1,1.3,0.2c0.4,0.2,0.7,0.4,0.9,0.7
		c0.2,0.3,0.4,0.6,0.5,1c0.1,0.4,0.2,0.9,0.2,1.4v5.9H251z M247.4,391.5c0.4,0,0.7,0,1-0.1c0.3-0.1,0.6-0.2,0.8-0.3
		c0.3-0.1,0.5-0.3,0.7-0.5s0.4-0.4,0.6-0.6v-2.4c-0.9,0-1.6,0.1-2.2,0.2s-1.1,0.3-1.5,0.4c-0.4,0.2-0.7,0.4-0.9,0.7
		c-0.2,0.3-0.3,0.5-0.3,0.9c0,0.3,0.1,0.6,0.2,0.8c0.1,0.2,0.2,0.4,0.4,0.5c0.2,0.1,0.4,0.2,0.6,0.3
		C246.9,391.5,247.1,391.5,247.4,391.5z"/>
	<path d="M254.1,395.2v-12.3h0.5c0.1,0,0.1,0,0.2,0c0,0,0.1,0.1,0.1,0.2l0.1,1.4c0.4-0.5,0.9-1,1.4-1.3s1.1-0.5,1.8-0.5
		c1.1,0,2,0.4,2.6,1.2c0.6,0.8,0.9,1.9,0.9,3.5c0,0.7-0.1,1.3-0.3,1.9s-0.4,1.1-0.8,1.5c-0.3,0.4-0.7,0.8-1.2,1
		c-0.5,0.2-1.1,0.4-1.7,0.4c-0.6,0-1.2-0.1-1.6-0.3c-0.5-0.2-0.8-0.6-1.2-1v4.4H254.1z M257.9,383.4c-0.6,0-1.1,0.2-1.6,0.5
		s-0.9,0.8-1.3,1.3v4.8c0.3,0.5,0.7,0.9,1.2,1.1c0.4,0.2,0.9,0.3,1.4,0.3c0.5,0,1-0.1,1.4-0.3c0.4-0.2,0.7-0.5,1-0.8
		s0.5-0.8,0.6-1.3c0.1-0.5,0.2-1,0.2-1.6c0-1.4-0.2-2.3-0.7-3C259.6,383.8,258.8,383.4,257.9,383.4z"/>
	<path d="M263.9,395.2v-12.3h0.5c0.1,0,0.1,0,0.2,0c0,0,0.1,0.1,0.1,0.2l0.1,1.4c0.4-0.5,0.9-1,1.4-1.3s1.1-0.5,1.8-0.5
		c1.1,0,2,0.4,2.6,1.2c0.6,0.8,0.9,1.9,0.9,3.5c0,0.7-0.1,1.3-0.3,1.9s-0.4,1.1-0.8,1.5c-0.3,0.4-0.7,0.8-1.2,1
		c-0.5,0.2-1.1,0.4-1.7,0.4c-0.6,0-1.2-0.1-1.6-0.3c-0.5-0.2-0.8-0.6-1.2-1v4.4H263.9z M267.7,383.4c-0.6,0-1.1,0.2-1.6,0.5
		s-0.9,0.8-1.3,1.3v4.8c0.3,0.5,0.7,0.9,1.2,1.1c0.4,0.2,0.9,0.3,1.4,0.3c0.5,0,1-0.1,1.4-0.3c0.4-0.2,0.7-0.5,1-0.8
		s0.5-0.8,0.6-1.3c0.1-0.5,0.2-1,0.2-1.6c0-1.4-0.2-2.3-0.7-3C269.3,383.8,268.6,383.4,267.7,383.4z"/>
	<path d="M278.6,384c0,0.1-0.1,0.1-0.2,0.1c-0.1,0-0.2,0-0.3-0.1s-0.2-0.2-0.4-0.3s-0.4-0.2-0.6-0.3s-0.6-0.1-0.9-0.1
		c-0.3,0-0.6,0-0.9,0.1c-0.3,0.1-0.5,0.2-0.7,0.4c-0.2,0.2-0.3,0.3-0.4,0.6c-0.1,0.2-0.2,0.4-0.2,0.7c0,0.3,0.1,0.5,0.2,0.7
		c0.1,0.2,0.3,0.3,0.6,0.5c0.2,0.1,0.5,0.2,0.8,0.3c0.3,0.1,0.6,0.2,0.9,0.3c0.3,0.1,0.6,0.2,0.9,0.3c0.3,0.1,0.6,0.3,0.8,0.4
		c0.2,0.2,0.4,0.4,0.6,0.6s0.2,0.6,0.2,0.9c0,0.4-0.1,0.8-0.2,1.1s-0.4,0.6-0.6,0.9c-0.3,0.2-0.6,0.4-1,0.6
		c-0.4,0.1-0.8,0.2-1.4,0.2c-0.6,0-1.2-0.1-1.7-0.3c-0.5-0.2-0.9-0.5-1.2-0.8l0.2-0.3c0,0,0.1-0.1,0.1-0.1c0,0,0.1,0,0.2,0
		c0.1,0,0.2,0,0.3,0.1c0.1,0.1,0.3,0.2,0.5,0.3s0.4,0.2,0.7,0.3c0.3,0.1,0.6,0.1,1,0.1c0.4,0,0.7-0.1,1-0.2c0.3-0.1,0.5-0.3,0.7-0.4
		s0.3-0.4,0.4-0.6c0.1-0.2,0.2-0.5,0.2-0.8c0-0.3-0.1-0.6-0.2-0.8c-0.1-0.2-0.3-0.4-0.6-0.5c-0.2-0.1-0.5-0.3-0.8-0.4
		c-0.3-0.1-0.6-0.2-0.9-0.3c-0.3-0.1-0.6-0.2-0.9-0.3s-0.6-0.3-0.8-0.4s-0.4-0.4-0.6-0.6c-0.1-0.3-0.2-0.6-0.2-0.9
		c0-0.3,0.1-0.6,0.2-0.9c0.1-0.3,0.3-0.6,0.6-0.8c0.3-0.2,0.6-0.4,0.9-0.5c0.4-0.1,0.8-0.2,1.3-0.2c0.6,0,1,0.1,1.5,0.2
		c0.4,0.2,0.8,0.4,1.2,0.7L278.6,384z"/>
	<path d="M281,391.2c0-0.2,0.1-0.4,0.2-0.5c0.1-0.2,0.3-0.2,0.6-0.2c0.3,0,0.5,0.1,0.6,0.3c0.1,0.2,0.2,0.4,0.2,0.7
		c0,0.2,0,0.5-0.1,0.8c-0.1,0.3-0.2,0.5-0.3,0.8c-0.1,0.2-0.3,0.5-0.4,0.7c-0.2,0.2-0.4,0.4-0.6,0.6l-0.1-0.1c0,0-0.1-0.1-0.1-0.2
		c0,0,0-0.1,0-0.1c0,0,0-0.1,0.1-0.1c0.1-0.1,0.1-0.2,0.2-0.3c0.1-0.1,0.2-0.3,0.3-0.4s0.2-0.3,0.3-0.5c0.1-0.2,0.1-0.4,0.2-0.6
		c0,0-0.1,0-0.1,0c0,0-0.1,0-0.2,0c-0.2,0-0.4-0.1-0.6-0.2C281.1,391.6,281,391.4,281,391.2z"/>
	<path d="M293.8,391.3c0.6,0,1.2-0.1,1.7-0.3c0.5-0.2,0.9-0.5,1.2-0.9c0.3-0.4,0.6-0.8,0.8-1.4c0.2-0.5,0.3-1.1,0.3-1.7v-8h0.9v8
		c0,0.7-0.1,1.4-0.3,2c-0.2,0.6-0.5,1.2-1,1.6c-0.4,0.5-0.9,0.8-1.5,1.1c-0.6,0.3-1.3,0.4-2,0.4c-0.8,0-1.4-0.1-2-0.4
		c-0.6-0.3-1.1-0.6-1.5-1.1c-0.4-0.5-0.7-1-1-1.6c-0.2-0.6-0.3-1.3-0.3-2v-8h0.9v8c0,0.6,0.1,1.2,0.3,1.7c0.2,0.5,0.4,1,0.8,1.4
		c0.3,0.4,0.8,0.7,1.2,0.9C292.6,391.2,293.2,391.3,293.8,391.3z"/>
	<path d="M305.3,385.3l-4.5-6.3h0.9c0.1,0,0.1,0,0.2,0.1c0,0,0.1,0.1,0.1,0.1l3.9,5.7c0,0,0-0.1,0.1-0.1s0-0.1,0.1-0.1l3.8-5.4
		c0,0,0.1-0.1,0.1-0.1c0,0,0.1-0.1,0.2-0.1h0.9l-4.5,6.2l4.6,6.7h-0.9c-0.1,0-0.2,0-0.2-0.1s-0.1-0.1-0.1-0.2l-4.1-6
		c0,0.1-0.1,0.2-0.1,0.3l-4,5.7c0,0.1-0.1,0.1-0.1,0.2s-0.1,0.1-0.2,0.1h-0.8L305.3,385.3z"/>
	<path d="M322.3,392c-0.2,0-0.3-0.1-0.3-0.3l-0.1-1.2c-0.2,0.2-0.5,0.5-0.7,0.7c-0.2,0.2-0.5,0.4-0.8,0.5s-0.6,0.2-0.9,0.3
		c-0.3,0.1-0.7,0.1-1,0.1c-0.3,0-0.6,0-0.9-0.1c-0.3-0.1-0.6-0.2-0.8-0.4c-0.2-0.2-0.4-0.4-0.5-0.7s-0.2-0.6-0.2-1.1
		c0-0.4,0.1-0.7,0.3-1.1c0.2-0.3,0.6-0.6,1-0.9c0.5-0.2,1.1-0.4,1.8-0.6c0.7-0.1,1.6-0.2,2.6-0.3v-0.9c0-0.8-0.2-1.5-0.5-1.9
		s-0.9-0.7-1.6-0.7c-0.4,0-0.8,0.1-1.1,0.2c-0.3,0.1-0.6,0.3-0.8,0.4c-0.2,0.1-0.4,0.3-0.5,0.4s-0.2,0.2-0.3,0.2
		c-0.1,0-0.2-0.1-0.3-0.2l-0.2-0.3c0.5-0.5,1-0.8,1.5-1.1c0.5-0.2,1.1-0.4,1.8-0.4c0.5,0,0.9,0.1,1.3,0.2c0.4,0.2,0.7,0.4,0.9,0.7
		c0.2,0.3,0.4,0.6,0.5,1c0.1,0.4,0.2,0.9,0.2,1.4v5.9H322.3z M318.6,391.5c0.4,0,0.7,0,1-0.1c0.3-0.1,0.6-0.2,0.8-0.3
		c0.3-0.1,0.5-0.3,0.7-0.5c0.2-0.2,0.4-0.4,0.6-0.6v-2.4c-0.9,0-1.6,0.1-2.2,0.2s-1.1,0.3-1.5,0.4s-0.7,0.4-0.9,0.7
		c-0.2,0.3-0.3,0.5-0.3,0.9c0,0.3,0.1,0.6,0.2,0.8c0.1,0.2,0.2,0.4,0.4,0.5c0.2,0.1,0.4,0.2,0.6,0.3
		C318.2,391.5,318.4,391.5,318.6,391.5z"/>
	<path d="M325.4,392v-9.1h0.5c0.2,0,0.2,0.1,0.3,0.2l0.1,1.4c0.4-0.5,0.9-0.9,1.4-1.3s1.2-0.5,1.8-0.5c0.5,0,0.9,0.1,1.3,0.2
		c0.4,0.2,0.7,0.4,0.9,0.7c0.2,0.3,0.4,0.7,0.6,1.1s0.2,0.9,0.2,1.4v5.8h-0.9v-5.8c0-0.9-0.2-1.5-0.6-2c-0.4-0.5-1-0.7-1.8-0.7
		c-0.6,0-1.2,0.2-1.7,0.5c-0.5,0.3-1,0.7-1.4,1.3v6.8H325.4z"/>
	<path d="M341.7,392c-0.2,0-0.2-0.1-0.3-0.2l-0.1-1.4c-0.4,0.5-0.9,1-1.4,1.3c-0.5,0.3-1.1,0.5-1.8,0.5c-1.1,0-2-0.4-2.6-1.2
		c-0.6-0.8-0.9-1.9-0.9-3.5c0-0.7,0.1-1.3,0.3-1.9s0.4-1.1,0.8-1.5s0.8-0.8,1.2-1c0.5-0.2,1.1-0.4,1.7-0.4c0.6,0,1.1,0.1,1.6,0.3
		c0.5,0.2,0.8,0.6,1.2,1v-5.4h0.9V392H341.7z M338.3,391.4c0.6,0,1.1-0.2,1.6-0.5s0.9-0.7,1.3-1.3v-4.8c-0.4-0.5-0.7-0.9-1.2-1.1
		s-0.9-0.3-1.4-0.3c-0.5,0-1,0.1-1.4,0.3c-0.4,0.2-0.7,0.5-1,0.8c-0.3,0.4-0.5,0.8-0.6,1.3c-0.1,0.5-0.2,1-0.2,1.6
		c0,1.4,0.2,2.3,0.8,3C336.7,391.1,337.4,391.4,338.3,391.4z"/>
	<path d="M353.9,391.3c0.6,0,1.2-0.1,1.7-0.3c0.5-0.2,0.9-0.5,1.2-0.9c0.3-0.4,0.6-0.8,0.8-1.4c0.2-0.5,0.3-1.1,0.3-1.7v-8h0.9v8
		c0,0.7-0.1,1.4-0.3,2c-0.2,0.6-0.5,1.2-1,1.6c-0.4,0.5-0.9,0.8-1.5,1.1s-1.3,0.4-2,0.4c-0.8,0-1.4-0.1-2-0.4
		c-0.6-0.3-1.1-0.6-1.5-1.1c-0.4-0.5-0.7-1-1-1.6c-0.2-0.6-0.3-1.3-0.3-2v-8h0.9v8c0,0.6,0.1,1.2,0.3,1.7s0.4,1,0.8,1.4
		c0.3,0.4,0.8,0.7,1.2,0.9C352.8,391.2,353.3,391.3,353.9,391.3z"/>
	<path d="M363.8,392h-0.9v-12.9h0.9V392z"/>
	<path d="M367.1,391.3c0-0.1,0-0.2,0.1-0.3c0-0.1,0.1-0.2,0.2-0.3c0.1-0.1,0.2-0.1,0.3-0.2c0.1,0,0.2-0.1,0.3-0.1
		c0.1,0,0.2,0,0.3,0.1c0.1,0,0.2,0.1,0.3,0.2s0.1,0.2,0.2,0.3c0,0.1,0.1,0.2,0.1,0.3c0,0.1,0,0.2-0.1,0.3s-0.1,0.2-0.2,0.3
		s-0.2,0.1-0.3,0.2c-0.1,0-0.2,0.1-0.3,0.1c-0.2,0-0.4-0.1-0.6-0.2C367.1,391.7,367.1,391.5,367.1,391.3z"/>
</g>
<g>
	<path fill="#FF7B91" d="M274.7,288.1c0.5,0,0.8-0.1,1.2-0.5c0.3-0.3,0.6-0.7,0.8-1.2c0.3-0.5,0.5-1,0.6-1.5c0.1-0.5,0.3-1,0.4-1.6
		c0.1-0.5,0.3-0.8,0.5-1s0.4-0.3,0.7-0.3c0.2,0,0.3,0.1,0.5,0.1c0.2,0.1,0.3,0.3,0.5,0.4c0.1,0.2,0.3,0.4,0.4,0.6
		c0.1,0.2,0.1,0.5,0.1,0.7c0,0,0,0.1,0,0.1c0,0.1,0,0.1-0.1,0.2c-0.2,0.7-0.5,1.5-0.8,2.3c-0.3,0.8-0.7,1.5-1.2,2.2
		c-0.5,0.7-1.1,1.2-1.8,1.7S275,291,274,291c-0.8,0-1.4-0.2-2-0.5c-0.6-0.3-1-0.8-1.4-1.3c-0.5,0.5-1,0.9-1.6,1.2s-1.4,0.5-2.2,0.5
		c-0.8,0-1.6-0.2-2.3-0.5c-0.7-0.3-1.2-0.8-1.6-1.4s-0.8-1.3-1-2.1c-0.2-0.8-0.3-1.7-0.3-2.6c0-1.8,0.3-3.5,0.8-4.9s1.4-2.7,2.3-3.7
		c1-1,2.1-1.8,3.3-2.3c1.2-0.5,2.5-0.8,3.8-0.8c0.6,0,1.1,0.2,1.4,0.5c0.4,0.3,0.6,0.8,0.6,1.4c0,0.4-0.1,0.7-0.1,0.8
		c-0.1,0.1-0.2,0.2-0.5,0.2c-0.2,0-0.4,0-0.6-0.1c-0.2,0-0.5-0.1-0.7-0.1c-0.8,0-1.7,0.2-2.5,0.5c-0.8,0.4-1.6,0.9-2.3,1.7
		c-0.7,0.7-1.2,1.7-1.7,2.9c-0.5,1.2-0.7,2.5-0.7,4.1c0,1.2,0.2,2,0.7,2.7c0.5,0.6,1,0.9,1.8,0.9c0.6,0,1.1-0.2,1.5-0.7
		c0.4-0.5,0.7-1,1-1.6v-6.7c0-0.2,0-0.4,0-0.5s-0.1-0.3-0.1-0.4c0-0.1-0.1-0.2-0.1-0.3s0-0.1,0-0.2c0-0.2,0.1-0.4,0.3-0.5
		c0.2-0.1,0.5-0.2,0.8-0.2c0.7,0,1.3,0.2,1.7,0.6c0.5,0.4,0.7,0.8,0.7,1.4v7.2c0,0.3,0,0.5,0.1,0.7c0.1,0.3,0.1,0.5,0.3,0.7
		c0.1,0.2,0.3,0.3,0.5,0.5C274.3,288,274.5,288.1,274.7,288.1z"/>
	<path fill="#FF7B91" d="M277.9,275.2c0-0.4,0-0.7-0.1-0.9s-0.1-0.3-0.1-0.5s0.1-0.4,0.3-0.5c0.2-0.1,0.5-0.2,0.8-0.2
		c0.7,0,1.3,0.2,1.7,0.6s0.7,0.8,0.7,1.4v2c0.3-0.6,0.7-1.2,1-1.7c0.3-0.5,0.7-1,1.1-1.4s0.8-0.7,1.3-0.9s1-0.3,1.5-0.3
		c0.7,0,1.3,0.1,1.8,0.4s0.8,0.6,1.1,1c0.3,0.5,0.5,0.9,0.6,1.4c0.1,0.5,0.1,1,0.1,1.6v9.1c0,0.1,0,0.3,0,0.5s0.1,0.5,0.1,0.7
		c0.1,0.2,0.2,0.5,0.3,0.6c0.1,0.2,0.4,0.3,0.7,0.3c0.5,0,0.8-0.1,1.2-0.5c0.3-0.3,0.6-0.7,0.8-1.2s0.5-1,0.6-1.5
		c0.1-0.5,0.3-1,0.4-1.6c0.1-0.5,0.2-0.8,0.5-1c0.2-0.2,0.4-0.3,0.6-0.3s0.3,0.1,0.5,0.1c0.2,0.1,0.3,0.3,0.5,0.4
		c0.1,0.2,0.3,0.4,0.4,0.6c0.1,0.2,0.1,0.5,0.1,0.7c0,0,0,0.1,0,0.1c0,0.1,0,0.1-0.1,0.2c-0.2,0.7-0.5,1.5-0.8,2.3
		c-0.3,0.8-0.7,1.5-1.2,2.2c-0.5,0.7-1.1,1.2-1.8,1.7c-0.7,0.5-1.5,0.7-2.5,0.7c-0.6,0-1.1-0.1-1.6-0.3s-0.8-0.5-1.2-0.9
		c-0.3-0.4-0.6-0.8-0.7-1.3c-0.2-0.5-0.3-1-0.3-1.6V278c0-0.3,0-0.7,0-1c0-0.3-0.1-0.6-0.1-0.8s-0.1-0.4-0.3-0.5s-0.3-0.2-0.5-0.2
		c-0.3,0-0.7,0.2-1.2,0.7c-0.5,0.5-0.9,1-1.4,1.7c-0.5,0.7-0.8,1.4-1.2,2.3c-0.3,0.8-0.5,1.7-0.7,2.6v6.4c0,0.2,0,0.5,0,0.7
		s-0.1,0.4-0.1,0.6s-0.2,0.3-0.4,0.5s-0.4,0.2-0.7,0.2c-0.2,0-0.5,0-0.7-0.1c-0.3-0.1-0.5-0.1-0.7-0.3s-0.4-0.3-0.5-0.6
		c-0.1-0.3-0.2-0.6-0.2-1v-14H277.9z"/>
	<path fill="#FF7B91" d="M298.5,290.9c-0.8,0-1.6-0.1-2.3-0.5c-0.7-0.3-1.3-0.7-1.8-1.3c-0.5-0.6-0.8-1.3-1.1-2.2
		c-0.3-0.8-0.4-1.9-0.4-3.1c0-1.7,0.3-3.2,0.7-4.5c0.5-1.3,1.1-2.5,1.9-3.4c0.8-1,1.8-1.7,2.8-2.3c1-0.6,2.2-0.9,3.4-1.1v-9.8
		c0-0.3,0-0.6-0.1-0.7c-0.1-0.2-0.1-0.3-0.1-0.5c-0.1-0.1-0.1-0.2-0.1-0.3c-0.1-0.1-0.1-0.1-0.1-0.2s0.1-0.1,0.1-0.2
		s0.2-0.1,0.3-0.1c0.1-0.1,0.3-0.1,0.5-0.1c0.2,0,0.3,0,0.5,0c0.7,0,1.3,0.2,1.7,0.6s0.7,0.8,0.7,1.4v23.5c0,0.3,0,0.5,0.1,0.7
		c0.1,0.3,0.1,0.5,0.3,0.7c0.1,0.2,0.3,0.3,0.5,0.5c0.2,0.1,0.4,0.2,0.7,0.2c0.5,0,0.8-0.1,1.2-0.5c0.3-0.3,0.6-0.7,0.8-1.2
		s0.5-1,0.6-1.5c0.1-0.5,0.3-1,0.4-1.6c0.1-0.5,0.2-0.8,0.5-1c0.2-0.2,0.4-0.3,0.6-0.3s0.3,0.1,0.5,0.1c0.2,0.1,0.3,0.3,0.5,0.4
		c0.1,0.2,0.3,0.4,0.4,0.6c0.1,0.2,0.1,0.5,0.1,0.7c0,0,0,0.1,0,0.1c0,0.1,0,0.1-0.1,0.2c-0.2,0.7-0.5,1.5-0.8,2.3
		c-0.3,0.8-0.7,1.5-1.2,2.2c-0.5,0.7-1.1,1.2-1.8,1.7c-0.7,0.5-1.5,0.7-2.5,0.7c-0.8,0-1.4-0.1-2-0.5c-0.6-0.3-1-0.7-1.4-1.2
		c-0.5,0.5-1,0.9-1.7,1.2C300.1,290.8,299.3,290.9,298.5,290.9z M299.2,288.1c0.6,0,1-0.2,1.5-0.5c0.4-0.3,0.8-0.7,1-1.2v-10.8
		c-0.7,0.1-1.4,0.4-2.1,0.7c-0.7,0.3-1.2,0.8-1.8,1.4c-0.5,0.7-0.9,1.4-1.2,2.3c-0.3,1-0.5,2.2-0.5,3.5c0,0.8,0.1,1.5,0.3,2
		c0.1,0.6,0.4,1,0.7,1.4c0.3,0.3,0.6,0.6,0.9,0.8C298.4,288,298.8,288.1,299.2,288.1z"/>
	<path fill="#FF7B91" d="M319.1,290.9c-0.5,0-1-0.1-1.6-0.3c-0.5-0.1-1-0.5-1.4-0.8c-0.5-0.4-0.8-0.9-1-1.5
		c-0.3-0.7-0.4-1.4-0.4-2.4c0-1.4,0.2-2.9,0.6-4.5c0.4-1.6,0.9-3.3,1.6-5.2h-3.3h-0.5c0,0.5-0.1,1-0.1,1.6c-0.1,0.7-0.1,1.4-0.2,2.1
		c-0.1,0.7-0.2,1.5-0.3,2.2c-0.1,0.8-0.3,1.4-0.5,2.1c-0.1,0.5-0.4,0.7-0.7,0.8c-0.3,0.1-0.6,0-0.9-0.1c-0.3-0.2-0.5-0.5-0.7-0.8
		s-0.2-0.7-0.1-1c0.1-0.5,0.2-1,0.3-1.6c0.1-0.7,0.1-1.3,0.2-2c0.1-0.7,0.1-1.4,0.1-2.1c0-0.7,0.1-1.3,0.1-1.9
		c-0.5-0.3-1-0.7-1.4-1.2c-0.3-0.5-0.5-1-0.5-1.6c0-0.3,0.1-0.6,0.2-0.8c0.1-0.3,0.3-0.5,0.5-0.7s0.5-0.3,0.7-0.4
		c0.3-0.1,0.5-0.1,0.8-0.1c0.3,0,0.5,0.1,0.8,0.1s0.5,0.2,0.8,0.4c0.3,0.2,0.5,0.5,0.7,0.7c0.2,0.3,0.4,0.7,0.5,1.1
		c0.3,0.1,0.7,0.1,0.9,0.1c0.3,0,0.5,0.1,0.7,0.1c0.2,0,0.3,0,0.5,0c0.1,0,0.2,0,0.3,0h2.3c0.1,0,0.3,0.1,0.6,0.3
		c0.3,0.1,0.5,0.4,0.7,0.6c0.3,0.3,0.5,0.5,0.6,0.8s0.2,0.6,0.2,0.8c0,0.1-0.1,0.3-0.1,0.6c-0.1,0.3-0.2,0.7-0.4,1.2
		c-0.1,0.5-0.3,1-0.5,1.7c-0.2,0.7-0.3,1.3-0.5,2c-0.1,0.7-0.3,1.4-0.4,2.2c-0.1,0.8-0.1,1.5-0.1,2.2c0,0.3,0.1,0.6,0.1,0.8
		s0.2,0.5,0.3,0.8c0.1,0.2,0.3,0.4,0.5,0.5c0.2,0.1,0.5,0.2,0.8,0.2c0.5,0,0.9-0.1,1.3-0.5c0.3-0.3,0.7-0.7,0.9-1.2
		c0.3-0.5,0.5-1,0.6-1.5c0.1-0.5,0.3-1,0.4-1.6c0.1-0.5,0.2-0.8,0.5-1c0.2-0.2,0.4-0.3,0.6-0.3s0.3,0.1,0.5,0.1
		c0.2,0.1,0.3,0.3,0.5,0.4c0.1,0.2,0.3,0.4,0.4,0.6c0.1,0.2,0.1,0.5,0.1,0.7c0,0.1,0,0.1,0,0.2s0,0.1,0,0.1
		c-0.2,0.7-0.5,1.5-0.8,2.3s-0.7,1.5-1.2,2.2c-0.5,0.7-1.1,1.2-1.8,1.7C320.9,290.7,320,290.9,319.1,290.9z"/>
	<path fill="#FF7B91" d="M333.1,277.1c0,0.8-0.1,1.6-0.4,2.5c-0.3,0.8-0.7,1.6-1.2,2.4s-1.2,1.4-2,2c-0.8,0.6-1.8,1-2.8,1.4
		c0.1,0.4,0.3,0.7,0.6,1c0.3,0.3,0.5,0.7,0.8,0.8c0.3,0.3,0.7,0.5,1.2,0.6c0.5,0.1,0.9,0.2,1.5,0.2c0.8,0,1.6-0.1,2.2-0.5
		c0.6-0.3,1.1-0.7,1.6-1.2c0.4-0.5,0.8-1.1,1-1.8c0.3-0.7,0.5-1.3,0.6-2c0.1-0.5,0.3-0.8,0.6-1c0.3-0.2,0.6-0.2,0.9-0.1
		c0.3,0.1,0.6,0.3,0.8,0.5c0.3,0.3,0.3,0.6,0.3,1c-0.1,0.5-0.1,1-0.3,1.5c-0.1,0.6-0.3,1.2-0.6,1.7c-0.3,0.6-0.6,1.2-1,1.7
		c-0.4,0.6-0.9,1-1.6,1.5c-0.6,0.5-1.3,0.8-2.2,1c-0.8,0.3-1.8,0.4-2.9,0.4c-1,0-2-0.2-2.9-0.6c-0.9-0.4-1.8-1-2.5-1.7
		c-0.7-0.7-1.3-1.6-1.8-2.7c-0.5-1-0.7-2.3-0.7-3.7s0.2-2.7,0.6-3.8s0.9-2.2,1.5-3.1c0.7-0.8,1.3-1.6,2.2-2c0.8-0.5,1.6-0.7,2.5-0.7
		c0.6,0,1.2,0.1,1.6,0.3c0.5,0.2,0.9,0.5,1.2,0.9s0.6,0.8,0.8,1.4C333,275.7,333.1,276.4,333.1,277.1z M326,282.2c0,0.1,0,0.3,0,0.4
		c0,0.1,0,0.3,0,0.4c0.5-0.3,1-0.6,1.5-1c0.5-0.4,0.8-0.8,1.1-1.4c0.3-0.5,0.6-1,0.7-1.7c0.2-0.6,0.3-1.2,0.3-1.9
		c0-0.5-0.1-0.8-0.3-1.1c-0.2-0.3-0.4-0.4-0.7-0.4c-0.3,0-0.7,0.1-1,0.4c-0.3,0.3-0.5,0.6-0.7,1s-0.4,0.8-0.5,1.3
		c-0.1,0.5-0.3,1-0.3,1.5c-0.1,0.5-0.1,1-0.2,1.4C326,281.5,326,281.9,326,282.2z"/>
	<path fill="#FF7B91" d="M348.3,288.1c0.5,0,0.8-0.1,1.2-0.5s0.6-0.7,0.8-1.2c0.3-0.5,0.5-1,0.6-1.5c0.1-0.5,0.3-1,0.4-1.6
		c0.1-0.5,0.3-0.8,0.5-1s0.4-0.3,0.7-0.3c0.2,0,0.3,0.1,0.5,0.1c0.2,0.1,0.3,0.3,0.5,0.4c0.1,0.2,0.3,0.4,0.4,0.6
		c0.1,0.2,0.1,0.5,0.1,0.7c0,0,0,0.1,0,0.1c0,0.1,0,0.1-0.1,0.2c-0.2,0.7-0.5,1.5-0.8,2.3s-0.7,1.5-1.2,2.2
		c-0.5,0.7-1.1,1.2-1.8,1.7c-0.7,0.5-1.5,0.7-2.5,0.7c-0.8,0-1.4-0.2-2-0.5c-0.6-0.3-1-0.8-1.4-1.3c-0.5,0.5-1,0.9-1.6,1.2
		s-1.4,0.5-2.2,0.5c-0.8,0-1.6-0.2-2.3-0.5s-1.2-0.8-1.6-1.4s-0.8-1.3-1-2.1s-0.3-1.7-0.3-2.6c0-1.8,0.3-3.5,0.8-4.9
		s1.4-2.7,2.3-3.7c1-1,2.1-1.8,3.3-2.3c1.2-0.5,2.5-0.8,3.8-0.8c0.6,0,1.1,0.2,1.4,0.5c0.4,0.3,0.6,0.8,0.6,1.4
		c0,0.4-0.1,0.7-0.1,0.8s-0.2,0.2-0.5,0.2c-0.2,0-0.4,0-0.6-0.1c-0.2,0-0.5-0.1-0.7-0.1c-0.8,0-1.7,0.2-2.5,0.5
		c-0.8,0.4-1.6,0.9-2.3,1.7c-0.7,0.7-1.2,1.7-1.7,2.9s-0.7,2.5-0.7,4.1c0,1.2,0.2,2,0.7,2.7c0.5,0.6,1,0.9,1.8,0.9
		c0.6,0,1.1-0.2,1.5-0.7c0.4-0.5,0.7-1,1-1.6v-6.7c0-0.2,0-0.4,0-0.5s-0.1-0.3-0.1-0.4c0-0.1-0.1-0.2-0.1-0.3s0-0.1,0-0.2
		c0-0.2,0.1-0.4,0.3-0.5c0.2-0.1,0.5-0.2,0.8-0.2c0.7,0,1.3,0.2,1.8,0.6s0.7,0.8,0.7,1.4v7.2c0,0.3,0,0.5,0.1,0.7s0.1,0.5,0.3,0.7
		c0.1,0.2,0.3,0.3,0.5,0.5C347.9,288,348.1,288.1,348.3,288.1z"/>
</g>
</svg>
