<?xml version="1.0" encoding="utf-8"?>
<!-- Generator: Adobe Illustrator 18.1.0, SVG Export Plug-In . SVG Version: 6.00 Build 0)  -->
<!DOCTYPE svg PUBLIC "-//W3C//DTD SVG 1.1//EN" "http://www.w3.org/Graphics/SVG/1.1/DTD/svg11.dtd">
<svg version="1.1" id="Layer_1" xmlns="http://www.w3.org/2000/svg" xmlns:xlink="http://www.w3.org/1999/xlink" x="0px" y="0px"
	 viewBox="0 0 800 600" enable-background="new 0 0 800 600" xml:space="preserve">
<polygon fill="#D0EBEE" points="209,440.5 169.4,360.8 161.2,272.1 185.7,186.4 218.4,277.4 "/>
<polygon fill="#EE735C" points="597.9,442.3 530,500.7 446.9,532.9 357.8,532.8 274.8,500.6 209,440.5 198,352.6 209,279.3 
	185.7,186.4 239.4,115.4 402.5,294.6 "/>
<polygon fill="#80A5BF" points="565.8,115.6 619.5,186.6 643.8,272.3 635.6,361 597.9,442.3 504.9,460.1 439.8,486.3 373.3,453.1 
	325.2,419.3 271.8,393.2 269.5,332.4 252.8,277.4 239.4,213.2 239.4,115.4 315.2,68.6 402.5,294.6 "/>
<polygon fill="#F1EFD3" points="402.5,184.4 402.5,52.3 490.1,68.7 565.8,115.6 600.6,196 643.8,272.3 595.3,349.5 597.9,442.3 
	460.5,388.4 436,467.1 382.2,403 344.4,388.3 285.9,382.5 285.5,327.8 273.8,282.6 292.3,239.6 328.3,213.1 355.7,173.5 
	402.1,290.9 "/>
</svg>
