<?xml version="1.0" encoding="utf-8"?>
<!-- Generator: Adobe Illustrator 18.1.1, SVG Export Plug-In . SVG Version: 6.00 Build 0)  -->
<!DOCTYPE svg PUBLIC "-//W3C//DTD SVG 1.1//EN" "http://www.w3.org/Graphics/SVG/1.1/DTD/svg11.dtd">
<svg version="1.1" id="Layer_1" xmlns="http://www.w3.org/2000/svg" xmlns:xlink="http://www.w3.org/1999/xlink" x="0px" y="0px"
	 viewBox="0 0 1024 768" enable-background="new 0 0 1024 768" xml:space="preserve">
<rect x="722.3" y="396.4" fill="#935E24" width="264.5" height="250.7"/>
<rect x="735" y="409" fill="#FFFFFF" width="239.1" height="225.5"/>
<rect x="385" y="396.4" fill="#935E24" width="264.5" height="250.7"/>
<rect x="397.7" y="409" fill="#FFFFFF" width="239.1" height="225.5"/>
<circle fill="#FFE845" cx="478.9" cy="512.7" r="25.4"/>
<circle fill="#E01742" cx="535.5" cy="569.3" r="13.1"/>
<circle fill="#423EE5" cx="453.1" cy="445.2" r="13.1"/>
<rect x="574" y="445.7" fill="#423EE5" width="38" height="152.2"/>
<line fill="none" stroke="#000000" stroke-miterlimit="10" x1="459" y1="477.8" x2="606.6" y2="477.8"/>
<line fill="none" stroke="#000000" stroke-width="2" stroke-miterlimit="10" x1="490.6" y1="572.6" x2="595" y2="468.2"/>
<circle fill="none" stroke="#000000" stroke-width="4" stroke-miterlimit="10" cx="580.4" cy="506.4" r="50.4"/>
<circle fill="#E01742" cx="606.6" cy="512.7" r="25.4"/>
<line fill="none" stroke="#111111" stroke-miterlimit="10" x1="735.3" y1="462.4" x2="757" y2="462.4"/>
<line fill="none" stroke="#111111" stroke-miterlimit="10" x1="757" y1="506.8" x2="803.2" y2="506.8"/>
<line fill="none" stroke="#111111" stroke-miterlimit="10" x1="803.2" y1="556.6" x2="858.4" y2="556.6"/>
<line fill="none" stroke="#111111" stroke-miterlimit="10" x1="858.4" y1="446.1" x2="907.3" y2="446.1"/>
<line fill="none" stroke="#111111" stroke-miterlimit="10" x1="907.3" y1="598.3" x2="942.7" y2="598.3"/>
<line fill="none" stroke="#111111" stroke-miterlimit="10" x1="942.2" y1="408.5" x2="942.2" y2="634.1"/>
<line fill="none" stroke="#111111" stroke-miterlimit="10" x1="942.7" y1="477.8" x2="974.4" y2="477.8"/>
<line fill="none" stroke="#111111" stroke-miterlimit="10" x1="757" y1="602.8" x2="803.2" y2="602.8"/>
<line fill="none" stroke="#111111" stroke-miterlimit="10" x1="803.2" y1="458.8" x2="858.4" y2="458.8"/>
<line fill="none" stroke="#111111" stroke-miterlimit="10" x1="858.4" y1="527.6" x2="907.3" y2="527.6"/>
<line fill="none" stroke="#111111" stroke-miterlimit="10" x1="858.4" y1="624.6" x2="907.3" y2="624.6"/>
<line fill="none" stroke="#111111" stroke-miterlimit="10" x1="735.3" y1="564.8" x2="757" y2="564.8"/>
<rect x="735" y="409" fill="#423EE5" width="22" height="53.4"/>
<rect x="942.2" y="477.8" fill="#423EE5" width="32.2" height="156.2"/>
<rect x="757.4" y="506.4" fill="#423EE5" width="45.7" height="96.5"/>
<rect x="858.4" y="446.1" fill="#FFE845" width="48.9" height="81.5"/>
<rect x="735.3" y="564.8" fill="#FFE845" width="22.2" height="69.3"/>
<rect x="942.2" y="408.5" fill="#FFE845" width="32.2" height="69.3"/>
<rect x="858.4" y="624.6" fill="#FFE845" width="49.4" height="9.5"/>
<rect x="803.2" y="458.8" fill="#E01742" width="55.3" height="97.8"/>
<rect x="907.3" y="598.3" fill="#E01742" width="34.9" height="35.8"/>
<rect x="858.9" y="408.5" fill="#E01742" width="48.5" height="37.6"/>
<line fill="none" stroke="#111111" stroke-miterlimit="10" x1="757.4" y1="408.5" x2="757.4" y2="634.1"/>
<line fill="none" stroke="#111111" stroke-miterlimit="10" x1="803.6" y1="634.1" x2="803.6" y2="408.5"/>
<line fill="none" stroke="#111111" stroke-miterlimit="10" x1="858.9" y1="634.1" x2="858.9" y2="408.5"/>
<line fill="none" stroke="#111111" stroke-miterlimit="10" x1="907.8" y1="634.1" x2="907.8" y2="408.5"/>
<line fill="none" stroke="#FFFFFF" stroke-width="4" stroke-miterlimit="10" x1="919.1" y1="539" x2="919.1" y2="585.2"/>
<line fill="none" stroke="#FFFFFF" stroke-width="7" stroke-miterlimit="10" x1="911.9" y1="541.2" x2="934.5" y2="541.2"/>
</svg>
