<?xml version="1.0" encoding="utf-8"?>
<!-- Generator: Adobe Illustrator 18.1.1, SVG Export Plug-In . SVG Version: 6.00 Build 0)  -->
<!DOCTYPE svg PUBLIC "-//W3C//DTD SVG 1.1//EN" "http://www.w3.org/Graphics/SVG/1.1/DTD/svg11.dtd">
<svg version="1.1" id="Layer_1" xmlns="http://www.w3.org/2000/svg" xmlns:xlink="http://www.w3.org/1999/xlink" x="0px" y="0px"
	 viewBox="0 0 1024 768" enable-background="new 0 0 1024 768" xml:space="preserve">
<g>
	<g>
		<g>
			<g>
				<path fill="#D6D6D6" d="M490.9,262.1l-38.2-27.7c9.2-12.7,22.7-19.5,38.2-19.5V262.1z"/>
			</g>
		</g>
		<g>
			<g>
				<path fill="#E6725B" d="M490.9,262.1v-47.3c26,0,47.3,21.3,47.3,47.3c0,26-21.1,47.3-47.3,47.3c-26.2,0-47.5-21.1-47.5-47.3
					c0-10.5,2.8-19.4,9.1-27.7L490.9,262.1z"/>
			</g>
		</g>
	</g>
	<path fill="#FFFFFF" d="M455.3,261.5c0-19.7,15.9-35.8,35.8-35.8s35.8,16.1,35.8,35.8s-15.9,35.8-35.8,35.8
		S455.3,281.2,455.3,261.5z"/>
</g>
<g>
	<g>
		<g>
			<g>
				<path fill="#D6D6D6" d="M619.5,262.1l-45-14.7c6.5-19.9,24.1-32.8,45-32.8V262.1z"/>
			</g>
		</g>
		<g>
			<g>
				<path fill="#E6725B" d="M619.5,262.1v-47.3c26,0,47.3,21.3,47.3,47.3c0,26-21.1,47.3-47.3,47.3c-26,0-47.3-21.1-47.3-47.3
					c0-5.2,0.7-9.6,2.3-14.7L619.5,262.1z"/>
			</g>
		</g>
	</g>
	<path fill="#FFFFFF" d="M584.2,261.5c0-19.7,15.9-35.8,35.8-35.8c19.9,0,35.8,16.1,35.8,35.8s-15.9,35.8-35.8,35.8
		C600.1,297.3,584.2,281.2,584.2,261.5z"/>
</g>
<g>
	<g>
		<g>
			<g>
				<path fill="#D6D6D6" d="M748.1,262.1H701c0-26.2,21.1-47.3,47.3-47.3l0,0L748.1,262.1L748.1,262.1z"/>
			</g>
		</g>
		<g>
			<g>
				<path fill="#E6725B" d="M748.1,262.1v-47.3c26,0,47.3,21.3,47.3,47.3c0,26-21.1,47.3-47.3,47.3c-26,0-47.3-21.1-47.3-47.3l0,0
					H748.1z"/>
			</g>
		</g>
	</g>
	<path fill="#FFFFFF" d="M711.6,261.5c0-19.7,15.9-35.8,35.8-35.8s35.8,16.1,35.8,35.8s-15.9,35.8-35.8,35.8
		C727.7,297.3,711.6,281.2,711.6,261.5z"/>
</g>
<g>
	<g>
		<g>
			<g>
				<path fill="#D6D6D6" d="M876.7,262.1l-27.7,38.2c-21.1-15.4-25.8-44.8-10.5-66.1c9.2-12.7,22.7-19.5,38.2-19.5V262.1
					L876.7,262.1z"/>
			</g>
		</g>
		<g>
			<g>
				<path fill="#E6725B" d="M876.7,262.1v-47.3c26,0,47.3,21.3,47.3,47.3c0,26-21.1,47.3-47.3,47.3c-10.5,0-19.4-2.8-27.7-9.1
					L876.7,262.1z"/>
			</g>
		</g>
	</g>
	<path fill="#FFFFFF" d="M841.1,261.5c0-19.7,15.9-35.8,35.8-35.8s35.8,16.1,35.8,35.8s-15.9,35.8-35.8,35.8
		S841.1,281.2,841.1,261.5z"/>
</g>
<g>
	<rect x="438" y="333.1" fill="none" width="119.2" height="29"/>
	<g enable-background="new    ">
		<path fill="#E6725B" d="M439.9,347.4v-13.4h1.6v13.4H439.9z"/>
		<path fill="#E6725B" d="M446.6,347.4H445v-14.3h1.6V347.4z"/>
		<path fill="#E6725B" d="M451.3,347.4h-1.6v-14.3h1.6V347.4z"/>
		<path fill="#E6725B" d="M456,337.3v6.6c0,0.9,0.2,1.4,0.5,1.9c0.3,0.3,1,0.5,1.7,0.5c1,0,1.7-0.3,2.3-0.9c0.5-0.5,0.7-1.6,0.7-2.8
			v-5.2h1.6v10.1h-1.2l-0.2-1.4l0,0c-0.3,0.5-0.7,0.9-1.2,1.2c-0.5,0.3-1.2,0.3-1.9,0.3c-1.2,0-2.1-0.3-2.8-0.9
			c-0.7-0.5-0.9-1.6-0.9-2.8v-6.6h1.4V337.3z"/>
		<path fill="#E6725B" d="M472.6,344.6c0,0.9-0.3,1.7-1,2.1c-0.7,0.5-1.7,0.7-3,0.7c-1.4,0-2.4-0.2-3.1-0.7v-1.4
			c0.5,0.2,1,0.5,1.6,0.5c0.5,0.2,1,0.2,1.6,0.2c0.9,0,1.4-0.2,1.9-0.3c0.3-0.2,0.7-0.7,0.7-1.2c0-0.3-0.2-0.7-0.5-1
			c-0.3-0.3-1-0.5-1.9-1c-0.9-0.3-1.6-0.7-1.9-0.9c-0.3-0.2-0.7-0.5-0.9-0.9c-0.2-0.3-0.3-0.7-0.3-1.2c0-0.9,0.3-1.4,1-1.9
			s1.6-0.7,2.8-0.7c1,0,2.1,0.2,3.1,0.7l-0.5,1.2c-1-0.3-1.9-0.7-2.8-0.7c-0.7,0-1.2,0.2-1.6,0.3c-0.3,0.2-0.5,0.5-0.5,0.9
			c0,0.3,0,0.5,0.2,0.7s0.3,0.3,0.7,0.5s0.9,0.3,1.7,0.7c1.2,0.3,2.1,0.9,2.4,1.4C472.4,343.4,472.6,344.1,472.6,344.6z"/>
		<path fill="#E6725B" d="M478.3,346.3c0.3,0,0.5,0,0.7,0s0.5,0,0.5-0.2v1.2c-0.2,0-0.3,0.2-0.7,0.2c-0.3,0-0.7,0-0.9,0
			c-1.9,0-3-1-3-3.1v-5.9h-1.4v-0.7l1.4-0.7l0.7-2.1h0.9v2.3h3v1.2h-3v5.9c0,0.5,0.2,1,0.3,1.4C477.5,346.2,477.8,346.3,478.3,346.3
			z"/>
		<path fill="#E6725B" d="M486.4,337.1c0.5,0,0.9,0,1.2,0.2l-0.2,1.4c-0.3-0.2-0.9-0.2-1-0.2c-0.9,0-1.6,0.3-2.1,1
			c-0.5,0.7-0.9,1.6-0.9,2.4v5.4h-1.6v-10.1h1.2l0.2,1.9l0,0c0.3-0.7,0.9-1.2,1.4-1.6C485.1,337.3,485.8,337.1,486.4,337.1z"/>
		<path fill="#E6725B" d="M495.8,347.4l-0.3-1.4l0,0c-0.5,0.7-1,1-1.6,1.2c-0.5,0.2-1,0.3-1.9,0.3c-1,0-1.7-0.2-2.3-0.7
			c-0.5-0.5-0.9-1.2-0.9-2.3c0-2.1,1.6-3.1,4.9-3.1h1.7v-0.7c0-0.9-0.2-1.4-0.5-1.7c-0.3-0.3-0.9-0.5-1.6-0.5
			c-0.9,0-1.7,0.2-2.8,0.7L490,338c0.5-0.3,1-0.5,1.6-0.7c0.5-0.2,1.2-0.2,1.7-0.2c1.2,0,2.1,0.3,2.6,0.9c0.5,0.5,0.9,1.4,0.9,2.6v7
			h-1V347.4z M492.3,346.3c0.9,0,1.7-0.2,2.3-0.7c0.5-0.5,0.9-1.2,0.9-2.3v-0.9h-1.6c-1.2,0-2.1,0.2-2.6,0.5
			c-0.5,0.3-0.9,0.9-0.9,1.6c0,0.5,0.2,1,0.5,1.2C491.2,346.2,491.6,346.3,492.3,346.3z"/>
		<path fill="#E6725B" d="M503.3,346.3c0.3,0,0.5,0,0.7,0c0.2,0,0.5,0,0.5-0.2v1.2c-0.2,0-0.3,0.2-0.7,0.2c-0.3,0-0.7,0-0.9,0
			c-1.9,0-3-1-3-3.1v-5.9h-1.4v-0.7l1.4-0.7l0.7-2.1h0.9v2.3h3v1.2h-3v5.9c0,0.5,0.2,1,0.3,1.4C502.4,346.2,502.8,346.3,503.3,346.3
			z"/>
		<path fill="#E6725B" d="M515.3,342.3c0,1.6-0.3,3-1.2,3.8s-1.9,1.4-3.5,1.4c-0.9,0-1.7-0.2-2.4-0.7c-0.7-0.3-1.2-1-1.6-1.7
			c-0.3-0.9-0.5-1.7-0.5-2.8c0-1.6,0.3-3,1.2-3.8s1.9-1.4,3.5-1.4c1.4,0,2.6,0.5,3.3,1.4C515,339.5,515.3,340.7,515.3,342.3z
			 M507.6,342.3c0,1.2,0.2,2.3,0.7,3c0.5,0.7,1.2,1,2.3,1c1,0,1.7-0.3,2.3-1c0.5-0.7,0.7-1.6,0.7-3c0-1.2-0.2-2.3-0.7-3
			c-0.5-0.7-1.2-1-2.3-1c-1,0-1.7,0.3-2.3,1C508,340,507.6,341.1,507.6,342.3z"/>
		<path fill="#E6725B" d="M522.7,337.1c0.5,0,0.9,0,1.2,0.2l-0.2,1.4c-0.3-0.2-0.9-0.2-1-0.2c-0.9,0-1.6,0.3-2.1,1
			c-0.5,0.7-0.9,1.6-0.9,2.4v5.4h-1.6v-10.1h1.2l0.2,1.9l0,0c0.3-0.7,0.9-1.2,1.4-1.6C521.4,337.3,522,337.1,522.7,337.1z"/>
	</g>
</g>
<g>
	<rect x="570.8" y="333.1" fill="none" width="119" height="29"/>
	<g enable-background="new    ">
		<path fill="#E6725B" d="M581.3,337.8c0,1.4-0.5,2.4-1.4,3.1c-0.9,0.7-2.3,1-4,1h-1.6v5.2h-1.6v-13.4h3.5
			C579.5,333.9,581.3,335.2,581.3,337.8z M574.3,340.7h1.4c1.4,0,2.4-0.2,3-0.7c0.7-0.5,0.9-1.2,0.9-2.1c0-0.9-0.3-1.6-0.9-1.9
			c-0.5-0.3-1.6-0.7-2.8-0.7h-1.7v5.4H574.3z"/>
		<path fill="#E6725B" d="M590.7,347.4v-6.5c0-0.9-0.2-1.4-0.5-1.9c-0.3-0.5-1-0.5-1.7-0.5c-1,0-1.9,0.3-2.3,0.9
			c-0.3,0.5-0.7,1.6-0.7,2.8v5.2h-1.6v-14.3h1.6v4.4c0,0.5,0,0.9,0,1.2h0.2c0.3-0.5,0.7-0.9,1.2-1.2c0.5-0.3,1.2-0.3,1.9-0.3
			c1.2,0,2.1,0.3,2.8,0.9c0.7,0.5,0.9,1.6,0.9,2.8v6.6L590.7,347.4L590.7,347.4z"/>
		<path fill="#E6725B" d="M604.1,342.3c0,1.6-0.3,3-1.2,3.8s-1.9,1.4-3.5,1.4c-0.9,0-1.7-0.2-2.4-0.7c-0.7-0.3-1.2-1-1.6-1.7
			c-0.3-0.9-0.5-1.7-0.5-2.8c0-1.6,0.3-3,1.2-3.8c0.9-0.9,1.9-1.4,3.5-1.4c1.4,0,2.6,0.5,3.3,1.4
			C603.8,339.5,604.1,340.7,604.1,342.3z M596.5,342.3c0,1.2,0.2,2.3,0.7,3s1.2,1,2.3,1c1,0,1.7-0.3,2.3-1c0.5-0.7,0.7-1.6,0.7-3
			c0-1.2-0.2-2.3-0.7-3c-0.5-0.7-1.2-1-2.3-1s-1.7,0.3-2.3,1C596.6,340,596.5,341.1,596.5,342.3z"/>
		<path fill="#E6725B" d="M610.1,346.3c0.3,0,0.5,0,0.7,0s0.5,0,0.5-0.2v1.2c-0.2,0-0.3,0.2-0.7,0.2c-0.3,0-0.7,0-0.9,0
			c-1.9,0-3-1-3-3.1v-5.9h-1.4v-0.7l1.4-0.7l0.7-2.1h0.9v2.3h3v1.2h-3v5.9c0,0.5,0.2,1,0.3,1.4C609.2,346.2,609.5,346.3,610.1,346.3
			z"/>
		<path fill="#E6725B" d="M622.1,342.3c0,1.6-0.3,3-1.2,3.8c-0.9,0.9-1.9,1.4-3.5,1.4c-0.9,0-1.7-0.2-2.4-0.7
			c-0.7-0.3-1.2-1-1.6-1.7c-0.3-0.9-0.5-1.7-0.5-2.8c0-1.6,0.3-3,1.2-3.8c0.9-0.9,1.9-1.4,3.5-1.4c1.4,0,2.6,0.5,3.3,1.4
			C621.8,339.5,622.1,340.7,622.1,342.3z M614.4,342.3c0,1.2,0.2,2.3,0.7,3c0.5,0.7,1.2,1,2.3,1c1,0,1.7-0.3,2.3-1
			c0.5-0.7,0.7-1.6,0.7-3c0-1.2-0.2-2.3-0.7-3c-0.5-0.7-1.2-1-2.3-1s-1.7,0.3-2.3,1C614.8,340,614.4,341.1,614.4,342.3z"/>
		<path fill="#E6725B" d="M631.4,344.6c0,0.9-0.3,1.7-1,2.1c-0.7,0.5-1.7,0.7-3,0.7c-1.4,0-2.4-0.2-3.1-0.7v-1.4
			c0.5,0.2,1,0.5,1.6,0.5c0.5,0.2,1,0.2,1.6,0.2c0.9,0,1.4-0.2,1.9-0.3c0.3-0.2,0.7-0.7,0.7-1.2c0-0.3-0.2-0.7-0.5-1
			c-0.3-0.3-1-0.5-1.9-1c-0.9-0.3-1.6-0.7-1.9-0.9c-0.3-0.2-0.7-0.5-0.9-0.9c-0.2-0.3-0.3-0.7-0.3-1.2c0-0.9,0.3-1.4,1-1.9
			c0.7-0.5,1.6-0.7,2.8-0.7c1,0,2.1,0.2,3.1,0.7l-0.5,1.2c-1-0.3-1.9-0.7-2.8-0.7c-0.7,0-1.2,0.2-1.6,0.3c-0.3,0.2-0.5,0.5-0.5,0.9
			c0,0.3,0,0.5,0.2,0.7s0.3,0.3,0.7,0.5c0.3,0.2,0.9,0.3,1.7,0.7c1.2,0.3,2.1,0.9,2.4,1.4C631.2,343.4,631.4,344.1,631.4,344.6z"/>
		<path fill="#E6725B" d="M640.8,347.4v-6.5c0-0.9-0.2-1.4-0.5-1.9c-0.3-0.5-1-0.5-1.7-0.5c-1,0-1.9,0.3-2.3,0.9
			c-0.3,0.5-0.7,1.6-0.7,2.8v5.2H634v-14.3h1.6v4.4c0,0.5,0,0.9,0,1.2h0.2c0.3-0.5,0.7-0.9,1.2-1.2c0.5-0.3,1.2-0.3,1.9-0.3
			c1.2,0,2.1,0.3,2.8,0.9c0.7,0.5,0.9,1.6,0.9,2.8v6.6L640.8,347.4L640.8,347.4z"/>
		<path fill="#E6725B" d="M654.2,342.3c0,1.6-0.3,3-1.2,3.8c-0.9,0.9-1.9,1.4-3.5,1.4c-0.9,0-1.7-0.2-2.4-0.7
			c-0.7-0.3-1.2-1-1.6-1.7c-0.3-0.9-0.5-1.7-0.5-2.8c0-1.6,0.3-3,1.2-3.8c0.9-0.9,1.9-1.4,3.5-1.4c1.4,0,2.6,0.5,3.3,1.4
			C653.7,339.5,654.2,340.7,654.2,342.3z M646.5,342.3c0,1.2,0.2,2.3,0.7,3c0.5,0.7,1.2,1,2.3,1s1.7-0.3,2.3-1
			c0.5-0.7,0.7-1.6,0.7-3c0-1.2-0.2-2.3-0.7-3c-0.5-0.7-1.2-1-2.3-1c-1,0-1.7,0.3-2.3,1C646.7,340,646.5,341.1,646.5,342.3z"/>
		<path fill="#E6725B" d="M661.5,347.6c-0.7,0-1.2-0.2-1.7-0.3s-1-0.7-1.4-1h-0.2c0,0.5,0.2,1.2,0.2,1.7v4.2h-1.6v-14.7h1.2l0.2,1.4
			l0,0c0.3-0.5,0.9-0.9,1.4-1.2c0.5-0.2,1-0.3,1.7-0.3c1.4,0,2.4,0.5,3.1,1.4c0.7,0.9,1,2.3,1,3.8c0,1.7-0.3,3-1,3.8
			C664,347.2,662.9,347.6,661.5,347.6z M661.4,338.5c-1,0-1.7,0.3-2.3,0.9c-0.5,0.5-0.7,1.4-0.7,2.8v0.3c0,1.4,0.2,2.4,0.7,3
			c0.5,0.7,1.2,0.9,2.3,0.9c0.9,0,1.6-0.3,2.1-1c0.5-0.7,0.7-1.7,0.7-3c0-1.2-0.2-2.3-0.7-3C662.9,338.7,662.2,338.5,661.4,338.5z"
			/>
	</g>
</g>
<g>
	<rect x="704.6" y="333.1" fill="none" width="131.4" height="29"/>
	<g enable-background="new    ">
		<path fill="#E6725B" d="M715.1,347.4l-1.7-4.4h-5.4l-1.7,4.4h-1.6l5.4-13.6h1.4l5.2,13.6H715.1z M712.8,341.8l-1.6-4.2
			c-0.2-0.5-0.3-1.2-0.7-1.9c-0.2,0.5-0.3,1.2-0.5,1.9l-1.6,4.2H712.8z"/>
		<path fill="#E6725B" d="M722.8,338.5h-2.6v8.9h-1.6v-8.9h-1.7v-0.7l1.7-0.5v-0.5c0-2.4,1-3.7,3.3-3.7c0.5,0,1.2,0.2,1.9,0.3
			l-0.3,1.2c-0.5-0.2-1-0.3-1.6-0.3c-0.5,0-1,0.2-1.2,0.5c-0.3,0.3-0.3,1-0.3,1.9v0.7h2.6v1H722.8z"/>
		<path fill="#E6725B" d="M728,346.3c0.3,0,0.5,0,0.7,0s0.5,0,0.5-0.2v1.2c-0.2,0-0.3,0.2-0.7,0.2c-0.3,0-0.7,0-0.9,0
			c-1.9,0-3-1-3-3.1v-5.9h-1.4v-0.7l1.4-0.7l0.7-2.1h0.9v2.3h3v1.2h-3v5.9c0,0.5,0.2,1,0.3,1.4C727,346.2,727.5,346.3,728,346.3z"/>
		<path fill="#E6725B" d="M735.7,347.6c-1.6,0-2.6-0.5-3.5-1.4c-0.9-0.9-1.2-2.1-1.2-3.8c0-1.6,0.3-3,1.2-3.8
			c0.9-0.9,1.9-1.4,3.3-1.4c1.2,0,2.3,0.3,3,1.2s1,1.9,1,3.3v1h-7c0,1.2,0.3,2.1,0.9,2.6c0.5,0.7,1.4,0.9,2.4,0.9s2.1-0.2,3.1-0.7
			v1.4c-0.5,0.2-1,0.3-1.6,0.5C736.9,347.6,736.4,347.6,735.7,347.6z M735.2,338.5c-0.9,0-1.4,0.3-1.9,0.9c-0.5,0.5-0.7,1.2-0.9,2.3
			h5.2c0-1-0.2-1.7-0.7-2.3C736.6,338.7,736,338.5,735.2,338.5z"/>
		<path fill="#E6725B" d="M746.5,337.1c0.5,0,0.9,0,1.2,0.2l-0.2,1.4c-0.3-0.2-0.9-0.2-1-0.2c-0.9,0-1.6,0.3-2.1,1
			c-0.5,0.7-0.9,1.6-0.9,2.4v5.4H742v-10.1h1.2l0.2,1.9l0,0c0.3-0.7,0.9-1.2,1.4-1.6C745.3,337.3,746,337.1,746.5,337.1z"/>
		<path fill="#E6725B" d="M762.2,347.4h-7.5v-13.4h7.5v1.4h-5.9v4.4h5.6v1.4h-5.6v4.9h5.9V347.4z"/>
		<path fill="#E6725B" d="M769.5,338.5h-2.6v8.9h-1.6v-8.9h-1.7v-0.7l1.7-0.5v-0.5c0-2.4,1-3.7,3.3-3.7c0.5,0,1.2,0.2,1.9,0.3
			l-0.3,1.2c-0.5-0.2-1-0.3-1.6-0.3c-0.5,0-1,0.2-1.2,0.5c-0.3,0.3-0.3,1-0.3,1.9v0.7h2.6v1H769.5z M776,338.5h-2.6v8.9h-1.6v-8.9
			h-1.7v-0.7l1.7-0.5v-0.5c0-2.4,1-3.7,3.3-3.7c0.5,0,1.2,0.2,1.9,0.3l-0.3,1.2c-0.5-0.2-1-0.3-1.6-0.3s-1,0.2-1.2,0.5
			c-0.3,0.3-0.3,1-0.3,1.9v0.7h2.6v1H776z"/>
		<path fill="#E6725B" d="M782.1,347.6c-1.6,0-2.6-0.5-3.5-1.4c-0.9-0.9-1.2-2.1-1.2-3.8c0-1.6,0.3-3,1.2-3.8
			c0.9-0.9,1.9-1.4,3.3-1.4c1.2,0,2.3,0.3,3,1.2c0.7,0.9,1,1.9,1,3.3v1h-7c0,1.2,0.3,2.1,0.9,2.6c0.5,0.7,1.4,0.9,2.4,0.9
			s2.1-0.2,3.1-0.7v1.4c-0.5,0.2-1,0.3-1.6,0.5S782.8,347.6,782.1,347.6z M781.8,338.5c-0.9,0-1.4,0.3-1.9,0.9
			c-0.5,0.5-0.7,1.2-0.9,2.3h5.2c0-1-0.2-1.7-0.7-2.3C783.2,338.7,782.5,338.5,781.8,338.5z"/>
		<path fill="#E6725B" d="M792.4,347.6c-1.4,0-2.6-0.5-3.3-1.4c-0.9-0.9-1.2-2.1-1.2-3.8c0-1.7,0.3-3,1.2-3.8
			c0.9-0.9,1.9-1.4,3.5-1.4c0.5,0,1,0,1.4,0.2c0.3,0.2,0.9,0.2,1.2,0.3l-0.5,1.2c-0.3-0.2-0.7-0.2-1-0.3c-0.3-0.2-0.7-0.2-1-0.2
			c-2.1,0-3.1,1.4-3.1,4c0,1.2,0.2,2.3,0.7,2.8c0.5,0.5,1.2,1,2.3,1c0.9,0,1.7-0.2,2.6-0.5v1.4C794.3,347.4,793.4,347.6,792.4,347.6
			z"/>
		<path fill="#E6725B" d="M800.8,346.3c0.3,0,0.5,0,0.7,0s0.5,0,0.5-0.2v1.2c-0.2,0-0.3,0.2-0.7,0.2c-0.3,0-0.7,0-0.9,0
			c-1.9,0-3-1-3-3.1v-5.9h-1.4v-0.7l1.4-0.7l0.7-2.1h0.9v2.3h3v1.2h-3v5.9c0,0.5,0.2,1,0.3,1.4C799.7,346.2,800.2,346.3,800.8,346.3
			z"/>
		<path fill="#E6725B" d="M810.5,344.6c0,0.9-0.3,1.7-1,2.1c-0.7,0.5-1.7,0.7-3,0.7c-1.4,0-2.4-0.2-3.1-0.7v-1.4
			c0.5,0.2,1,0.5,1.6,0.5c0.5,0.2,1,0.2,1.6,0.2c0.9,0,1.4-0.2,1.9-0.3c0.3-0.2,0.7-0.7,0.7-1.2c0-0.3-0.2-0.7-0.5-1
			c-0.3-0.3-1-0.5-1.9-1c-0.9-0.3-1.6-0.7-1.9-0.9c-0.3-0.2-0.7-0.5-0.9-0.9c-0.2-0.3-0.3-0.7-0.3-1.2c0-0.9,0.3-1.4,1-1.9
			s1.6-0.7,2.8-0.7c1,0,2.1,0.2,3.1,0.7l-0.5,1.2c-1-0.3-1.9-0.7-2.8-0.7c-0.7,0-1.2,0.2-1.6,0.3c-0.3,0.2-0.5,0.5-0.5,0.9
			c0,0.3,0,0.5,0.2,0.7s0.3,0.3,0.7,0.5c0.3,0.2,0.9,0.3,1.7,0.7c1.2,0.3,2.1,0.9,2.4,1.4C810.4,343.4,810.5,344.1,810.5,344.6z"/>
	</g>
</g>
<g>
	<rect x="849.8" y="333.1" fill="none" width="119" height="29"/>
	<g enable-background="new    ">
		<path fill="#E6725B" d="M859.2,343.9c0,1.2-0.3,2.1-1.2,2.8c-0.9,0.7-2.1,1-3.5,1c-1.6,0-2.8-0.2-3.7-0.7v-1.6
			c0.5,0.2,1.2,0.3,1.7,0.5c0.7,0.2,1.2,0.2,1.9,0.2c1,0,1.7-0.2,2.4-0.5c0.5-0.3,0.9-0.9,0.9-1.6c0-0.5-0.2-0.9-0.3-1.2
			c-0.2-0.3-0.5-0.5-0.9-0.9c-0.5-0.2-1-0.5-1.9-0.9c-1.2-0.5-2.1-1-2.6-1.6c-0.5-0.7-0.9-1.4-0.9-2.4c0-1,0.3-1.9,1.2-2.4
			c0.7-0.7,1.7-0.9,3.1-0.9s2.6,0.2,3.7,0.7l-0.5,1.4c-1-0.5-2.3-0.7-3.3-0.7c-0.9,0-1.4,0.2-1.9,0.5c-0.5,0.3-0.7,0.9-0.7,1.6
			c0,0.5,0,0.9,0.2,1.2c0.2,0.3,0.5,0.5,0.9,0.9c0.3,0.3,1,0.5,1.9,0.9c1.4,0.5,2.4,1,3,1.6C859.2,342.3,859.2,342.8,859.2,343.9z"
			/>
		<path fill="#E6725B" d="M863.2,342.3c0.3-0.3,0.7-0.9,1.2-1.4l3.3-3.5h1.7l-4,4.4l4.4,5.8h-1.9l-3.5-4.7l-1.2,1v3.8h-1.6v-14.3
			h1.6v7.7C863.2,340.9,863.2,341.4,863.2,342.3L863.2,342.3z"/>
		<path fill="#E6725B" d="M875.8,347.6c-1.6,0-2.6-0.5-3.5-1.4c-0.9-0.9-1.2-2.1-1.2-3.8c0-1.6,0.3-3,1.2-3.8
			c0.9-0.9,1.9-1.4,3.3-1.4c1.2,0,2.3,0.3,3,1.2c0.7,0.9,1,1.9,1,3.3v1h-7c0,1.2,0.3,2.1,0.9,2.6c0.5,0.7,1.4,0.9,2.4,0.9
			c1,0,2.1-0.2,3.1-0.7v1.4c-0.5,0.2-1,0.3-1.6,0.5C877,347.6,876.5,347.6,875.8,347.6z M875.5,338.5c-0.9,0-1.4,0.3-1.9,0.9
			c-0.5,0.5-0.7,1.2-0.9,2.3h5.2c0-1-0.2-1.7-0.7-2.3C876.8,338.7,876.3,338.5,875.5,338.5z"/>
		<path fill="#E6725B" d="M885.4,346.3c0.3,0,0.5,0,0.7,0c0.2,0,0.5,0,0.5-0.2v1.2c-0.2,0-0.3,0.2-0.7,0.2s-0.7,0-0.9,0
			c-1.9,0-3-1-3-3.1v-5.9h-1.4v-0.7l1.4-0.7l0.7-2.1h0.9v2.3h3v1.2h-3v5.9c0,0.5,0.2,1,0.3,1.4C884.5,346.2,884.9,346.3,885.4,346.3
			z"/>
		<path fill="#E6725B" d="M892.9,347.6c-1.4,0-2.6-0.5-3.3-1.4c-0.9-0.9-1.2-2.1-1.2-3.8c0-1.7,0.3-3,1.2-3.8
			c0.9-0.9,1.9-1.4,3.5-1.4c0.5,0,1,0,1.4,0.2c0.3,0.2,0.9,0.2,1.2,0.3l-0.5,1.2c-0.3-0.2-0.7-0.2-1-0.3c-0.3-0.2-0.7-0.2-1-0.2
			c-2.1,0-3.1,1.4-3.1,4c0,1.2,0.2,2.3,0.7,2.8c0.5,0.5,1.2,1,2.3,1c0.9,0,1.7-0.2,2.6-0.5v1.4C894.8,347.4,893.9,347.6,892.9,347.6
			z"/>
		<path fill="#E6725B" d="M904.8,347.4v-6.5c0-0.9-0.2-1.4-0.5-1.9c-0.3-0.5-1-0.5-1.7-0.5c-1,0-1.9,0.3-2.3,0.9
			c-0.3,0.5-0.7,1.6-0.7,2.8v5.2H898v-14.3h1.6v4.4c0,0.5,0,0.9,0,1.2h0.2c0.3-0.5,0.7-0.9,1.2-1.2c0.5-0.3,1.2-0.3,1.9-0.3
			c1.2,0,2.1,0.3,2.8,0.9c0.7,0.5,0.9,1.6,0.9,2.8v6.6L904.8,347.4L904.8,347.4z"/>
	</g>
</g>
<g>
	<g>
		<g>
			<rect x="900.2" y="439.7" fill="#D6D6D6" width="36.3" height="16.6"/>
			<rect x="864.1" y="462.5" fill="#D6D6D6" width="72.6" height="16.6"/>
			<rect x="791.5" y="485.6" fill="#D6D6D6" width="145" height="16.6"/>
			<rect x="791.5" y="508.2" fill="#D6D6D6" width="145" height="16.6"/>
			<rect x="718.9" y="531.1" fill="#D6D6D6" width="217.6" height="16.6"/>
		</g>
	</g>
	<g>
		<g>
			<rect x="573.8" y="439.7" fill="#E6725B" width="326.5" height="16.6"/>
			<rect x="573.8" y="462.5" fill="#E6725B" width="290.2" height="16.6"/>
			<rect x="573.8" y="485.6" fill="#E6725B" width="253.9" height="16.6"/>
			<rect x="573.8" y="508.2" fill="#E6725B" width="217.6" height="16.6"/>
			<rect x="573.8" y="531.1" fill="#E6725B" width="145" height="16.6"/>
		</g>
	</g>
</g>
<rect x="434.2" y="441.2" fill="none" width="126.1" height="147.1"/>
<g enable-background="new    ">
	<path fill="#231F20" d="M440.6,443c-1.2,0-2.3,0.3-3,1.2c-0.7,0.9-1,1.9-1,3.5s0.3,2.6,1,3.5c0.7,0.9,1.7,1.2,3,1.2
		c0.9,0,1.7-0.2,2.8-0.3v1.2c-0.9,0.3-1.7,0.5-3,0.5c-1.7,0-3-0.5-3.8-1.6c-0.9-1-1.4-2.4-1.4-4.4c0-1.2,0.2-2.3,0.7-3.1
		s1-1.6,1.9-2.1c0.9-0.5,1.7-0.7,3-0.7s2.3,0.2,3.1,0.7l-0.5,1.2C442.4,443.2,441.5,443,440.6,443z"/>
	<path fill="#231F20" d="M452.2,450.3c0,1-0.3,1.7-1,2.3c-0.7,0.5-1.7,0.9-3,0.9c-1.4,0-2.4-0.2-3.1-0.5v-1.2c0.5,0.2,1,0.3,1.6,0.5
		c0.5,0.2,1,0.2,1.6,0.2c0.9,0,1.6-0.2,1.9-0.5c0.5-0.3,0.7-0.9,0.7-1.4c0-0.3,0-0.7-0.2-1c-0.2-0.3-0.3-0.5-0.9-0.7
		c-0.3-0.2-0.9-0.5-1.7-0.7c-1-0.3-1.7-0.9-2.3-1.4c-0.5-0.5-0.7-1.2-0.7-2.1c0-0.9,0.3-1.6,1-2.1s1.6-0.7,2.6-0.7
		c1,0,2.1,0.2,3.1,0.7l-0.3,1.2c-0.9-0.3-1.9-0.5-2.8-0.5c-0.7,0-1.2,0.2-1.6,0.5c-0.3,0.3-0.5,0.7-0.5,1.2c0,0.3,0,0.7,0.2,1
		c0.2,0.3,0.3,0.5,0.7,0.7c0.3,0.2,0.9,0.5,1.6,0.7c1.2,0.3,2.1,0.9,2.4,1.4C451.8,449.3,452.2,449.6,452.2,450.3z"/>
	<path fill="#231F20" d="M461.1,450.3c0,1-0.3,1.7-1,2.3c-0.7,0.5-1.7,0.9-3,0.9c-1.4,0-2.4-0.2-3.1-0.5v-1.2c0.5,0.2,1,0.3,1.6,0.5
		c0.5,0.2,1,0.2,1.6,0.2c0.9,0,1.6-0.2,1.9-0.5c0.5-0.3,0.7-0.9,0.7-1.4c0-0.3,0-0.7-0.2-1c-0.2-0.3-0.3-0.5-0.9-0.7
		c-0.5-0.2-0.9-0.5-1.7-0.7c-1-0.3-1.7-0.9-2.3-1.4c-0.5-0.5-0.7-1.2-0.7-2.1c0-0.9,0.3-1.6,1-2.1s1.6-0.7,2.6-0.7
		c1,0,2.1,0.2,3.1,0.7l-0.3,1.2c-0.9-0.3-1.9-0.5-2.8-0.5c-0.7,0-1.2,0.2-1.6,0.5c-0.3,0.3-0.5,0.7-0.5,1.2c0,0.3,0,0.7,0.2,1
		c0.2,0.3,0.3,0.5,0.7,0.7c0.3,0.2,0.9,0.5,1.6,0.7c1.2,0.3,2.1,0.9,2.4,1.4C460.7,449.3,461.1,449.6,461.1,450.3z"/>
	<path fill="#231F20" d="M469.6,444.6c0,0.7-0.2,1.4-0.7,1.7c-0.3,0.5-1,0.7-1.7,0.9l0,0c0.9,0.2,1.6,0.3,2.1,0.9
		c0.5,0.5,0.7,1,0.7,1.9c0,1-0.3,1.9-1,2.4c-0.7,0.5-1.7,0.9-3.1,0.9c-0.5,0-1.2,0-1.7-0.2c-0.5-0.2-1-0.2-1.4-0.5v-1.2
		c0.5,0.2,1,0.3,1.6,0.5s1,0.2,1.6,0.2c1.9,0,3-0.7,3-2.3c0-1.4-1-2.1-3.3-2.1h-1v-1h1.2c0.9,0,1.6-0.2,2.1-0.5
		c0.5-0.3,0.7-0.9,0.7-1.6c0-0.5-0.2-1-0.5-1.4c-0.3-0.3-0.9-0.5-1.6-0.5c-0.5,0-1,0-1.4,0.2c-0.5,0.2-0.9,0.3-1.6,0.7l-0.7-0.9
		c0.5-0.3,1-0.7,1.6-0.9c0.5-0.2,1.2-0.3,1.9-0.3c1,0,1.9,0.2,2.6,0.7C469.3,443,469.6,443.7,469.6,444.6z"/>
</g>
<g enable-background="new    ">
	<path fill="#231F20" d="M444.3,476.5h-1.4v-5.4H437v5.4h-1.4v-11.3h1.4v4.9h5.9v-4.9h1.4V476.5z"/>
	<path fill="#231F20" d="M450.9,476.5h-1.4v-10.3h-3.7V465h8.5v1.2h-3.7v10.3H450.9z"/>
	<path fill="#231F20" d="M461.4,476.5l-3.8-10.1l0,0c0,0.9,0.2,1.7,0.2,2.8v7.3h-1.2v-11.3h1.9l3.7,9.4l0,0l3.7-9.4h1.9v11.3h-1.4
		v-7.3c0-0.9,0-1.7,0.2-2.8l0,0l-3.8,10.1H461.4z"/>
	<path fill="#231F20" d="M470.7,476.5v-11.3h1.4v10.1h5.1v1.2H470.7z"/>
	<path fill="#231F20" d="M481.8,469.5c1.2,0,2.1,0.3,2.8,0.9s1,1.4,1,2.4c0,1.2-0.3,2.1-1,2.8s-1.7,1-3.1,1c-1.2,0-2.3-0.2-3-0.7
		v-1.2c0.3,0.2,0.9,0.3,1.4,0.5c0.5,0.2,1,0.2,1.6,0.2c0.9,0,1.6-0.2,2.1-0.7c0.5-0.3,0.7-1,0.7-1.9c0-1.6-1-2.4-3-2.4
		c-0.5,0-1.2,0-1.9,0.2l-0.7-0.3l0.3-5.4h5.6v1.2h-4.5l-0.3,3.5C480.6,469.7,481.3,469.5,481.8,469.5z"/>
</g>
<g enable-background="new    ">
	<path fill="#231F20" d="M434,502.8c-0.5,0-0.9,0-1.2-0.2v-1c0.3,0.2,0.7,0.2,1.2,0.2c0.5,0,0.9-0.2,1.2-0.5
		c0.3-0.3,0.3-0.7,0.3-1.4v-11.3h1.4v11.3c0,1-0.2,1.7-0.7,2.3C435.8,502.5,434.9,502.8,434,502.8z"/>
	<path fill="#231F20" d="M445,499.9l-0.2-1.2l0,0c-0.3,0.5-0.9,0.9-1.2,1c-0.3,0.2-0.9,0.3-1.6,0.3c-0.9,0-1.6-0.2-1.9-0.7
		c-0.5-0.3-0.7-1-0.7-1.9c0-1.7,1.4-2.6,4.2-2.8h1.4v-0.5c0-0.7-0.2-1.2-0.3-1.6c-0.3-0.3-0.7-0.5-1.4-0.5s-1.6,0.2-2.4,0.7l-0.3-1
		c0.3-0.2,0.9-0.3,1.4-0.5c0.5-0.2,1-0.2,1.6-0.2c1,0,1.7,0.2,2.3,0.7c0.5,0.5,0.7,1.2,0.7,2.1v5.8H445V499.9z M442,499
		c0.9,0,1.4-0.2,1.9-0.7c0.5-0.5,0.7-1,0.7-1.9v-0.7h-1.2c-1,0-1.7,0.2-2.3,0.5c-0.5,0.3-0.7,0.7-0.7,1.4c0,0.5,0.2,0.9,0.3,1
		C441.2,498.8,441.5,499,442,499z"/>
	<path fill="#231F20" d="M450.6,499.9l-3.3-8.5h1.4l1.9,5.1c0.3,1.2,0.7,1.9,0.7,2.3l0,0c0-0.3,0.2-0.9,0.5-1.7
		c0.3-0.9,1-2.8,2.1-5.6h1.4l-3.3,8.5L450.6,499.9L450.6,499.9z"/>
	<path fill="#231F20" d="M461.9,499.9l-0.2-1.2l0,0c-0.3,0.5-0.9,0.9-1.2,1c-0.3,0.2-0.9,0.3-1.6,0.3c-0.9,0-1.6-0.2-1.9-0.7
		c-0.5-0.3-0.7-1-0.7-1.9c0-1.7,1.4-2.6,4.2-2.8h1.4v-0.5c0-0.7-0.2-1.2-0.3-1.6c-0.3-0.3-0.7-0.5-1.4-0.5s-1.6,0.2-2.4,0.7l-0.3-1
		c0.3-0.2,0.9-0.3,1.4-0.5c0.5-0.2,1-0.2,1.6-0.2c1,0,1.7,0.2,2.3,0.7c0.5,0.5,0.7,1.2,0.7,2.1v5.8h-1.4V499.9z M459,499
		c0.9,0,1.4-0.2,1.9-0.7c0.5-0.5,0.7-1,0.7-1.9v-0.7h-1.2c-1,0-1.7,0.2-2.3,0.5c-0.5,0.3-0.7,0.7-0.7,1.4c0,0.5,0.2,0.9,0.3,1
		C458.1,498.8,458.4,499,459,499z"/>
	<path fill="#231F20" d="M472.2,496.7c0,1-0.3,1.7-1,2.3c-0.7,0.5-1.7,0.9-3,0.9c-1.4,0-2.4-0.2-3.1-0.5v-1.2c0.5,0.2,1,0.3,1.6,0.5
		c0.5,0.2,1,0.2,1.6,0.2c0.9,0,1.6-0.2,1.9-0.5c0.5-0.3,0.7-0.9,0.7-1.4c0-0.3,0-0.7-0.2-1c-0.2-0.3-0.3-0.5-0.9-0.7
		c-0.5-0.2-0.9-0.5-1.7-0.7c-1-0.3-1.7-0.9-2.3-1.4c-0.5-0.5-0.7-1.2-0.7-2.1c0-0.9,0.3-1.6,1-2.1c0.7-0.5,1.6-0.7,2.6-0.7
		c1,0,2.1,0.2,3.1,0.7l-0.3,1.2c-0.9-0.3-1.9-0.5-2.8-0.5c-0.7,0-1.2,0.2-1.6,0.5c-0.3,0.3-0.5,0.7-0.5,1.2c0,0.3,0,0.7,0.2,1
		c0.2,0.2,0.3,0.5,0.7,0.7c0.3,0.2,0.9,0.5,1.6,0.7c1.2,0.3,2.1,0.9,2.4,1.4C471.9,495.7,472.2,496,472.2,496.7z"/>
	<path fill="#231F20" d="M477.6,500c-1.2,0-2.3-0.3-2.8-1.2c-0.7-0.7-1-1.9-1-3.3c0-1.4,0.3-2.6,1-3.3s1.7-1.2,3-1.2
		c0.3,0,0.9,0,1.2,0.2c0.3,0.2,0.7,0.2,1,0.3l-0.3,1c-0.3-0.2-0.5-0.2-0.9-0.3c-0.3,0-0.7-0.2-0.9-0.2c-1.7,0-2.6,1-2.6,3.3
		c0,1,0.2,1.9,0.7,2.4c0.3,0.5,1,0.9,1.9,0.9c0.7,0,1.4-0.2,2.3-0.5v1.2C479.4,499.9,478.5,500,477.6,500z"/>
	<path fill="#231F20" d="M485.8,491.1c0.3,0,0.7,0,1,0.2l-0.2,1.2c-0.3,0-0.7-0.2-0.9-0.2c-0.7,0-1.2,0.3-1.7,0.9
		c-0.5,0.5-0.7,1.2-0.7,2.1v4.5h-1.2v-8.5h1l0.2,1.6l0,0c0.3-0.5,0.7-1,1.2-1.2C485.1,491.5,485.3,491.1,485.8,491.1z"/>
	<path fill="#231F20" d="M488.3,489.1c0-0.3,0-0.5,0.2-0.7c0.2-0.2,0.3-0.2,0.5-0.2c0.2,0,0.3,0,0.5,0.2c0.2,0.2,0.2,0.3,0.2,0.7
		c0,0.3,0,0.5-0.2,0.7c-0.2,0.2-0.3,0.2-0.5,0.2c-0.2,0-0.3,0-0.5-0.2C488.5,489.4,488.3,489.2,488.3,489.1z M489.7,499.9h-1.2v-8.5
		h1.2V499.9z"/>
	<path fill="#231F20" d="M496.5,500c-0.5,0-1-0.2-1.6-0.3c-0.5-0.2-0.9-0.5-1.2-0.9h-0.2c0,0.5,0.2,1,0.2,1.4v3.5h-1.2v-12.4h1
		l0.2,1.2l0,0c0.3-0.5,0.7-0.9,1.2-1c0.5-0.2,0.9-0.3,1.6-0.3c1,0,2.1,0.3,2.6,1.2c0.5,0.9,0.9,1.9,0.9,3.3c0,1.4-0.3,2.4-0.9,3.3
		C498.4,499.5,497.5,500,496.5,500z M496.3,492.2c-0.9,0-1.6,0.2-1.9,0.7c-0.3,0.5-0.5,1.2-0.5,2.3v0.3c0,1.2,0.2,2.1,0.5,2.6
		c0.3,0.5,1,0.7,1.9,0.7c0.7,0,1.4-0.3,1.7-0.9c0.3-0.5,0.7-1.4,0.7-2.4c0-1-0.2-1.9-0.7-2.4C497.5,492.5,497,492.2,496.3,492.2z"/>
	<path fill="#231F20" d="M505,499c0.2,0,0.5,0,0.7,0s0.3,0,0.5-0.2v1c-0.2,0-0.3,0.2-0.7,0.2c-0.3,0-0.5,0-0.7,0
		c-1.6,0-2.4-0.9-2.4-2.6v-5.1h-1.2v-0.7l1.2-0.5l0.5-1.7h0.7v1.9h2.4v1h-2.4v5.1c0,0.5,0.2,0.9,0.3,1.2
		C504.3,498.8,504.5,499,505,499z"/>
</g>
<g enable-background="new    ">
	<path fill="#231F20" d="M434,526c-0.5,0-0.9,0-1.2-0.2v-1c0.3,0.2,0.7,0.2,1.2,0.2c0.5,0,0.9-0.2,1.2-0.5c0.3-0.3,0.3-0.7,0.3-1.4
		v-11.5h1.4v11.3c0,1-0.2,1.7-0.7,2.3C435.8,525.7,434.9,526,434,526z"/>
	<path fill="#231F20" d="M449.9,517.3c0,1.4-0.3,2.6-0.9,3.7s-1.4,1.6-2.4,1.9l2.8,2.8h-2.1l-2.3-2.6h-0.3c-1.7,0-3-0.5-3.8-1.6
		c-0.9-1-1.4-2.4-1.4-4.4c0-1.9,0.5-3.3,1.4-4.4c0.9-1,2.3-1.6,3.8-1.6c1.6,0,3,0.5,3.8,1.6C449.4,514,449.9,515.4,449.9,517.3z
		 M440.8,517.3c0,1.6,0.3,2.8,1,3.5s1.6,1.2,2.8,1.2s2.3-0.3,2.8-1.2c0.7-0.9,1-1.9,1-3.5s-0.3-2.6-1-3.5c-0.7-0.9-1.6-1.2-2.8-1.2
		s-2.3,0.3-3,1.2C441.2,514.5,440.8,515.8,440.8,517.3z"/>
	<path fill="#231F20" d="M453.4,514.5v5.6c0,0.7,0.2,1.2,0.5,1.6c0.3,0.3,0.9,0.5,1.6,0.5c0.9,0,1.6-0.2,1.9-0.7
		c0.3-0.5,0.7-1.2,0.7-2.4v-4.5h1.2v8.5h-1l-0.2-1.2l0,0c-0.3,0.3-0.7,0.7-1,1c-0.3,0.3-1,0.3-1.6,0.3c-1,0-1.7-0.2-2.3-0.7
		c-0.5-0.5-0.7-1.2-0.7-2.4v-5.6H453.4z"/>
	<path fill="#231F20" d="M465.6,523.3c-1.2,0-2.3-0.3-3-1.2c-0.7-0.7-1-1.9-1-3.1c0-1.4,0.3-2.4,1-3.3c0.7-0.9,1.6-1.2,2.8-1.2
		c1,0,1.9,0.3,2.6,1c0.7,0.7,0.9,1.6,0.9,2.8v0.9H463c0,1,0.3,1.7,0.7,2.3c0.3,0.5,1.2,0.7,2.1,0.7s1.7-0.2,2.8-0.5v1.2
		c-0.5,0.2-0.9,0.3-1.2,0.3C467,523.1,466.1,523.3,465.6,523.3z M465.2,515.4c-0.7,0-1.2,0.2-1.6,0.7c-0.3,0.5-0.7,1-0.7,1.9h4.5
		c0-0.9-0.2-1.4-0.5-1.9C466.5,515.6,465.9,515.4,465.2,515.4z"/>
	<path fill="#231F20" d="M474.8,514.4c0.3,0,0.7,0,1,0.2l-0.2,1.2c-0.3,0-0.7-0.2-0.9-0.2c-0.7,0-1.2,0.3-1.7,0.9s-0.7,1.2-0.7,2.1
		v4.5h-1.2v-8.5h1l0.2,1.6l0,0c0.3-0.5,0.7-1,1.2-1.2S474.3,514.4,474.8,514.4z"/>
	<path fill="#231F20" d="M476.1,514.5h1.4l1.9,4.9c0.3,1,0.7,1.9,0.7,2.4l0,0c0-0.3,0.2-0.7,0.3-1.4c0.2-0.7,0.9-2.6,2.1-5.9h1.4
		l-3.7,9.8c-0.3,1-0.9,1.6-1.2,2.1c-0.5,0.3-1,0.5-1.7,0.5c-0.3,0-0.9,0-1.2-0.2v-1c0.3,0,0.5,0.2,0.9,0.2c0.9,0,1.6-0.5,1.9-1.6
		l0.5-1.2L476.1,514.5z"/>
	<path fill="#231F20" d="M494.9,523.1l-3.8-10.1l0,0c0,0.9,0.2,1.7,0.2,2.8v7.3H490v-11.5h1.9l3.7,9.4l0,0l3.7-9.4h1.9v11.3h-1.4
		v-7.3c0-0.9,0-1.7,0.2-2.8l0,0l-3.8,10.1h-1.2V523.1z"/>
	<path fill="#231F20" d="M511.5,518.7c0,1.4-0.3,2.4-1,3.3c-0.7,0.7-1.7,1.2-3,1.2c-0.7,0-1.4-0.2-2.1-0.5c-0.5-0.3-1-0.9-1.4-1.6
		c-0.3-0.7-0.5-1.4-0.5-2.3c0-1.4,0.3-2.4,1-3.3c0.7-0.7,1.7-1.2,3-1.2s2.1,0.3,2.8,1.2C511.1,516.3,511.5,517.3,511.5,518.7z
		 M505,518.7c0,1,0.2,1.9,0.7,2.4c0.5,0.5,1,0.9,1.9,0.9c0.9,0,1.6-0.3,1.9-0.9c0.3-0.5,0.7-1.4,0.7-2.4c0-1-0.2-1.9-0.7-2.4
		c-0.5-0.5-1-0.9-1.9-0.9c-0.9,0-1.6,0.3-1.9,0.9C505.2,516.8,505,517.7,505,518.7z"/>
	<path fill="#231F20" d="M517.8,514.4c1,0,1.9,0.3,2.6,1.2c0.7,0.7,0.9,1.9,0.9,3.3s-0.3,2.4-0.9,3.3c-0.7,0.7-1.6,1.2-2.6,1.2
		c-0.5,0-1-0.2-1.6-0.3c-0.5-0.2-0.9-0.5-1.2-0.9h-0.2l-0.3,1h-0.9V511h1.2v3c0,0.7,0,1.2,0,1.7l0,0
		C515.7,514.7,516.5,514.4,517.8,514.4z M517.6,515.4c-0.9,0-1.6,0.2-1.9,0.7s-0.5,1.4-0.5,2.6s0.2,2.1,0.5,2.6
		c0.3,0.5,1,0.7,1.9,0.7c0.9,0,1.4-0.3,1.7-0.9c0.3-0.5,0.5-1.4,0.5-2.4c0-1-0.2-1.9-0.5-2.4S518.3,515.4,517.6,515.4z"/>
	<path fill="#231F20" d="M523.3,512.1c0-0.3,0-0.5,0.2-0.7s0.3-0.2,0.5-0.2c0.2,0,0.3,0,0.5,0.2c0.2,0.2,0.2,0.3,0.2,0.7
		s0,0.5-0.2,0.7c-0.2,0.2-0.3,0.2-0.5,0.2c-0.2,0-0.3,0-0.5-0.2C523.5,512.6,523.3,512.4,523.3,512.1z M524.9,523.1h-1.2v-8.5h1.2
		V523.1z"/>
	<path fill="#231F20" d="M528.9,523.1h-1.4v-12.2h1.2v12.2H528.9z"/>
	<path fill="#231F20" d="M535.2,523.3c-1.2,0-2.3-0.3-3-1.2c-0.7-0.7-1-1.9-1-3.1c0-1.4,0.3-2.4,1-3.3c0.7-0.9,1.6-1.2,2.8-1.2
		c1,0,1.9,0.3,2.6,1c0.7,0.7,0.9,1.6,0.9,2.8v0.9h-5.9c0,1,0.3,1.7,0.7,2.3c0.3,0.5,1.2,0.7,2.1,0.7c0.9,0,1.7-0.2,2.8-0.5v1.2
		c-0.5,0.2-0.9,0.3-1.2,0.3S535.7,523.3,535.2,523.3z M534.9,515.4c-0.7,0-1.2,0.2-1.6,0.7c-0.3,0.5-0.7,1-0.7,1.9h4.5
		c0-0.9-0.2-1.4-0.5-1.9C536.1,515.6,535.6,515.4,534.9,515.4z"/>
</g>
<g enable-background="new    ">
	<path fill="#231F20" d="M440.6,540.4h3.8v5.6c-0.5,0.2-1.2,0.3-1.9,0.5s-1.4,0.2-2.1,0.2c-1.7,0-3.1-0.5-4-1.6
		c-1-1-1.4-2.4-1.4-4.4c0-1.2,0.2-2.3,0.7-3.1c0.5-0.9,1.2-1.6,2.1-2.1s1.9-0.7,3.1-0.7c1.2,0,2.3,0.2,3.3,0.7l-0.5,1.2
		c-1-0.5-2.1-0.7-3-0.7c-1.4,0-2.4,0.3-3.3,1.2c-0.9,0.9-1.2,1.9-1.2,3.5s0.3,2.8,1,3.5c0.7,0.9,1.9,1.2,3.3,1.2
		c0.9,0,1.6-0.2,2.3-0.3v-3.5h-2.6v-1.2H440.6z"/>
	<path fill="#231F20" d="M447.1,535.5c0-0.3,0-0.5,0.2-0.7c0.2-0.2,0.3-0.2,0.5-0.2c0.2,0,0.3,0,0.5,0.2c0.2,0.2,0.2,0.3,0.2,0.7
		s0,0.5-0.2,0.7c-0.2,0.2-0.3,0.2-0.5,0.2c-0.2,0-0.3,0-0.5-0.2C447.1,536,447.1,535.8,447.1,535.5z M448.5,546.3h-1.2v-8.5h1.2
		V546.3z"/>
	<path fill="#231F20" d="M453.9,545.4c0.2,0,0.5,0,0.7,0c0.2,0,0.3,0,0.5-0.2v1c-0.2,0-0.3,0.2-0.7,0.2c-0.3,0-0.5,0-0.7,0
		c-1.6,0-2.4-0.9-2.4-2.6v-5.1h-1.2v-0.7l1.2-0.5l0.5-1.7h0.7v1.9h2.4v1h-2.4v5.1c0,0.5,0.2,0.9,0.3,1.2
		C453.2,545.2,453.6,545.4,453.9,545.4z"/>
	<path fill="#231F20" d="M461.1,534.9l-4.2,11.3h-1.2l4.2-11.3H461.1z"/>
	<path fill="#231F20" d="M467.9,540.4h3.8v5.6c-0.5,0.2-1.2,0.3-1.9,0.5c-0.7,0.2-1.4,0.2-2.1,0.2c-1.7,0-3.1-0.5-4-1.6
		c-1-1-1.4-2.4-1.4-4.4c0-1.2,0.2-2.3,0.7-3.1c0.5-0.9,1.2-1.6,2.1-2.1s1.9-0.7,3.1-0.7c1.2,0,2.3,0.2,3.3,0.7l-0.5,1.2
		c-1-0.5-2.1-0.7-3-0.7c-1.4,0-2.4,0.3-3.3,1.2c-0.7,0.9-1.2,1.9-1.2,3.5s0.3,2.8,1,3.5c0.7,0.7,1.9,1.2,3.3,1.2
		c0.9,0,1.6-0.2,2.3-0.3v-3.5h-2.6v-1.2H467.9z"/>
	<path fill="#231F20" d="M474.1,535.5c0-0.3,0-0.5,0.2-0.7c0.2-0.2,0.3-0.2,0.5-0.2c0.2,0,0.3,0,0.5,0.2c0.2,0.2,0.2,0.3,0.2,0.7
		s0,0.5-0.2,0.7c-0.2,0.2-0.3,0.2-0.5,0.2c-0.2,0-0.3,0-0.5-0.2C474.3,536,474.1,535.8,474.1,535.5z M475.5,546.3h-1.2v-8.5h1.2
		V546.3z"/>
	<path fill="#231F20" d="M481.1,545.4c0.2,0,0.5,0,0.7,0s0.3,0,0.5-0.2v1c-0.2,0-0.3,0.2-0.7,0.2c-0.3,0-0.5,0-0.7,0
		c-1.6,0-2.4-0.9-2.4-2.6v-5.1h-1.2v-0.7l1.2-0.5l0.5-1.7h0.7v1.9h2.4v1h-2.4v5.1c0,0.5,0.2,0.9,0.3,1.2
		C480.4,545.2,480.6,545.4,481.1,545.4z"/>
	<path fill="#231F20" d="M489.8,546.3v-5.6c0-0.7-0.2-1.2-0.5-1.6c-0.3-0.3-0.9-0.5-1.6-0.5c-0.9,0-1.6,0.2-1.9,0.7
		c-0.3,0.5-0.7,1.2-0.7,2.4v4.5h-1.2v-12.2h1.2v3.7c0,0.5,0,0.9,0,1l0,0c0.2-0.3,0.7-0.7,1-1c0.5-0.2,1-0.3,1.6-0.3
		c1,0,1.7,0.2,2.3,0.7c0.5,0.5,0.7,1.2,0.7,2.4v5.6h-0.9V546.3z"/>
	<path fill="#231F20" d="M495.1,537.7v5.6c0,0.7,0.2,1.2,0.5,1.6c0.3,0.3,0.9,0.5,1.6,0.5c0.9,0,1.6-0.2,1.9-0.7
		c0.3-0.5,0.7-1.2,0.7-2.4v-4.5h1.2v8.5h-1l-0.2-1.2l0,0c-0.3,0.3-0.7,0.7-1,1c-0.3,0.3-1,0.3-1.6,0.3c-1,0-1.7-0.2-2.3-0.7
		c-0.5-0.5-0.7-1.2-0.7-2.4v-5.6H495.1z"/>
	<path fill="#231F20" d="M507.6,537.6c1,0,1.9,0.3,2.6,1.2c0.7,0.7,0.9,1.9,0.9,3.3s-0.3,2.4-0.9,3.3c-0.7,0.7-1.6,1.2-2.6,1.2
		c-0.5,0-1-0.2-1.6-0.3c-0.5-0.2-0.9-0.5-1.2-0.9l0,0l-0.3,1h-0.9v-12.2h1.2v3c0,0.7,0,1.2,0,1.7l0,0
		C505.6,538.1,506.4,537.6,507.6,537.6z M507.3,538.8c-0.9,0-1.6,0.2-1.9,0.7c-0.3,0.5-0.5,1.4-0.5,2.6s0.2,2.1,0.5,2.6
		c0.3,0.5,1,0.7,1.9,0.7s1.4-0.3,1.7-0.9c0.3-0.5,0.5-1.4,0.5-2.4c0-1-0.2-1.9-0.5-2.4C508.7,539.1,508.2,538.8,507.3,538.8z"/>
</g>
<g enable-background="new    ">
	<path fill="#231F20" d="M442.9,569.5l-1.4-3.7h-4.7l-1.4,3.7H434l4.5-11.5h1l4.5,11.5H442.9z M441,564.6l-1.4-3.5
		c-0.2-0.5-0.3-1-0.5-1.6c-0.2,0.5-0.3,1-0.5,1.6l-1.4,3.5H441z"/>
	<path fill="#231F20" d="M451.5,569.5v-5.6c0-0.7-0.2-1.2-0.5-1.6c-0.3-0.3-0.9-0.5-1.6-0.5c-0.9,0-1.6,0.2-1.9,0.7
		c-0.3,0.5-0.7,1.2-0.7,2.4v4.5h-1.2v-8.5h1l0.2,1.2l0,0c0.3-0.3,0.7-0.7,1-1c0.5-0.2,1-0.3,1.6-0.3c1,0,1.7,0.2,2.3,0.7
		c0.5,0.5,0.7,1.2,0.7,2.4v5.6H451.5z"/>
	<path fill="#231F20" d="M461.2,568.3L461.2,568.3c-0.7,0.9-1.6,1.2-2.8,1.2c-1,0-1.9-0.3-2.6-1.2c-0.7-0.7-0.9-1.9-0.9-3.3
		s0.3-2.4,0.9-3.3c0.7-0.7,1.6-1.2,2.6-1.2c1.2,0,2.1,0.3,2.6,1.2h0.2v-0.7v-0.5v-3.5h1.2v12.2h-1L461.2,568.3z M458.6,568.6
		c0.9,0,1.6-0.2,1.9-0.7c0.3-0.5,0.5-1.2,0.5-2.3v-0.3c0-1.2-0.2-2.1-0.5-2.6c-0.3-0.5-1-0.7-1.9-0.7c-0.7,0-1.4,0.3-1.7,0.9
		c-0.3,0.5-0.5,1.4-0.5,2.4c0,1,0.2,1.9,0.5,2.4C457.2,568.3,457.9,568.6,458.6,568.6z"/>
	<path fill="#231F20" d="M469.1,560.8c0.3,0,0.7,0,1,0.2l-0.2,1.2c-0.3,0-0.7-0.2-0.9-0.2c-0.7,0-1.2,0.3-1.7,0.9
		c-0.5,0.5-0.7,1.2-0.7,2.1v4.5h-1.2v-8.5h1l0.2,1.6l0,0c0.3-0.5,0.7-1,1.2-1.2S468.6,560.8,469.1,560.8z"/>
	<path fill="#231F20" d="M479,565.1c0,1.4-0.3,2.4-1,3.3c-0.7,0.7-1.7,1.2-3,1.2c-0.7,0-1.4-0.2-2.1-0.5c-0.5-0.3-1-0.9-1.4-1.6
		c-0.3-0.7-0.5-1.4-0.5-2.3c0-1.4,0.3-2.4,1-3.3c0.7-0.7,1.7-1.2,3-1.2s2.1,0.3,2.8,1.2C478.7,562.9,479,563.9,479,565.1z
		 M472.6,565.1c0,1,0.2,1.9,0.7,2.4c0.5,0.5,1,0.9,1.9,0.9s1.6-0.3,1.9-0.9c0.3-0.5,0.7-1.4,0.7-2.4c0-1-0.2-1.9-0.7-2.4
		c-0.5-0.5-1-0.9-1.9-0.9s-1.6,0.3-1.9,0.9C472.8,563.2,472.6,564.1,472.6,565.1z"/>
	<path fill="#231F20" d="M481.3,558.7c0-0.3,0-0.5,0.2-0.7c0.2-0.2,0.3-0.2,0.5-0.2c0.2,0,0.3,0,0.5,0.2c0.2,0.2,0.2,0.3,0.2,0.7
		s0,0.5-0.2,0.7c-0.2,0.2-0.3,0.2-0.5,0.2c-0.2,0-0.3,0-0.5-0.2C481.3,559.2,481.3,558.8,481.3,558.7z M482.7,569.5h-1.2v-8.5h1.2
		V569.5z"/>
	<path fill="#231F20" d="M491.2,568.3L491.2,568.3c-0.7,0.9-1.6,1.2-2.8,1.2c-1,0-1.9-0.3-2.6-1.2c-0.7-0.7-0.9-1.9-0.9-3.3
		s0.3-2.4,0.9-3.3c0.7-0.7,1.6-1.2,2.6-1.2c1.2,0,2.1,0.3,2.6,1.2h0.2v-0.7v-0.5v-3.5h1.2v12.2h-1L491.2,568.3z M488.6,568.6
		c0.9,0,1.6-0.2,1.9-0.7c0.3-0.5,0.5-1.2,0.5-2.3v-0.3c0-1.2-0.2-2.1-0.5-2.6c-0.3-0.5-1-0.7-1.9-0.7c-0.7,0-1.4,0.3-1.7,0.9
		s-0.5,1.4-0.5,2.4c0,1,0.2,1.9,0.5,2.4C487.2,568.3,487.9,568.6,488.6,568.6z"/>
	<path fill="#231F20" d="M498.9,566.5c0-0.7,0.2-1.2,0.5-1.7c0.3-0.5,1-1,1.9-1.6c-0.5-0.5-0.7-0.9-0.9-1c-0.2-0.2-0.3-0.5-0.3-0.9
		s-0.2-0.5-0.2-0.9c0-0.7,0.2-1.4,0.7-1.7c0.5-0.5,1.2-0.7,2.1-0.7c0.9,0,1.6,0.2,1.9,0.7c0.5,0.3,0.7,1,0.7,1.7
		c0,0.5-0.2,1-0.5,1.6c-0.3,0.5-0.9,0.9-1.7,1.4l3.1,3c0.3-0.3,0.5-0.7,0.7-1.2c0.2-0.3,0.3-0.9,0.5-1.4h1.4
		c-0.3,1.6-0.9,2.6-1.6,3.3l2.3,2.3h-1.7l-1.4-1.4c-0.7,0.5-1.2,0.9-1.9,1.2c-0.7,0.3-1.4,0.3-2.1,0.3c-1,0-1.9-0.3-2.6-0.9
		C499.1,568.3,498.9,567.6,498.9,566.5z M502.4,568.4c1.2,0,2.3-0.3,3.1-1.2l-3.5-3.3c-0.5,0.3-1,0.7-1.2,0.9s-0.3,0.5-0.5,0.7
		s-0.2,0.5-0.2,0.9c0,0.5,0.2,1,0.5,1.4C501.2,568.3,501.7,568.4,502.4,568.4z M501.2,560.4c0,0.3,0.2,0.7,0.3,1s0.5,0.7,0.9,1.2
		c0.7-0.3,1.2-0.7,1.4-1s0.3-0.7,0.3-1.2c0-0.3-0.2-0.7-0.3-1c-0.3-0.2-0.7-0.3-1-0.3c-0.5,0-0.9,0.2-1,0.3
		C501.4,559.5,501.2,559.9,501.2,560.4z"/>
	<path fill="#231F20" d="M523,569.5h-1.6l-3.1-5.1l-3.1,5.1h-1.4l3.8-5.9l-3.5-5.4h1.4l2.8,4.5l2.8-4.5h1.4l-3.5,5.4L523,569.5z"/>
	<path fill="#231F20" d="M527.7,569.7c-1.2,0-2.3-0.3-2.8-1.2c-0.7-0.7-1-1.9-1-3.3s0.3-2.6,1-3.3c0.7-0.7,1.7-1.2,3-1.2
		c0.3,0,0.9,0,1.2,0.2c0.3,0.2,0.7,0.2,1,0.3l-0.3,1c-0.3-0.2-0.5-0.2-0.9-0.3c-0.3,0-0.7-0.2-0.9-0.2c-1.7,0-2.6,1-2.6,3.3
		c0,1,0.2,1.9,0.7,2.4c0.3,0.5,1,0.9,1.9,0.9c0.7,0,1.4-0.2,2.3-0.5v1.2C529.5,569.5,528.6,569.7,527.7,569.7z"/>
	<path fill="#231F20" d="M539.4,565.1c0,1.4-0.3,2.4-1,3.3c-0.7,0.7-1.7,1.2-3,1.2c-0.7,0-1.4-0.2-2.1-0.5c-0.5-0.3-1-0.9-1.4-1.6
		c-0.3-0.7-0.5-1.4-0.5-2.3c0-1.4,0.3-2.4,1-3.3c0.7-0.7,1.7-1.2,3-1.2s2.1,0.3,2.8,1.2C539.1,562.9,539.4,563.9,539.4,565.1z
		 M532.8,565.1c0,1,0.2,1.9,0.7,2.4c0.5,0.5,1,0.9,1.9,0.9c0.9,0,1.6-0.3,1.9-0.9s0.7-1.4,0.7-2.4c0-1-0.2-1.9-0.7-2.4
		s-1-0.9-1.9-0.9c-0.9,0-1.6,0.3-1.9,0.9S532.8,564.1,532.8,565.1z"/>
	<path fill="#231F20" d="M547.4,568.3L547.4,568.3c-0.7,0.9-1.6,1.2-2.8,1.2c-1,0-1.9-0.3-2.6-1.2c-0.7-0.7-0.9-1.9-0.9-3.3
		s0.3-2.4,0.9-3.3c0.7-0.7,1.6-1.2,2.6-1.2c1.2,0,2.1,0.3,2.6,1.2h0.2v-0.7v-0.5v-3.5h1.2v12.2h-1L547.4,568.3z M544.8,568.6
		c0.9,0,1.6-0.2,1.9-0.7c0.3-0.5,0.5-1.2,0.5-2.3v-0.3c0-1.2-0.2-2.1-0.5-2.6s-1-0.7-1.9-0.7c-0.7,0-1.4,0.3-1.7,0.9
		s-0.5,1.4-0.5,2.4c0,1,0.2,1.9,0.5,2.4C543.4,568.3,544.1,568.6,544.8,568.6z"/>
	<path fill="#231F20" d="M555.1,569.7c-1.2,0-2.3-0.3-3-1.2c-0.7-0.7-1-1.9-1-3.1c0-1.4,0.3-2.4,1-3.3c0.7-0.9,1.6-1.2,2.8-1.2
		c1,0,1.9,0.3,2.6,1c0.7,0.7,0.9,1.6,0.9,2.8v0.9h-5.9c0,1,0.3,1.7,0.7,2.3s1.2,0.7,2.1,0.7c0.9,0,1.7-0.2,2.8-0.5v1.2
		c-0.5,0.2-0.9,0.3-1.2,0.3C556.5,569.5,555.6,569.7,555.1,569.7z M554.8,561.8c-0.7,0-1.2,0.2-1.6,0.7c-0.3,0.5-0.7,1-0.7,1.9h4.5
		c0-0.9-0.2-1.4-0.5-1.9C555.8,562.2,555.3,561.8,554.8,561.8z"/>
</g>
<g>
	<g>
		<g>
			<rect x="646.4" y="555.4" fill="#D6D6D6" width="290.2" height="16.6"/>
		</g>
	</g>
	<g>
		<g>
			<g>
				<rect x="573.8" y="555.4" fill="#E6725B" width="72.6" height="16.6"/>
			</g>
		</g>
	</g>
</g>
</svg>
